<svg width="500" height="500" viewBox="0 0 500 500" fill="none" xmlns="http://www.w3.org/2000/svg">
<g clip-path="url(#clip0_223_1265)">
<path d="M451.69 276.52C447.35 313.21 430.6 355.88 397.13 375.52C346.57 405.15 350.8 450.71 252.13 470.52C237.736 473.477 223.063 474.865 208.37 474.66C201.18 474.531 194.005 473.943 186.89 472.9C124.17 463.74 81.9501 420.14 66.4701 367.51C46.0901 298.29 86.7801 252.98 113.75 225.67C140.72 198.36 160.46 113.25 257.33 92.9996C272.116 89.8494 287.216 88.4166 302.33 88.7296C336.79 89.5796 374.38 100.89 400.4 124.52C402.347 126.293 404.247 128.13 406.1 130.03C442.24 167.15 457.6 226.49 451.69 276.52Z" fill="#92E3A9"/>
<path opacity="0.7" d="M451.69 276.52C447.35 313.21 430.6 355.88 397.13 375.52C346.57 405.15 350.8 450.71 252.13 470.52C237.736 473.477 223.063 474.865 208.37 474.66C201.18 474.531 194.005 473.943 186.89 472.9C124.17 463.74 81.9501 420.14 66.4701 367.51C46.0901 298.29 86.7801 252.98 113.75 225.67C140.72 198.36 160.46 113.25 257.33 92.9996C272.116 89.8494 287.216 88.4166 302.33 88.7296C336.79 89.5796 374.38 100.89 400.4 124.52C402.347 126.293 404.247 128.13 406.1 130.03C442.24 167.15 457.6 226.49 451.69 276.52Z" fill="white"/>
<g opacity="0.15">
<path d="M322.09 98.0006C317.35 101.291 304.61 103.501 304.6 103.501C304.59 103.501 305.69 94.6606 305.83 94.1106C307.47 87.7406 314.37 76.3906 321.73 75.9406C327.02 75.6206 330.91 80.2206 330.73 85.3106C330.55 90.4006 326.13 95.1706 322.09 98.0006Z" fill="black"/>
<path d="M287 258.31C287 258.61 287 258.89 287 259.19L282.6 262C282.6 260.8 282.6 259.59 282.6 258.33C282.6 254.79 282.67 251 282.77 247.11C279.12 246.428 275.513 245.53 271.97 244.42C269.06 249.15 260.51 255.71 259.4 256.55C261.31 259.47 263.21 262.28 265.03 264.92C266.29 266.73 267.51 268.46 268.69 270.13L263.9 271.07C263.08 269.87 262.26 268.64 261.42 267.36C259.42 264.41 257.42 261.21 255.37 257.91C254.07 258.46 243.37 262.91 237.97 262.76C233.06 262.63 226.84 261.09 223.82 256.86C220.8 252.63 221.6 246.74 226.21 244.11C232.61 240.45 244.6 246.17 249.45 250.61C249.74 250.87 252.53 254.06 254.26 256.1C253.43 254.75 252.6 253.44 251.76 252.04C250.08 249.27 248.49 246.46 246.76 243.45L244.38 238.95C243.56 237.46 242.88 235.79 242.11 234.19C240.4 230.46 238.86 226.6 237.39 222.68C234.97 224.15 226.28 229.23 221.39 229.84C216.5 230.45 210.14 229.84 206.51 226.15C202.88 222.46 202.78 216.48 206.94 213.15C212.71 208.57 225.43 212.41 230.94 216.06C231.29 216.28 234.94 219.35 236.88 221.06C236.01 218.69 235.14 216.33 234.34 213.91C232.04 206.91 229.93 199.77 227.79 192.65C227.123 190.47 226.457 188.297 225.79 186.13C224.94 186.66 214.79 192.93 209.26 193.61C204.38 194.23 198 193.61 194.38 189.92C190.76 186.23 190.65 180.25 194.81 176.92C200.58 172.34 213.3 176.18 218.81 179.83C219.22 180.11 224.44 184.52 225.71 185.71C224.23 180.92 222.71 176.17 221.03 171.55C218.75 165.326 216.068 159.256 213 153.38C212.6 153.62 202 160.21 196.38 160.91C191.5 161.52 185.12 160.91 181.49 157.22C177.86 153.53 177.76 147.55 181.92 144.22C187.69 139.64 200.41 143.48 205.92 147.13C206.34 147.42 211.92 152.13 212.92 153.13C212.75 152.79 212.6 152.42 212.42 152.13C209.206 146.289 205.482 140.744 201.29 135.56C199.02 132.66 196.68 130.03 194.29 127.56C192.44 128.99 183.92 135.43 178.93 136.62C174.15 137.76 167.74 137.89 163.73 134.62C159.72 131.35 158.96 125.42 162.73 121.69C167.97 116.5 181.03 118.92 186.87 121.95C187.19 122.11 190.23 124.14 192.43 125.65C191.36 124.53 190.27 123.36 189.23 122.31C185.3 118.31 181.47 114.97 178.05 112C176.05 110.33 174.29 108.86 172.58 107.5C170.04 107.95 159.75 109.66 154.86 108.44C149.97 107.22 144.35 104.44 142.31 99.6302C140.27 94.8202 142.31 89.2702 147.39 87.6902C154.39 85.5002 164.9 93.6902 168.69 99.0402C169.02 99.5102 173.3 107.36 173.17 107.39H173.02C174.68 108.66 176.45 110.05 178.36 111.61C181.85 114.51 185.77 117.81 189.79 121.7C194.172 125.839 198.306 130.234 202.17 134.86C206.534 140.011 210.426 145.543 213.8 151.39L213.91 151.61C213.45 149.5 212.38 143.56 212.35 143.09C211.92 136.53 214.94 123.59 221.79 120.87C226.72 118.87 231.85 122.07 233.24 126.97C234.63 131.87 232 137.68 229 141.6C225.66 146.03 215.1 151.75 214.26 152.21C217.546 158.241 220.426 164.485 222.88 170.9C224.33 174.63 225.68 178.44 226.98 182.27C226.65 180.43 226.36 178.78 226.35 178.55C225.92 171.99 228.94 159.05 235.79 156.33C240.72 154.33 245.85 157.53 247.24 162.43C248.63 167.33 246 173.25 243 177.17C240 181.09 231.09 186.17 228.71 187.52C229.2 189 229.71 190.46 230.18 191.94C232.47 199.02 234.73 206.1 237.18 212.94C238.03 215.36 238.96 217.71 239.89 220.07C239.59 218.44 239.36 217.07 239.34 216.85C238.91 210.29 241.93 197.35 248.78 194.63C253.71 192.68 258.84 195.83 260.23 200.73C261.62 205.63 259 211.59 256 215.51C253 219.43 245 224.06 242.14 225.62C243.14 228.01 244.14 230.4 245.27 232.62C246.05 234.15 246.7 235.68 247.57 237.18C248.44 238.68 249.23 240.18 250.04 241.63C251.72 244.4 253.43 247.27 255.13 249.93C256.3 251.79 257.45 253.54 258.6 255.31C257.72 252.9 256.09 248.17 256 247.75C254.97 242.068 255.407 236.217 257.27 230.75C257.126 230.119 257.043 229.477 257.02 228.83C256.84 223.75 260.75 219.17 266.02 219.52C273.37 220 280.21 231.39 281.81 237.77C281.91 238.14 282.48 242.34 282.81 244.99C282.87 243.41 282.9 241.86 282.97 240.23C283.1 237 283.31 233.77 283.53 230.3C283.7 228.63 283.87 226.94 284.04 225.24C284.21 223.54 284.53 221.77 284.76 220.02C285.4 216.02 286.24 211.9 287.18 207.81C284.35 207.7 274.3 207.15 269.88 204.96C265.46 202.77 260.47 198.77 259.5 193.67C258.53 188.57 261.73 183.54 267.01 183.09C274.35 182.45 282.85 192.67 285.4 198.73C285.56 199.11 286.9 203.67 287.59 206.18C288.17 203.73 288.74 201.28 289.41 198.83C291.35 191.72 293.53 184.6 295.67 177.48C296.33 175.3 296.96 173.12 297.6 170.93C296.6 170.93 284.6 170.51 279.68 168.05C275.28 165.87 270.27 161.87 269.3 156.76C268.33 151.65 271.53 146.64 276.82 146.18C284.15 145.55 292.65 155.76 295.2 161.83C295.39 162.28 297.31 168.83 297.72 170.54C299.12 165.73 300.48 160.93 301.62 156.15C303.2 149.696 304.355 143.145 305.08 136.54C304.61 136.54 292.08 136.17 287.08 133.65C282.67 131.47 277.67 127.47 276.7 122.36C275.73 117.25 278.92 112.24 284.21 111.78C291.55 111.15 300.04 121.36 302.59 127.43C302.8 127.9 304.86 134.96 305.14 136.27C305.14 135.89 305.26 135.49 305.3 135.11C305.848 128.453 305.801 121.759 305.16 115.11C304.86 111.44 304.36 107.95 303.8 104.57C301.47 104.74 290.8 105.41 285.99 103.65C281.37 101.97 275.99 98.5402 274.44 93.5702C272.89 88.6002 275.54 83.2602 280.74 82.2302C287.97 80.7902 297.53 90.0102 300.74 95.7602C300.91 96.0702 302.33 99.4402 303.33 101.92C303.05 100.39 302.8 98.8102 302.51 97.3602C301.42 91.9002 300.09 86.9602 298.87 82.6002C298.16 80.1202 297.47 77.9002 296.8 75.8202C294.42 74.8202 284.9 70.5502 281.5 66.8202C278.1 63.0902 274.95 57.6602 275.89 52.5402C276.83 47.4202 281.6 44.0002 286.7 45.4602C293.78 47.5202 298.01 60.1102 298.21 66.6902C298.21 67.2502 297.46 76.1702 297.34 76.1202L297.19 76.0602C297.88 78.0602 298.59 80.1702 299.32 82.5202C300.63 86.8602 302.07 91.7802 303.32 97.2502C304.692 103.119 305.72 109.062 306.4 115.05C307.188 121.757 307.379 128.52 306.97 135.26V135.5C307.76 133.5 310.14 127.94 310.37 127.5C313.63 121.79 323.29 112.67 330.5 114.18C335.69 115.27 338.23 120.73 336.69 125.59C335.15 130.45 329.69 133.91 325.03 135.59C319.8 137.43 307.83 136.38 306.88 136.29C306.295 143.139 305.252 149.941 303.76 156.65C302.91 160.56 301.94 164.48 300.91 168.39C301.65 166.67 302.32 165.14 302.43 164.94C305.69 159.23 315.35 150.1 322.56 151.62C327.76 152.71 330.29 158.17 328.75 163.02C327.21 167.87 321.75 171.35 317.09 173.02C312.43 174.69 302.17 174.02 299.46 173.77C299.06 175.27 298.66 176.77 298.25 178.26C296.25 185.44 294.25 192.59 292.47 199.67C291.85 202.16 291.33 204.67 290.8 207.11C291.45 205.59 292.01 204.31 292.12 204.11C295.38 198.4 305.04 189.28 312.25 190.79C317.44 191.88 319.98 197.34 318.44 202.2C316.9 207.06 311.44 210.52 306.78 212.2C302.12 213.88 292.85 213.2 289.64 212.98C289.17 215.54 288.7 218.1 288.36 220.59C288.17 222.3 287.86 223.93 287.77 225.66C287.68 227.39 287.5 229.06 287.37 230.73C287.24 233.97 287.08 237.3 287.03 240.46C287.03 242.66 286.97 244.75 286.96 246.86C287.55 244.37 288.81 239.52 288.96 239.13C291.32 232.99 299.49 222.51 306.84 222.91C312.14 223.2 315.47 228.22 314.68 233.25C313.89 238.28 309 242.54 304.68 244.86C299.91 247.41 288.39 248.21 286.95 248.3C286.86 251.71 286.88 255.11 287 258.31Z" fill="black"/>
<path d="M194.32 126.06C194.22 126.15 190.32 118.06 190.16 117.54C188.01 111.33 187.51 98.05 193.4 93.62C197.64 90.43 203.4 92.12 206.06 96.48C208.72 100.84 207.69 107.25 205.87 111.82C203.73 117.17 194.33 126.05 194.32 126.06Z" fill="black"/>
</g>
<g opacity="0.15">
<path d="M127.93 283.271C127.11 286.131 122.75 291.181 122.75 291.191C122.75 291.201 120.3 287.301 120.17 287.041C118.74 283.961 117.79 277.181 120.57 274.591C121.047 274.176 121.605 273.866 122.209 273.681C122.812 273.496 123.448 273.44 124.075 273.516C124.702 273.593 125.306 273.8 125.848 274.125C126.389 274.449 126.857 274.884 127.22 275.401C128.83 277.541 128.62 280.831 127.93 283.271Z" fill="black"/>
<path d="M166.33 358.711L166.62 359.051L165.8 361.611L164.6 360.151C163.44 358.741 162.23 357.211 161 355.621C159.319 356.541 157.586 357.362 155.81 358.081C156.2 360.921 154.93 366.331 154.76 367.021C156.48 367.561 158.15 368.071 159.76 368.521C160.86 368.841 161.91 369.131 162.93 369.401L161.32 371.401L159.12 370.731C157.37 370.191 155.52 369.581 153.62 368.931C153.28 369.581 150.47 374.851 148.27 376.561C146.27 378.111 143.27 379.561 140.69 378.831C140.076 378.686 139.499 378.413 138.998 378.03C138.496 377.648 138.08 377.164 137.778 376.611C137.475 376.057 137.292 375.446 137.241 374.817C137.189 374.189 137.271 373.556 137.48 372.961C138.83 369.411 145.48 367.771 148.87 367.961C149.07 367.961 151.23 368.331 152.58 368.581C151.81 368.311 151.05 368.061 150.26 367.771C148.69 367.221 147.13 366.621 145.46 365.981L143.04 364.981C142.22 364.661 141.4 364.221 140.58 363.831C138.68 362.901 136.8 361.831 134.93 360.781C134.44 362.161 132.64 367.021 130.93 368.871C129.22 370.721 126.45 372.561 123.79 372.261C123.161 372.211 122.55 372.03 121.995 371.729C121.441 371.427 120.956 371.013 120.572 370.512C120.189 370.012 119.914 369.436 119.767 368.822C119.621 368.209 119.604 367.571 119.72 366.951C120.52 363.241 126.85 360.611 130.23 360.281C130.44 360.281 132.89 360.281 134.23 360.331C133.11 359.671 131.99 359.021 130.88 358.331C127.68 356.331 124.5 354.141 121.32 352.001C120.32 351.341 119.32 350.701 118.39 350.001C118.22 350.491 116.2 356.321 114.24 358.391C112.5 360.231 109.76 362.081 107.1 361.781C106.471 361.731 105.86 361.55 105.305 361.249C104.751 360.947 104.266 360.533 103.882 360.032C103.499 359.532 103.224 358.956 103.077 358.342C102.931 357.729 102.914 357.091 103.03 356.471C103.83 352.761 110.16 350.131 113.54 349.801C113.79 349.801 117.32 349.801 118.21 349.881C116.06 348.461 113.9 347.061 111.72 345.771C108.779 344.006 105.726 342.436 102.58 341.071C102.51 341.301 100.43 347.401 98.4199 349.511C96.6699 351.351 93.9399 353.211 91.2699 352.911C90.6409 352.86 90.0295 352.678 89.4756 352.375C88.9216 352.073 88.4375 351.657 88.0546 351.155C87.6717 350.654 87.3986 350.077 87.2531 349.463C87.1076 348.849 87.0929 348.211 87.2099 347.591C88.0099 343.881 94.3399 341.251 97.7099 340.921C97.9799 340.921 101.77 340.921 102.46 341.011C102.28 340.941 102.09 340.841 101.91 340.761C98.7242 339.465 95.4273 338.461 92.0599 337.761C90.1999 337.351 88.4099 337.061 86.6599 336.821C86.3899 337.991 85.0899 343.351 83.4899 345.451C81.8899 347.551 79.4399 349.621 76.7599 349.611C76.1297 349.631 75.5024 349.518 74.9187 349.28C74.335 349.041 73.808 348.682 73.3722 348.227C72.9364 347.771 72.6014 347.229 72.3891 346.635C72.1768 346.041 72.0919 345.41 72.1399 344.781C72.5299 341.001 78.5299 337.691 81.8499 336.991C82.0299 336.991 83.9099 336.771 85.2799 336.651C84.4799 336.561 83.6699 336.441 82.9099 336.361C80.0499 336.071 77.4099 335.971 75.0799 335.911C73.7499 335.911 72.5499 335.911 71.4299 335.911C70.5599 336.911 67.0099 340.961 64.6699 342.071C62.3299 343.181 59.1599 343.901 56.7799 342.661C56.2103 342.389 55.7044 342 55.2953 341.519C54.8861 341.038 54.583 340.477 54.4056 339.871C54.2282 339.265 54.1805 338.629 54.2657 338.003C54.3509 337.378 54.567 336.777 54.8999 336.241C56.9899 333.071 63.8399 332.901 67.1099 333.811C67.3899 333.881 71.6699 335.621 71.6299 335.671L71.5699 335.731C72.6499 335.731 73.8099 335.671 75.0799 335.671C77.4199 335.671 80.0799 335.721 82.9399 335.961C86.0404 336.183 89.1256 336.584 92.1799 337.161C95.5887 337.796 98.9349 338.729 102.18 339.951L102.3 340.001C101.43 339.311 99.0599 337.291 98.8899 337.121C96.5699 334.641 93.5499 328.491 95.3899 325.121C95.7129 324.578 96.1463 324.109 96.662 323.745C97.1777 323.38 97.7642 323.128 98.3836 323.004C99.0029 322.881 99.6413 322.889 100.257 323.028C100.873 323.167 101.453 323.434 101.96 323.811C104.16 325.341 104.96 328.541 105.09 331.071C105.2 333.931 102.86 339.661 102.67 340.071C105.955 341.398 109.146 342.948 112.22 344.711C114.02 345.711 115.8 346.801 117.57 347.901C116.84 347.281 116.19 346.711 116.11 346.621C113.79 344.151 110.76 338.001 112.61 334.681C112.931 334.137 113.363 333.667 113.877 333.302C114.392 332.937 114.978 332.684 115.597 332.56C116.216 332.437 116.854 332.445 117.47 332.585C118.086 332.724 118.665 332.992 119.17 333.371C121.37 334.901 122.17 338.101 122.3 340.631C122.43 343.161 120.51 348.131 119.99 349.431L121.99 350.711C125.22 352.781 128.44 354.871 131.66 356.821C132.79 357.501 133.93 358.141 135.07 358.821C134.42 358.261 133.88 357.821 133.8 357.711C131.48 355.231 128.46 349.081 130.3 345.761C130.622 345.218 131.054 344.75 131.569 344.385C132.084 344.021 132.67 343.769 133.288 343.645C133.907 343.522 134.544 343.529 135.16 343.668C135.775 343.807 136.354 344.074 136.86 344.451C139.06 345.981 139.86 349.181 140 351.711C140.14 354.241 138.38 358.711 137.77 360.281C138.96 360.901 140.15 361.521 141.32 362.071C142.14 362.421 142.89 362.821 143.73 363.131L146.17 364.131C147.74 364.691 149.36 365.271 150.91 365.781C151.99 366.141 153.02 366.461 154.05 366.781C152.92 366.111 150.72 364.781 150.55 364.611C148.273 362.681 146.53 360.198 145.49 357.401C145.223 357.201 144.978 356.973 144.76 356.721C144.326 356.263 143.994 355.718 143.785 355.123C143.577 354.527 143.496 353.894 143.549 353.265C143.602 352.637 143.787 352.026 144.092 351.474C144.397 350.922 144.816 350.44 145.32 350.061C148.4 347.851 154.86 350.151 157.58 352.171C157.74 352.291 159.34 353.781 160.34 354.731C159.84 354.081 159.34 353.461 158.84 352.781C157.84 351.451 156.84 350.091 155.84 348.641L154.39 346.451C153.89 345.741 153.45 344.911 152.97 344.141C151.9 342.311 150.9 340.411 149.97 338.481C148.81 339.361 144.62 342.421 142.14 342.991C139.66 343.561 136.37 343.601 134.31 341.881C133.812 341.493 133.402 341.005 133.106 340.448C132.81 339.891 132.634 339.278 132.591 338.649C132.548 338.019 132.637 337.388 132.854 336.796C133.071 336.203 133.41 335.663 133.85 335.211C136.57 332.551 143.29 333.851 146.29 335.441C146.48 335.541 148.51 336.921 149.6 337.691C149.04 336.531 148.46 335.361 147.93 334.161C146.38 330.701 144.93 327.161 143.44 323.601C142.99 322.521 142.53 321.441 142.07 320.361C141.66 320.681 136.76 324.431 133.99 325.071C131.52 325.641 128.21 325.681 126.16 323.961C125.663 323.572 125.253 323.083 124.957 322.526C124.66 321.968 124.484 321.355 124.44 320.725C124.396 320.096 124.484 319.464 124.699 318.87C124.915 318.277 125.252 317.736 125.69 317.281C128.41 314.631 135.14 315.931 138.14 317.511C138.37 317.631 141.28 319.621 141.99 320.161C140.99 317.791 139.99 315.431 138.84 313.161C137.37 310.072 135.699 307.082 133.84 304.211C133.64 304.361 128.55 308.291 125.7 308.951C123.23 309.521 119.93 309.561 117.87 307.841C117.372 307.452 116.962 306.963 116.666 306.405C116.369 305.847 116.194 305.233 116.15 304.603C116.107 303.973 116.197 303.341 116.414 302.748C116.631 302.155 116.97 301.614 117.41 301.161C120.13 298.511 126.86 299.811 129.86 301.391C130.09 301.521 133.22 303.661 133.76 304.091C133.65 303.921 133.56 303.741 133.45 303.571C131.494 300.746 129.292 298.099 126.87 295.661C125.55 294.291 124.21 293.061 122.87 291.901C122 292.731 117.96 296.481 115.47 297.351C112.98 298.221 109.8 298.591 107.56 297.111C107.024 296.778 106.563 296.336 106.208 295.814C105.854 295.292 105.612 294.702 105.5 294.08C105.388 293.459 105.407 292.821 105.557 292.208C105.707 291.595 105.984 291.02 106.37 290.521C108.78 287.591 115.61 288.141 118.77 289.391C118.94 289.451 120.61 290.391 121.77 291.001C121.16 290.481 120.55 289.931 119.95 289.451C117.73 287.631 115.59 286.091 113.68 284.751C112.59 283.991 111.58 283.331 110.68 282.751C109.39 283.111 104.21 284.531 101.68 284.161C99.1499 283.791 96.0699 282.651 94.7799 280.301C94.4544 279.759 94.2474 279.153 94.1725 278.525C94.0976 277.897 94.1566 277.261 94.3455 276.657C94.5345 276.053 94.8491 275.496 95.2687 275.023C95.6882 274.55 96.2033 274.171 96.7799 273.911C100.27 272.421 106.08 276.051 108.31 278.611C108.5 278.831 111.11 282.611 111.04 282.611H110.97C111.89 283.181 112.87 283.801 113.97 284.501C115.91 285.801 118.09 287.291 120.36 289.071C122.808 290.969 125.145 293.006 127.36 295.171C129.865 297.587 132.15 300.221 134.19 303.041L134.26 303.151C133.91 302.091 133.05 299.151 133.01 298.861C132.44 295.511 133.31 288.721 136.68 286.971C137.247 286.693 137.867 286.539 138.498 286.517C139.129 286.495 139.758 286.607 140.343 286.845C140.928 287.083 141.457 287.441 141.894 287.897C142.331 288.353 142.667 288.896 142.88 289.491C143.88 291.981 142.8 295.111 141.49 297.281C140 299.721 134.89 303.211 134.49 303.491C136.493 306.415 138.3 309.468 139.9 312.631C140.84 314.471 141.73 316.351 142.6 318.241C142.33 317.321 142.1 316.491 142.08 316.371C141.51 313.021 142.38 306.231 145.75 304.481C146.317 304.203 146.937 304.049 147.568 304.027C148.199 304.005 148.828 304.117 149.413 304.355C149.998 304.593 150.527 304.951 150.964 305.407C151.401 305.863 151.737 306.406 151.95 307.001C152.95 309.491 151.87 312.621 150.55 314.791C149.23 316.961 144.92 320.051 143.77 320.851C144.09 321.581 144.43 322.301 144.77 323.041C146.32 326.551 147.85 330.041 149.46 333.461C150.03 334.661 150.63 335.821 151.23 336.981C150.99 336.161 150.8 335.461 150.78 335.351C150.21 332.011 151.08 325.211 154.45 323.461C155.018 323.185 155.638 323.032 156.27 323.012C156.901 322.992 157.529 323.105 158.114 323.343C158.699 323.582 159.227 323.941 159.664 324.397C160.101 324.853 160.437 325.396 160.65 325.991C161.65 328.481 160.57 331.601 159.25 333.771C157.93 335.941 154.04 338.771 152.68 339.691C153.32 340.861 153.97 342.031 154.68 343.141C155.16 343.881 155.58 344.631 156.1 345.351C156.62 346.071 157.1 346.791 157.6 347.511C158.6 348.841 159.6 350.221 160.65 351.511C161.35 352.401 162.03 353.241 162.71 354.081C162.13 352.901 161.05 350.551 160.98 350.341C159.92 347.131 159.75 340.281 162.81 338.031C163.33 337.674 163.92 337.43 164.54 337.316C165.16 337.201 165.798 337.217 166.412 337.364C167.025 337.512 167.601 337.786 168.102 338.169C168.603 338.553 169.018 339.037 169.32 339.591C170.68 341.901 170.09 345.161 169.12 347.501C168.05 350.071 163.72 354.161 163.18 354.661C164.13 356.111 165.25 357.461 166.33 358.711Z" fill="black"/>
<path d="M86.15 336.24C86.15 336.31 81.96 334.36 81.71 334.24C78.82 332.47 74.28 327.33 75.18 323.64C75.3451 323.029 75.6378 322.459 76.0388 321.968C76.4399 321.478 76.9402 321.078 77.507 320.794C78.0737 320.511 78.694 320.351 79.327 320.324C79.9601 320.298 80.5916 320.405 81.18 320.64C83.71 321.53 85.36 324.4 86.12 326.81C87 329.62 86.15 336.24 86.15 336.24Z" fill="black"/>
</g>
<g opacity="0.15">
<path d="M371.91 283.27C372.72 286.13 377.08 291.18 377.09 291.19C377.1 291.2 379.54 287.3 379.67 287.04C381.1 283.96 382.05 277.18 379.26 274.59C378.784 274.176 378.227 273.866 377.624 273.681C377.021 273.496 376.385 273.44 375.759 273.517C375.133 273.593 374.53 273.8 373.989 274.125C373.448 274.449 372.982 274.884 372.62 275.4C371 277.54 371.21 280.83 371.91 283.27Z" fill="black"/>
<path d="M333.51 358.71L333.22 359.05L334.04 361.61L335.24 360.15C336.4 358.74 337.61 357.21 338.84 355.62C340.519 356.542 342.252 357.364 344.03 358.08C343.64 360.92 344.91 366.33 345.08 367.02C343.36 367.56 341.68 368.07 340.08 368.52C338.99 368.84 337.94 369.13 336.92 369.4L338.53 371.4L340.73 370.73C342.47 370.19 344.33 369.58 346.23 368.93C346.57 369.58 349.37 374.85 351.58 376.56C353.58 378.11 356.58 379.56 359.16 378.83C359.774 378.685 360.35 378.412 360.852 378.029C361.354 377.647 361.769 377.163 362.072 376.61C362.375 376.056 362.558 375.445 362.609 374.816C362.66 374.188 362.579 373.555 362.37 372.96C361.01 369.41 354.37 367.77 350.97 367.96C350.77 367.96 348.62 368.33 347.26 368.58C348.04 368.31 348.79 368.06 349.59 367.77C351.16 367.22 352.72 366.62 354.39 365.98L356.81 364.98C357.62 364.66 358.44 364.22 359.27 363.83C361.17 362.9 363.05 361.83 364.91 360.78C365.4 362.16 367.21 367.02 368.96 368.87C370.71 370.72 373.44 372.56 376.1 372.26C376.729 372.21 377.34 372.029 377.894 371.728C378.449 371.426 378.934 371.012 379.317 370.511C379.701 370.011 379.975 369.435 380.122 368.821C380.269 368.208 380.285 367.57 380.17 366.95C379.36 363.24 373.04 360.61 369.66 360.28C369.45 360.28 367 360.28 365.66 360.33C366.77 359.67 367.89 359.02 369 358.33C372.21 356.33 375.39 354.14 378.57 352C379.57 351.34 380.52 350.7 381.5 350C381.67 350.49 383.68 356.32 385.65 358.39C387.39 360.23 390.13 362.08 392.79 361.78C393.419 361.73 394.03 361.549 394.584 361.248C395.139 360.946 395.624 360.532 396.007 360.031C396.391 359.531 396.665 358.955 396.812 358.341C396.959 357.728 396.975 357.09 396.86 356.47C396.05 352.76 389.73 350.13 386.35 349.8C386.1 349.8 382.57 349.8 381.68 349.88C383.83 348.46 385.99 347.06 388.17 345.77C391.108 344.007 394.158 342.437 397.3 341.07C397.38 341.3 399.46 347.4 401.47 349.51C403.22 351.35 405.95 353.21 408.61 352.91C409.24 352.86 409.852 352.679 410.407 352.377C410.962 352.075 411.448 351.66 411.832 351.158C412.216 350.656 412.49 350.079 412.636 349.464C412.782 348.849 412.797 348.211 412.68 347.59C411.88 343.88 405.55 341.25 402.17 340.92C401.91 340.92 398.12 340.92 397.43 341.01C397.61 340.94 397.79 340.84 397.98 340.76C401.165 339.464 404.462 338.46 407.83 337.76C409.68 337.35 411.48 337.06 413.23 336.82C413.5 337.99 414.8 343.35 416.4 345.45C418 347.55 420.4 349.62 423.13 349.61C423.76 349.628 424.386 349.514 424.969 349.275C425.552 349.036 426.078 348.678 426.514 348.222C426.949 347.767 427.284 347.225 427.497 346.632C427.71 346.039 427.796 345.408 427.75 344.78C427.36 341 421.36 337.69 418.04 336.99C417.86 336.99 415.98 336.77 414.61 336.65C415.41 336.56 416.22 336.44 416.98 336.36C419.84 336.07 422.47 335.97 424.81 335.91C426.14 335.91 427.34 335.91 428.46 335.91C429.33 336.91 432.87 340.96 435.22 342.07C437.57 343.18 440.73 343.9 443.11 342.66C443.679 342.387 444.183 341.997 444.592 341.516C445 341.035 445.302 340.473 445.478 339.867C445.655 339.262 445.701 338.626 445.616 338C445.53 337.375 445.313 336.776 444.98 336.24C442.9 333.07 436.05 332.9 432.78 333.81C432.49 333.88 428.22 335.62 428.26 335.67L428.31 335.73C427.23 335.73 426.07 335.67 424.81 335.67C422.47 335.67 419.81 335.72 416.95 335.96C413.849 336.181 410.764 336.582 407.71 337.16C404.284 337.794 400.922 338.727 397.66 339.95L397.55 340C398.42 339.31 400.79 337.29 400.96 337.12C403.27 334.64 406.3 328.49 404.45 325.12C404.129 324.576 403.697 324.106 403.182 323.741C402.667 323.376 402.081 323.123 401.462 322.999C400.843 322.876 400.205 322.884 399.59 323.024C398.974 323.163 398.395 323.431 397.89 323.81C395.69 325.34 394.89 328.54 394.76 331.07C394.65 333.93 396.99 339.66 397.18 340.07C393.892 341.399 390.698 342.949 387.62 344.71C385.83 345.71 384.05 346.8 382.27 347.9C383.01 347.28 383.66 346.71 383.74 346.62C386.06 344.15 389.08 338 387.24 334.68C386.919 334.136 386.487 333.666 385.972 333.301C385.457 332.936 384.871 332.683 384.252 332.559C383.633 332.436 382.995 332.444 382.38 332.584C381.764 332.723 381.185 332.991 380.68 333.37C378.48 334.9 377.68 338.1 377.55 340.63C377.42 343.16 379.34 348.13 379.86 349.43L377.86 350.71C374.63 352.78 371.42 354.87 368.2 356.82C367.07 357.5 365.93 358.14 364.79 358.82C365.44 358.26 365.98 357.82 366.06 357.71C368.38 355.23 371.4 349.08 369.56 345.76C369.237 345.217 368.803 344.748 368.288 344.384C367.772 344.019 367.185 343.767 366.566 343.644C365.947 343.52 365.308 343.528 364.692 343.667C364.076 343.806 363.496 344.073 362.99 344.45C360.79 345.98 359.99 349.18 359.86 351.71C359.73 354.24 361.48 358.71 362.09 360.28C360.9 360.9 359.71 361.52 358.53 362.07C357.72 362.42 356.96 362.82 356.13 363.13L353.69 364.13C352.11 364.69 350.5 365.27 348.95 365.78C347.87 366.14 346.84 366.46 345.81 366.78C346.94 366.11 349.14 364.78 349.31 364.61C351.587 362.68 353.329 360.197 354.37 357.4C354.634 357.197 354.879 356.969 355.1 356.72C355.532 356.261 355.863 355.716 356.071 355.121C356.278 354.526 356.359 353.893 356.306 353.265C356.253 352.637 356.068 352.027 355.764 351.474C355.46 350.922 355.043 350.44 354.54 350.06C351.45 347.85 345 350.15 342.28 352.17C342.11 352.29 340.52 353.78 339.52 354.73C340.02 354.08 340.52 353.46 341.02 352.78C342.02 351.45 343.02 350.09 344.02 348.64L345.47 346.45C345.97 345.74 346.41 344.91 346.89 344.14C347.96 342.31 348.95 340.41 349.89 338.48C351.06 339.36 355.25 342.42 357.73 342.99C360.21 343.56 363.5 343.6 365.56 341.88C366.057 341.492 366.467 341.004 366.764 340.447C367.06 339.89 367.235 339.277 367.279 338.648C367.322 338.018 367.232 337.387 367.016 336.795C366.799 336.202 366.459 335.662 366.02 335.21C363.3 332.55 356.57 333.85 353.57 335.44C353.39 335.54 351.36 336.92 350.26 337.69C350.83 336.53 351.41 335.36 351.94 334.16C353.49 330.7 354.94 327.16 356.42 323.6C356.87 322.52 357.33 321.44 357.79 320.36C358.21 320.68 363.1 324.43 365.88 325.07C368.35 325.64 371.65 325.68 373.71 323.96C374.207 323.571 374.618 323.082 374.914 322.524C375.21 321.966 375.386 321.353 375.429 320.722C375.473 320.092 375.383 319.46 375.166 318.867C374.949 318.274 374.61 317.733 374.17 317.28C371.45 314.63 364.73 315.93 361.73 317.51C361.5 317.63 358.59 319.62 357.88 320.16C358.88 317.79 359.88 315.43 361.02 313.16C362.494 310.073 364.164 307.084 366.02 304.21C366.21 304.36 371.31 308.29 374.15 308.95C376.62 309.52 379.93 309.56 381.98 307.84C382.477 307.451 382.888 306.962 383.184 306.404C383.48 305.846 383.656 305.233 383.699 304.602C383.743 303.972 383.653 303.34 383.436 302.747C383.219 302.154 382.88 301.613 382.44 301.16C379.73 298.51 373 299.81 370 301.39C369.76 301.52 366.63 303.66 366.1 304.09C366.2 303.92 366.3 303.74 366.41 303.57C368.366 300.745 370.568 298.098 372.99 295.66C374.31 294.29 375.65 293.06 376.99 291.9C377.86 292.73 381.9 296.48 384.39 297.35C386.88 298.22 390.06 298.59 392.3 297.11C392.836 296.777 393.296 296.335 393.651 295.813C394.006 295.291 394.247 294.701 394.36 294.079C394.472 293.458 394.452 292.82 394.302 292.207C394.153 291.594 393.876 291.019 393.49 290.52C391.08 287.59 384.25 288.14 381.09 289.39C380.92 289.45 379.25 290.39 378.09 291C378.69 290.48 379.31 289.93 379.9 289.45C382.12 287.63 384.27 286.09 386.18 284.75C387.27 283.99 388.28 283.33 389.18 282.75C390.46 283.11 395.65 284.53 398.18 284.16C400.71 283.79 403.78 282.65 405.08 280.3C405.402 279.757 405.606 279.152 405.68 278.525C405.753 277.897 405.693 277.262 405.505 276.659C405.316 276.056 405.003 275.5 404.585 275.026C404.167 274.553 403.654 274.172 403.08 273.91C399.58 272.42 393.78 276.05 391.55 278.61C391.36 278.83 388.75 282.61 388.81 282.61H388.89C387.97 283.18 386.99 283.8 385.89 284.5C383.95 285.8 381.76 287.29 379.5 289.07C377.052 290.968 374.715 293.005 372.5 295.17C369.995 297.586 367.709 300.22 365.67 303.04L365.6 303.15C365.94 302.09 366.81 299.15 366.85 298.86C367.41 295.51 366.54 288.72 363.17 286.97C362.603 286.692 361.984 286.538 361.354 286.516C360.723 286.495 360.095 286.606 359.511 286.844C358.926 287.082 358.399 287.441 357.963 287.897C357.526 288.353 357.192 288.896 356.98 289.49C355.98 291.98 357.06 295.11 358.37 297.28C359.85 299.72 364.97 303.21 365.37 303.49C363.363 306.411 361.555 309.465 359.96 312.63C359.02 314.47 358.13 316.35 357.26 318.24C357.53 317.32 357.76 316.49 357.78 316.37C358.35 313.02 357.48 306.23 354.11 304.48C353.542 304.202 352.923 304.048 352.291 304.026C351.66 304.004 351.031 304.116 350.446 304.354C349.861 304.592 349.333 304.95 348.896 305.406C348.459 305.862 348.123 306.405 347.91 307C346.91 309.49 347.99 312.62 349.3 314.79C350.61 316.96 354.94 320.05 356.09 320.85C355.76 321.58 355.43 322.3 355.09 323.04C353.54 326.55 352 330.04 350.4 333.46C349.83 334.66 349.23 335.82 348.63 336.98C348.87 336.16 349.06 335.46 349.08 335.35C349.65 332.01 348.78 325.21 345.4 323.46C344.832 323.186 344.213 323.034 343.583 323.015C342.953 322.995 342.325 323.109 341.742 323.347C341.158 323.586 340.631 323.944 340.195 324.4C339.759 324.855 339.423 325.397 339.21 325.99C338.21 328.48 339.29 331.6 340.6 333.77C341.91 335.94 345.82 338.77 347.18 339.69C346.53 340.86 345.89 342.03 345.18 343.14C344.69 343.88 344.28 344.63 343.76 345.35L342.25 347.51C341.25 348.84 340.25 350.22 339.25 351.51C338.55 352.4 337.87 353.24 337.19 354.08C337.76 352.9 338.85 350.55 338.91 350.34C339.98 347.13 340.15 340.28 337.09 338.03C336.569 337.673 335.98 337.429 335.36 337.315C334.739 337.2 334.102 337.216 333.488 337.364C332.875 337.511 332.299 337.785 331.798 338.168C331.297 338.552 330.882 339.036 330.58 339.59C329.22 341.9 329.81 345.16 330.78 347.5C331.84 350.07 336.18 354.16 336.72 354.66C335.71 356.11 334.59 357.46 333.51 358.71Z" fill="black"/>
<path d="M413.69 336.24C413.69 336.31 417.88 334.36 418.13 334.24C421.02 332.47 425.56 327.33 424.66 323.64C424.495 323.029 424.202 322.459 423.801 321.968C423.4 321.478 422.9 321.078 422.333 320.794C421.766 320.511 421.146 320.351 420.513 320.324C419.88 320.298 419.248 320.405 418.66 320.64C416.13 321.53 414.48 324.4 413.72 326.81C412.84 329.62 413.69 336.24 413.69 336.24Z" fill="black"/>
</g>
<path d="M327.3 301.02L261.05 273.25L316.94 138.97L383.19 166.74L327.3 301.02Z" fill="#D1D1D1" stroke="#263238" stroke-linecap="round" stroke-linejoin="round"/>
<path d="M369.89 180.45C368.753 179.979 367.729 179.271 366.889 178.372C366.048 177.474 365.409 176.405 365.015 175.24C364.621 174.074 364.481 172.837 364.604 171.613C364.728 170.388 365.111 169.204 365.73 168.14L327.73 152.2C327.632 152.54 327.515 152.874 327.38 153.2C326.942 154.256 326.3 155.216 325.49 156.022C324.68 156.829 323.718 157.468 322.66 157.901C321.602 158.334 320.469 158.553 319.326 158.546C318.183 158.54 317.052 158.306 316 157.86C315.83 157.79 315.67 157.7 315.51 157.62L273.35 259.16C273.52 259.22 273.69 259.27 273.85 259.34C274.992 259.804 276.022 260.509 276.867 261.407C277.712 262.305 278.354 263.375 278.748 264.543C279.142 265.712 279.279 266.952 279.15 268.179C279.021 269.405 278.628 270.589 278 271.65L316.05 287.59C316.141 287.25 316.255 286.916 316.39 286.59C316.83 285.54 317.473 284.587 318.282 283.786C319.091 282.985 320.05 282.35 321.104 281.919C322.158 281.489 323.286 281.269 324.425 281.275C325.563 281.28 326.69 281.51 327.74 281.95C328.07 282.09 328.39 282.26 328.74 282.43L370.94 180.81C370.581 180.717 370.23 180.597 369.89 180.45ZM316 233.19C313.41 232.104 311.201 230.275 309.651 227.933C308.101 225.591 307.28 222.843 307.292 220.034C307.304 217.226 308.148 214.485 309.718 212.156C311.288 209.828 313.513 208.018 316.112 206.954C318.711 205.89 321.567 205.62 324.319 206.18C327.071 206.739 329.595 208.101 331.573 210.095C333.551 212.088 334.893 214.624 335.43 217.38C335.967 220.136 335.674 222.99 334.59 225.58C333.87 227.302 332.818 228.864 331.494 230.179C330.17 231.493 328.6 232.534 326.873 233.241C325.146 233.947 323.297 234.307 321.431 234.298C319.565 234.29 317.72 233.913 316 233.19Z" fill="white" stroke="#263238" stroke-linecap="round" stroke-linejoin="round"/>
<path d="M326.43 301.36L263.57 266.59L333.67 139.14L396.53 173.92L326.43 301.36Z" fill="#D1D1D1" stroke="#263238" stroke-linecap="round" stroke-linejoin="round"/>
<path d="M381.82 186.1C380.823 185.55 379.944 184.808 379.234 183.918C378.524 183.028 377.997 182.007 377.682 180.913C377.367 179.819 377.271 178.673 377.399 177.542C377.528 176.411 377.878 175.316 378.43 174.32C378.611 174.01 378.808 173.71 379.02 173.42L342.92 153.42C342.789 153.762 342.639 154.095 342.47 154.42C341.355 156.429 339.488 157.914 337.279 158.548C335.07 159.182 332.7 158.913 330.69 157.8C330.531 157.716 330.377 157.623 330.23 157.52L277.33 253.9C277.493 253.968 277.654 254.045 277.81 254.13C279.821 255.243 281.308 257.109 281.943 259.318C282.579 261.527 282.312 263.898 281.2 265.91C281.023 266.222 280.826 266.523 280.61 266.81L316.7 286.81C316.834 286.468 316.987 286.134 317.16 285.81C317.71 284.813 318.451 283.935 319.341 283.225C320.231 282.515 321.252 281.987 322.347 281.672C323.441 281.357 324.586 281.261 325.718 281.39C326.849 281.518 327.944 281.868 328.94 282.42C329.251 282.599 329.551 282.796 329.84 283.01L382.84 186.55C382.489 186.425 382.148 186.274 381.82 186.1ZM322.56 232.71C320.1 231.349 318.099 229.29 316.811 226.792C315.522 224.294 315.002 221.47 315.319 218.677C315.635 215.885 316.772 213.248 318.587 211.102C320.401 208.955 322.812 207.395 325.513 206.619C328.215 205.842 331.085 205.884 333.763 206.74C336.44 207.595 338.804 209.225 340.555 211.424C342.306 213.623 343.365 216.292 343.599 219.093C343.833 221.894 343.231 224.701 341.87 227.16C340.044 230.456 336.985 232.892 333.364 233.933C329.743 234.974 325.856 234.534 322.56 232.71Z" fill="white" stroke="#263238" stroke-linecap="round" stroke-linejoin="round"/>
<path d="M325.27 301.66L267.83 258.52L354.89 142L412.33 185.14L325.27 301.66Z" fill="#D1D1D1" stroke="#263238" stroke-linecap="round" stroke-linejoin="round"/>
<path d="M396.08 195.17C395.164 194.487 394.392 193.63 393.808 192.647C393.225 191.665 392.842 190.577 392.681 189.445C392.52 188.314 392.585 187.162 392.871 186.056C393.158 184.95 393.66 183.911 394.35 183C394.568 182.714 394.805 182.444 395.06 182.19L362.06 157.41C361.88 157.724 361.683 158.028 361.47 158.32C360.088 160.155 358.035 161.367 355.761 161.689C353.486 162.012 351.177 161.419 349.34 160.04C349.19 159.93 349.06 159.81 348.92 159.7L283.19 247.82C283.34 247.92 283.49 248.01 283.63 248.12C285.467 249.502 286.681 251.556 287.006 253.832C287.33 256.108 286.738 258.42 285.36 260.26C285.142 260.546 284.905 260.817 284.65 261.07L317.65 285.84C317.821 285.526 318.015 285.225 318.23 284.94C318.914 284.03 319.771 283.264 320.751 282.685C321.732 282.106 322.816 281.726 323.944 281.566C325.071 281.406 326.219 281.47 327.321 281.754C328.424 282.038 329.46 282.536 330.37 283.22C330.656 283.434 330.927 283.668 331.18 283.92L397 195.76C396.681 195.583 396.374 195.386 396.08 195.17ZM330.94 233.17C328.693 231.482 326.997 229.166 326.067 226.514C325.137 223.862 325.013 220.994 325.713 218.273C326.412 215.551 327.903 213.097 329.997 211.223C332.09 209.348 334.693 208.137 337.475 207.741C340.257 207.345 343.094 207.783 345.627 209C348.161 210.217 350.276 212.157 351.707 214.576C353.137 216.995 353.818 219.783 353.664 222.589C353.51 225.395 352.527 228.093 350.84 230.34C349.717 231.831 348.312 233.086 346.704 234.033C345.096 234.98 343.317 235.601 341.468 235.86C339.62 236.119 337.739 236.012 335.932 235.543C334.126 235.075 332.429 234.255 330.94 233.13V233.17Z" fill="white" stroke="#263238" stroke-linecap="round" stroke-linejoin="round"/>
<path d="M324.12 301.79L272.96 251.35L374.82 147.52L425.98 197.96L324.12 301.79Z" fill="#D1D1D1" stroke="#263238" stroke-linecap="round" stroke-linejoin="round"/>
<path d="M408.53 205.73C406.892 204.116 405.963 201.918 405.946 199.618C405.929 197.319 406.826 195.108 408.44 193.47C408.695 193.217 408.966 192.98 409.25 192.76L379.88 163.76C379.66 164.041 379.426 164.312 379.18 164.57C377.566 166.207 375.367 167.137 373.068 167.154C370.769 167.171 368.557 166.273 366.92 164.66C366.792 164.534 366.671 164.4 366.56 164.26L289.63 242.81C289.76 242.93 289.9 243.04 290.03 243.17C291.667 244.784 292.597 246.982 292.613 249.281C292.63 251.58 291.733 253.792 290.12 255.43C289.86 255.68 289.59 255.92 289.31 256.14L318.68 285.14C318.897 284.85 319.134 284.576 319.39 284.32C320.188 283.509 321.138 282.864 322.186 282.421C323.234 281.978 324.358 281.745 325.496 281.737C326.634 281.728 327.762 281.944 328.816 282.372C329.87 282.8 330.829 283.431 331.64 284.23C331.892 284.485 332.129 284.756 332.35 285.04L409.35 206.43C409.063 206.213 408.789 205.979 408.53 205.73ZM338.91 234.63C336.911 232.657 335.542 230.137 334.976 227.386C334.41 224.636 334.672 221.779 335.729 219.178C336.786 216.577 338.591 214.347 340.915 212.771C343.239 211.195 345.978 210.343 348.786 210.324C351.594 210.304 354.344 211.118 356.69 212.661C359.036 214.204 360.871 216.409 361.964 218.995C363.058 221.582 363.359 224.434 362.832 227.192C362.304 229.95 360.97 232.49 359 234.49C357.69 235.819 356.131 236.877 354.413 237.603C352.694 238.33 350.849 238.71 348.984 238.723C347.118 238.736 345.268 238.381 343.539 237.679C341.811 236.977 340.237 235.94 338.91 234.63Z" fill="white" stroke="#263238" stroke-linecap="round" stroke-linejoin="round"/>
<path d="M259.07 290.54L167.07 349L69.2397 194.48L161.24 136.02C162.849 134.998 164.797 134.657 166.657 135.071C168.517 135.486 170.137 136.622 171.16 138.23L261.32 280.62C261.824 281.419 262.165 282.309 262.325 283.24C262.485 284.171 262.459 285.125 262.25 286.046C262.041 286.967 261.653 287.838 261.107 288.609C260.561 289.38 259.869 290.036 259.07 290.54Z" fill="#123022" fill-opacity="0.45" stroke="#263238" stroke-linecap="round" stroke-linejoin="round"/>
<path d="M256.48 290.639L164.48 349.099L66.6597 194.579L158.66 136.119C160.268 135.098 162.217 134.757 164.077 135.171C165.937 135.585 167.557 136.721 168.58 138.329L258.73 280.719C259.234 281.518 259.575 282.409 259.735 283.34C259.895 284.271 259.869 285.224 259.66 286.145C259.451 287.067 259.063 287.938 258.517 288.709C257.971 289.48 257.279 290.136 256.48 290.639Z" fill="white" stroke="#263238" stroke-linecap="round" stroke-linejoin="round"/>
<path d="M253.48 292.68L161.48 351.14L63.6499 196.62L155.65 138.16C157.26 137.138 159.21 136.797 161.072 137.211C162.934 137.625 164.555 138.761 165.58 140.37L255.73 282.76C256.234 283.559 256.575 284.449 256.735 285.38C256.895 286.312 256.869 287.265 256.66 288.186C256.452 289.107 256.063 289.978 255.517 290.75C254.972 291.521 254.279 292.177 253.48 292.68Z" fill="#123022" fill-opacity="0.45" stroke="#263238" stroke-linecap="round" stroke-linejoin="round"/>
<path d="M112.81 215.829L105.74 204.709L108.5 202.999C109.04 202.622 109.672 202.397 110.33 202.349C110.885 202.335 111.429 202.512 111.87 202.849C112.406 203.251 112.858 203.754 113.2 204.329C113.551 204.844 113.777 205.433 113.86 206.049C113.935 206.592 113.837 207.145 113.58 207.629C113.276 208.171 112.834 208.623 112.3 208.939L111.07 209.709L114.36 214.889L112.81 215.829ZM110.37 208.549L111.08 208.099C111.46 207.889 111.798 207.611 112.08 207.279C112.176 207.156 112.245 207.014 112.283 206.863C112.321 206.711 112.326 206.553 112.3 206.399C112.208 205.978 112.031 205.58 111.78 205.229C111.534 204.81 111.234 204.423 110.89 204.079C110.778 203.968 110.643 203.885 110.493 203.837C110.344 203.788 110.185 203.775 110.03 203.799C109.577 203.907 109.149 204.1 108.77 204.369L108.04 204.829L110.37 208.549Z" fill="white"/>
<path d="M118.28 212.349L113.57 199.729L115.07 198.779L124.51 208.389L123.04 209.319L120.75 206.849L118.49 208.289L119.73 211.429L118.28 212.349ZM118 206.999L119.85 205.829L115.73 201.409L118 206.999Z" fill="white"/>
<path d="M128.34 206.13C127.792 206.509 127.146 206.721 126.48 206.74C125.874 206.732 125.283 206.548 124.78 206.21C124.21 205.823 123.715 205.335 123.32 204.77L124.46 203.53C124.735 203.888 125.039 204.223 125.37 204.53C125.653 204.805 125.995 205.01 126.37 205.13C126.566 205.172 126.769 205.172 126.965 205.13C127.162 205.089 127.347 205.007 127.51 204.89C127.686 204.795 127.839 204.664 127.959 204.506C128.08 204.347 128.166 204.164 128.21 203.97C128.257 203.558 128.146 203.144 127.9 202.81C127.647 202.366 127.258 202.016 126.79 201.81C126.317 201.64 125.828 201.516 125.33 201.44L122.42 200.98C121.894 200.906 121.39 200.722 120.94 200.44C120.473 200.113 120.081 199.691 119.79 199.2C119.549 198.866 119.379 198.486 119.291 198.083C119.204 197.681 119.2 197.264 119.28 196.86C119.506 196.06 120.037 195.381 120.76 194.97C121.15 194.715 121.579 194.525 122.03 194.41C122.414 194.315 122.816 194.315 123.2 194.41C123.603 194.523 123.98 194.713 124.31 194.97C124.712 195.294 125.074 195.663 125.39 196.07L124.3 197.27C124.059 196.942 123.787 196.638 123.49 196.36C123.241 196.122 122.928 195.963 122.59 195.9C122.209 195.875 121.831 195.975 121.511 196.184C121.192 196.394 120.949 196.701 120.82 197.06C120.782 197.254 120.785 197.455 120.83 197.648C120.875 197.841 120.96 198.022 121.08 198.18C121.252 198.473 121.492 198.72 121.78 198.9C122.089 199.071 122.429 199.18 122.78 199.22L125.71 199.68C126.404 199.777 127.078 199.979 127.71 200.28C128.386 200.614 128.951 201.134 129.34 201.78C129.661 202.271 129.854 202.835 129.9 203.42C129.924 203.947 129.799 204.47 129.54 204.93C129.244 205.422 128.832 205.834 128.34 206.13Z" fill="white"/>
<path d="M134.83 202C134.282 202.379 133.636 202.591 132.97 202.61C132.367 202.603 131.779 202.419 131.28 202.08C130.706 201.698 130.21 201.209 129.82 200.64L131 199.4C131.272 199.761 131.577 200.095 131.91 200.4C132.192 200.675 132.534 200.881 132.91 201C133.106 201.042 133.309 201.043 133.506 201.001C133.702 200.96 133.888 200.878 134.05 200.76C134.227 200.669 134.381 200.54 134.502 200.383C134.623 200.226 134.708 200.044 134.75 199.85C134.803 199.436 134.695 199.018 134.45 198.68C134.191 198.238 133.799 197.888 133.33 197.68C132.86 197.51 132.374 197.386 131.88 197.31L128.96 196.85C128.434 196.776 127.93 196.592 127.48 196.31C127.013 195.983 126.621 195.561 126.33 195.07C126.089 194.736 125.919 194.356 125.832 193.953C125.744 193.551 125.74 193.134 125.82 192.73C126.05 191.932 126.586 191.256 127.31 190.85C127.697 190.594 128.122 190.401 128.57 190.28C128.957 190.18 129.363 190.18 129.75 190.28C130.153 190.389 130.53 190.576 130.86 190.83C131.261 191.151 131.62 191.521 131.93 191.93L130.84 193.13C130.599 192.802 130.328 192.498 130.03 192.22C129.784 191.979 129.47 191.819 129.13 191.76C128.75 191.74 128.374 191.842 128.055 192.05C127.737 192.259 127.494 192.564 127.36 192.92C127.324 193.115 127.329 193.314 127.374 193.507C127.418 193.7 127.502 193.881 127.62 194.04C127.795 194.334 128.034 194.583 128.32 194.77C128.634 194.93 128.972 195.038 129.32 195.09L132.25 195.54C132.922 195.646 133.575 195.848 134.19 196.14C134.864 196.477 135.429 196.997 135.82 197.64C136.146 198.129 136.339 198.694 136.38 199.28C136.404 199.807 136.279 200.33 136.02 200.79C135.731 201.286 135.322 201.702 134.83 202Z" fill="white"/>
<path d="M138.62 199.42L131.55 188.3L134.31 186.55C134.847 186.166 135.481 185.937 136.14 185.89C136.695 185.88 137.236 186.056 137.68 186.39C138.216 186.795 138.668 187.301 139.01 187.88C139.365 188.392 139.591 188.982 139.67 189.6C139.745 190.14 139.647 190.689 139.39 191.17C139.089 191.714 138.646 192.166 138.11 192.48L136.88 193.26L140.17 198.43L138.62 199.42ZM136.18 192.15L136.89 191.69C137.272 191.483 137.611 191.204 137.89 190.87C137.985 190.746 138.052 190.604 138.089 190.452C138.125 190.301 138.129 190.143 138.1 189.99C138.008 189.57 137.835 189.173 137.59 188.82C137.347 188.401 137.047 188.018 136.7 187.68C136.589 187.569 136.453 187.486 136.303 187.437C136.154 187.389 135.995 187.376 135.84 187.4C135.386 187.498 134.957 187.689 134.58 187.96L133.85 188.43L136.18 192.15Z" fill="white"/>
<path d="M148.13 193.55C147.522 193.977 146.803 194.22 146.06 194.25C145.418 194.242 144.797 194.016 144.3 193.61C143.703 193.118 143.193 192.53 142.79 191.87L140.11 187.66C139.686 187.027 139.381 186.322 139.21 185.58C139.064 184.973 139.131 184.334 139.4 183.77C139.75 183.117 140.276 182.576 140.92 182.21C141.525 181.782 142.24 181.536 142.98 181.5C143.604 181.502 144.21 181.713 144.7 182.1C145.295 182.569 145.799 183.141 146.19 183.79L148.88 188.02C149.299 188.657 149.606 189.36 149.79 190.1C149.938 190.724 149.882 191.38 149.63 191.97C149.296 192.633 148.775 193.182 148.13 193.55ZM147.36 192.33C147.703 192.139 147.974 191.841 148.13 191.48C148.241 191.156 148.241 190.804 148.13 190.48C147.985 190.077 147.79 189.694 147.55 189.34L144.46 184.46C144.234 184.099 143.969 183.763 143.67 183.46C143.44 183.225 143.136 183.077 142.81 183.04C142.417 183.039 142.035 183.166 141.72 183.4C141.378 183.59 141.103 183.879 140.93 184.23C140.808 184.552 140.808 184.908 140.93 185.23C141.069 185.628 141.257 186.008 141.49 186.36L144.59 191.23C144.814 191.595 145.083 191.931 145.39 192.23C145.623 192.475 145.934 192.63 146.27 192.67C146.66 192.677 147.043 192.557 147.36 192.33Z" fill="white"/>
<path d="M152.61 190.529L145.54 179.409L147.78 177.979C148.386 177.566 149.065 177.271 149.78 177.109C150.353 176.995 150.948 177.087 151.46 177.369C152.054 177.739 152.545 178.251 152.89 178.859C153.149 179.25 153.355 179.674 153.5 180.119C153.634 180.494 153.679 180.894 153.63 181.289C153.57 181.658 153.411 182.003 153.17 182.289L158.29 186.859L156.8 187.809L152.03 183.519L150.82 184.279L154.13 189.499L152.61 190.529ZM150.14 183.209L150.73 182.839C151.114 182.622 151.454 182.333 151.73 181.989C151.927 181.718 152.013 181.382 151.97 181.049C151.892 180.604 151.718 180.181 151.46 179.809C151.185 179.289 150.745 178.874 150.21 178.629C149.911 178.581 149.605 178.598 149.314 178.679C149.022 178.76 148.751 178.904 148.52 179.099L147.83 179.529L150.14 183.209Z" fill="white"/>
<path d="M161 185.219L154.66 175.219L152.78 176.419L152 175.299L157.26 171.949L157.99 173.109L156.16 174.269L162.5 184.269L161 185.219Z" fill="white"/>
<path d="M200.824 254.41C205.196 235.666 193.545 216.927 174.801 212.554C156.057 208.182 137.318 219.833 132.946 238.577C128.574 257.321 140.224 276.06 158.968 280.432C177.712 284.804 196.451 273.154 200.824 254.41Z" stroke="white" stroke-miterlimit="10"/>
<path d="M185.569 275.912C192.532 271.486 189.808 254.73 179.483 238.486C169.159 222.243 155.144 212.662 148.18 217.088C141.217 221.515 143.941 238.271 154.266 254.514C164.59 270.758 178.605 280.338 185.569 275.912Z" stroke="white" stroke-miterlimit="10"/>
<path d="M135.72 231.33L166.57 211.72" stroke="white" stroke-miterlimit="10"/>
<path d="M132.25 251.21L186.04 217.01" stroke="white" stroke-miterlimit="10"/>
<path d="M147.89 275.83L201.69 241.63" stroke="white" stroke-miterlimit="10"/>
<path d="M137.4 265.22L196.55 227.63" stroke="white" stroke-miterlimit="10"/>
<path d="M167.65 281.559L198.5 261.949" stroke="white" stroke-miterlimit="10"/>
<path d="M329.291 438.215C372.905 394.601 372.905 323.889 329.291 280.275C285.677 236.662 214.965 236.662 171.352 280.275C127.738 323.889 127.738 394.601 171.352 438.215C214.965 481.829 285.677 481.829 329.291 438.215Z" fill="#92E3A9" stroke="#263238" stroke-linecap="round" stroke-linejoin="round"/>
<path d="M227.89 462.57C233.877 463.873 239.967 464.65 246.09 464.89" stroke="#263238" stroke-linecap="round" stroke-linejoin="round"/>
<path d="M214.2 458.6C217.234 459.7 220.314 460.666 223.44 461.5" stroke="#263238" stroke-linecap="round" stroke-linejoin="round"/>
<path d="M148.63 330.32C141.524 355.351 143.894 382.122 155.286 405.515C166.678 428.907 186.293 447.28 210.38 457.12" stroke="#263238" stroke-linecap="round" stroke-linejoin="round"/>
<path d="M162.84 299.91C159.021 305.54 155.752 311.524 153.08 317.78" stroke="#263238" stroke-linecap="round" stroke-linejoin="round"/>
<path d="M235.19 309.64L246.57 312L250.45 316.03L255.51 316.81L257.12 321.61L255.94 324.86L252.49 326.44L244.04 325.06L243.81 324.02L247.81 321.23L245.05 316.14L237.49 315.11L233.46 311.66L235.19 309.64Z" fill="white"/>
<path d="M326.94 414.7L317.94 413.18L307 411.8L299 413.58L291.15 413.69L283.28 417.34L278.68 418.64L275.83 419.27L271.09 423.58L266.37 426.8L258.37 423.95L258.57 416.3L253.77 415.47L248.6 416.62L247.3 414.46L246.79 409.69L244.4 407.51L240.89 408.83L240.43 411.65L236.09 412.88L231.17 409.09L228.24 403.22L230.52 395.11L238.13 393.96L240.61 395.32L243.71 394.63L247.08 391.44L250.67 391.72L257.11 398.72L258.86 398.06L257.02 392.22L254.78 389.46L254.21 384.46L262.86 378.2L262.03 368.34L265.42 364.05L267.42 357.35L269.9 356.26L274.98 351.06L274.78 348.93L270.7 350.11L269.47 348.21L266.62 348.84L262.45 350.84L263.77 347.01L272.25 342.41L273.81 339.63L278.69 344.51L281.54 346.33L284.93 344.49L282.63 341.49L276.34 338.81L268.58 333.21L261.13 330.21L254.69 330.56L251 328.13L246.6 328L246.31 329.15L247.46 336.77L249.07 339.12L248.58 347.92L242.48 344.92V341.12L236.48 339.74L233.48 337.41L233.33 330.66L239.63 323.56L238.77 317.23L235.98 318.12L233.65 316.2L232 312.52L230.13 312.66L230 317L227.27 318.15L224 309.41L221.65 308.58L217.65 307.83L213.97 310.83L220.24 314.6L222.24 318.77L211.37 313.85L203.37 308.3L201.3 301.43L194.11 300.85L189.69 305.36C188.602 306.399 187.461 307.38 186.27 308.3C184.331 309.246 182.325 310.052 180.27 310.71L180.21 315.34L174.31 316.92L175.46 319.65L185.38 319.08L191.5 323.42L193.5 332.48L192.43 341.13L194.84 349.55L190.41 363.84L193.06 383.07L197.8 393.42L203 400.96L207 400.61L204.78 396.76L202.03 394.11L199.47 388.71L201.68 387.71L207.37 396.22L211.8 403.93L213.29 410.66L219.53 415.52L229.82 420L244.08 420.63L249.08 423.63L253.08 427.08L258.37 428.89L264.37 429.18L270 427.65C270 427.65 270.32 430.3 270.6 431.59C270.88 432.88 268.24 438.09 268.24 438.09L266.55 443.9L269.88 449.13L276.09 450.19L285.95 456.69L289.95 457.44L290.81 461.32L291.66 463.03C311.07 455.31 327.914 442.279 340.26 425.43L339.98 423.52L344.15 409.29L340.27 407.71L326.94 414.7Z" fill="white"/>
<path d="M331.15 306.52L327.21 302.24L322.32 297.35L319.57 289.82L324.4 289.56L324.08 286.92L320.66 287.41L323.22 285.48L325.92 282.98L325.35 280.39L321.35 276.94L319.45 271.52C300.326 256.46 276.808 248.057 252.47 247.59C228.133 247.122 204.308 254.616 184.62 268.93L191.52 271.83L188.94 277.3L184.25 279.42L185.25 286.52L183.36 287.76L181.36 291.18L182.65 295.78L187.17 295.32L186.33 300.12L190.73 299.12L196.11 287.88L195.97 283.56L203.1 281.44L204.22 277.93L211.55 275.49L211.35 270.92L216.72 269.45C216.72 269.45 220.15 266.52 220.92 266.35C222.489 266.336 224.057 266.44 225.61 266.66L230.18 268.91L235.61 267.7L239.61 263.82L245.67 263.02C246.65 263.399 247.706 263.536 248.75 263.42C250.04 263.13 253.52 260.42 253.52 260.42L262.06 263.42L265.68 265.06L266.54 268.94L270.54 268.59L271.32 265.98L275.03 266.78L275.23 268.91L267.92 272.71L273.59 277.42L284.05 280.53L289.05 284.84L294.86 284.09L295.58 281.22L297.53 280.22L289.66 276.54L285.4 276.94L288.53 275.16L284.45 271.45L288.79 270.22L295.18 272.06L297.85 277.98L301.44 280.71L305.44 287.71L312.05 290.58L313.94 299.12L320.76 301.68L321.13 304.58V308.12L323.72 312.43L324.72 314.65L329.29 314.45L330.39 309.59L331.15 306.52Z" fill="white"/>
<path d="M328.72 279.71L329.05 281.2L328.68 285.62L330.26 289.07L333.34 289.48L334.43 294.39L331.04 293.79L333.36 307.93L331.52 314.32L335.2 321.1L339.25 323.46L342.36 337.46L348.13 347.58L353.59 355.06L359.89 355.29L360.81 349.65L361.51 348.81C361.071 344.166 360.347 339.554 359.34 335C354.698 313.996 344.061 294.789 328.72 279.71Z" fill="white"/>
<path d="M268.6 291.369L249.85 287.649L242.41 289.579L241.69 294.899L237.83 292.219L232.43 294.779L233.81 303.439L239.21 305.759L241.48 300.099L246.23 303.119L255.8 308.319L259.02 315.479L267.64 322.529L278.11 318.299L276.99 314.479L273.68 310.599L270.86 300.359L272.48 295.389L268.6 291.369Z" fill="white"/>
<path d="M283.83 293.95L279.72 293.78L276.99 297.38L280.47 304.48L283.83 303.73V293.95Z" fill="white"/>
<path d="M308.99 293.53L299.15 290.82L296.65 288.12L294.76 289.36L297.72 294.13L300.76 300.51L304.99 301.2L305.54 300L302.34 296.63L309.65 297.73L308.99 293.53Z" fill="white"/>
<path d="M254.18 403.71L253.37 404.98L261.65 405.58L265.56 408.51L270.59 407.94L271.77 404.69L265.59 404.98L254.18 403.71Z" fill="white"/>
<path d="M278.3 403.51L273.21 406.27L274.44 408.17L281.17 406.68L282 404.32L279.73 405.1L278.3 403.51Z" fill="white"/>
<path d="M235.19 309.64L246.57 312L250.45 316.03L255.51 316.81L257.12 321.61L255.94 324.86L252.49 326.44L244.04 325.06L243.81 324.02L247.81 321.23L245.05 316.14L237.49 315.11L233.46 311.66L235.19 309.64Z" stroke="#263238" stroke-linecap="round" stroke-linejoin="round"/>
<path d="M326.94 414.7L317.94 413.18L307 411.8L299 413.58L291.15 413.69L283.28 417.34L278.68 418.64L275.83 419.27L271.09 423.58L266.37 426.8L258.37 423.95L258.57 416.3L253.77 415.47L248.6 416.62L247.3 414.46L246.79 409.69L244.4 407.51L240.89 408.83L240.43 411.65L236.09 412.88L231.17 409.09L228.24 403.22L230.52 395.11L238.13 393.96L240.61 395.32L243.71 394.63L247.08 391.44L250.67 391.72L257.11 398.72L258.86 398.06L257.02 392.22L254.78 389.46L254.21 384.46L262.86 378.2L262.03 368.34L265.42 364.05L267.42 357.35L269.9 356.26L274.98 351.06L274.78 348.93L270.7 350.11L269.47 348.21L266.62 348.84L262.45 350.84L263.77 347.01L272.25 342.41L273.81 339.63L278.69 344.51L281.54 346.33L284.93 344.49L282.63 341.49L276.34 338.81L268.58 333.21L261.13 330.21L254.69 330.56L251 328.13L246.6 328L246.31 329.15L247.46 336.77L249.07 339.12L248.58 347.92L242.48 344.92V341.12L236.48 339.74L233.48 337.41L233.33 330.66L239.63 323.56L238.77 317.23L235.98 318.12L233.65 316.2L232 312.52L230.13 312.66L230 317L227.27 318.15L224 309.41L221.65 308.58L217.65 307.83L213.97 310.83L220.24 314.6L222.24 318.77L211.37 313.85L203.37 308.3L201.3 301.43L194.11 300.85L189.69 305.36C188.602 306.399 187.461 307.38 186.27 308.3C184.331 309.246 182.325 310.052 180.27 310.71L180.21 315.34L174.31 316.92L175.46 319.65L185.38 319.08L191.5 323.42L193.5 332.48L192.43 341.13L194.84 349.55L190.41 363.84L193.06 383.07L197.8 393.42L203 400.96L207 400.61L204.78 396.76L202.03 394.11L199.47 388.71L201.68 387.71L207.37 396.22L211.8 403.93L213.29 410.66L219.53 415.52L229.82 420L244.08 420.63L249.08 423.63L253.08 427.08L258.37 428.89L264.37 429.18L270 427.65C270 427.65 270.32 430.3 270.6 431.59C270.88 432.88 268.24 438.09 268.24 438.09L266.55 443.9L269.88 449.13L276.09 450.19L285.95 456.69L289.95 457.44L290.81 461.32L291.66 463.03C311.07 455.31 327.914 442.279 340.26 425.43L339.98 423.52L344.15 409.29L340.27 407.71L326.94 414.7Z" stroke="#263238" stroke-linecap="round" stroke-linejoin="round"/>
<path d="M331.15 306.52L327.21 302.24L322.32 297.35L319.57 289.82L324.4 289.56L324.08 286.92L320.66 287.41L323.22 285.48L325.92 282.98L325.35 280.39L321.35 276.94L319.45 271.52C300.326 256.46 276.808 248.057 252.47 247.59C228.133 247.122 204.308 254.616 184.62 268.93L191.52 271.83L188.94 277.3L184.25 279.42L185.25 286.52L183.36 287.76L181.36 291.18L182.65 295.78L187.17 295.32L186.33 300.12L190.73 299.12L196.11 287.88L195.97 283.56L203.1 281.44L204.22 277.93L211.55 275.49L211.35 270.92L216.72 269.45C216.72 269.45 220.15 266.52 220.92 266.35C222.489 266.336 224.057 266.44 225.61 266.66L230.18 268.91L235.61 267.7L239.61 263.82L245.67 263.02C246.65 263.399 247.706 263.536 248.75 263.42C250.04 263.13 253.52 260.42 253.52 260.42L262.06 263.42L265.68 265.06L266.54 268.94L270.54 268.59L271.32 265.98L275.03 266.78L275.23 268.91L267.92 272.71L273.59 277.42L284.05 280.53L289.05 284.84L294.86 284.09L295.58 281.22L297.53 280.22L289.66 276.54L285.4 276.94L288.53 275.16L284.45 271.45L288.79 270.22L295.18 272.06L297.85 277.98L301.44 280.71L305.44 287.71L312.05 290.58L313.94 299.12L320.76 301.68L321.13 304.58V308.12L323.72 312.43L324.72 314.65L329.29 314.45L330.39 309.59L331.15 306.52Z" stroke="#263238" stroke-linecap="round" stroke-linejoin="round"/>
<path d="M328.72 279.71L329.05 281.2L328.68 285.62L330.26 289.07L333.34 289.48L334.43 294.39L331.04 293.79L333.36 307.93L331.52 314.32L335.2 321.1L339.25 323.46L342.36 337.46L348.13 347.58L353.59 355.06L359.89 355.29L360.81 349.65L361.51 348.81C361.071 344.166 360.347 339.554 359.34 335C354.698 313.996 344.061 294.789 328.72 279.71Z" stroke="#263238" stroke-linecap="round" stroke-linejoin="round"/>
<path d="M268.6 291.369L249.85 287.649L242.41 289.579L241.69 294.899L237.83 292.219L232.43 294.779L233.81 303.439L239.21 305.759L241.48 300.099L246.23 303.119L255.8 308.319L259.02 315.479L267.64 322.529L278.11 318.299L276.99 314.479L273.68 310.599L270.86 300.359L272.48 295.389L268.6 291.369Z" stroke="#263238" stroke-linecap="round" stroke-linejoin="round"/>
<path d="M283.83 293.95L279.72 293.78L276.99 297.38L280.47 304.48L283.83 303.73V293.95Z" stroke="#263238" stroke-linecap="round" stroke-linejoin="round"/>
<path d="M308.99 293.53L299.15 290.82L296.65 288.12L294.76 289.36L297.72 294.13L300.76 300.51L304.99 301.2L305.54 300L302.34 296.63L309.65 297.73L308.99 293.53Z" stroke="#263238" stroke-linecap="round" stroke-linejoin="round"/>
<path d="M254.18 403.71L253.37 404.98L261.65 405.58L265.56 408.51L270.59 407.94L271.77 404.69L265.59 404.98L254.18 403.71Z" stroke="#263238" stroke-linecap="round" stroke-linejoin="round"/>
<path d="M278.3 403.51L273.21 406.27L274.44 408.17L281.17 406.68L282 404.32L279.73 405.1L278.3 403.51Z" stroke="#263238" stroke-linecap="round" stroke-linejoin="round"/>
<path d="M354.22 283.511C352.188 283.511 350.175 283.912 348.297 284.69C346.419 285.469 344.714 286.611 343.278 288.049C341.842 289.488 340.704 291.196 339.928 293.075C339.153 294.954 338.756 296.968 338.76 299.001C338.76 307.541 354.22 324.771 354.22 324.771C354.22 324.771 369.69 307.541 369.69 299.001C369.693 296.968 369.295 294.954 368.518 293.074C367.742 291.195 366.603 289.488 365.166 288.049C363.73 286.61 362.023 285.469 360.145 284.69C358.267 283.912 356.254 283.511 354.22 283.511ZM354.22 305.781C352.871 305.787 351.55 305.392 350.426 304.646C349.301 303.9 348.424 302.836 347.904 301.591C347.385 300.345 347.248 298.973 347.51 297.65C347.772 296.326 348.421 295.11 349.375 294.155C350.329 293.201 351.545 292.552 352.869 292.29C354.193 292.028 355.565 292.166 356.81 292.685C358.056 293.204 359.119 294.082 359.865 295.206C360.611 296.331 361.006 297.651 361 299.001C360.995 300.797 360.279 302.519 359.009 303.789C357.738 305.059 356.017 305.775 354.22 305.781Z" fill="#263238" stroke="#263238" stroke-miterlimit="10"/>
<path d="M234.25 323.2C230.672 323.2 227.241 324.621 224.711 327.151C222.182 329.681 220.76 333.112 220.76 336.69C220.76 344.14 234.25 359.17 234.25 359.17C234.25 359.17 247.74 344.17 247.74 336.69C247.74 333.112 246.319 329.681 243.789 327.151C241.259 324.621 237.828 323.2 234.25 323.2ZM234.25 342.63C233.075 342.63 231.927 342.282 230.95 341.629C229.973 340.976 229.212 340.049 228.762 338.963C228.313 337.878 228.195 336.684 228.424 335.531C228.654 334.379 229.219 333.321 230.05 332.49C230.881 331.659 231.939 331.094 233.091 330.864C234.244 330.635 235.438 330.753 236.523 331.202C237.609 331.652 238.536 332.413 239.189 333.39C239.842 334.367 240.19 335.515 240.19 336.69C240.19 338.266 239.564 339.776 238.45 340.89C237.337 342.004 235.826 342.63 234.25 342.63Z" fill="#263238" stroke="#263238" stroke-miterlimit="10"/>
<path d="M285.26 428.4C283.461 428.4 281.736 429.114 280.462 430.386C279.189 431.657 278.473 433.381 278.47 435.18C278.47 438.93 285.26 446.49 285.26 446.49C285.26 446.49 292.04 438.93 292.04 435.18C292.038 433.383 291.322 431.66 290.051 430.389C288.781 429.118 287.058 428.403 285.26 428.4ZM285.26 438.17C284.667 438.17 284.087 437.994 283.594 437.665C283.1 437.335 282.716 436.867 282.489 436.318C282.262 435.77 282.202 435.167 282.318 434.585C282.434 434.003 282.719 433.469 283.139 433.049C283.558 432.63 284.093 432.344 284.675 432.228C285.257 432.112 285.86 432.172 286.408 432.399C286.956 432.626 287.425 433.01 287.755 433.504C288.084 433.997 288.26 434.577 288.26 435.17C288.26 435.564 288.183 435.954 288.032 436.318C287.881 436.682 287.66 437.013 287.382 437.292C287.103 437.57 286.772 437.791 286.408 437.942C286.044 438.093 285.654 438.17 285.26 438.17Z" fill="#263238" stroke="#263238" stroke-miterlimit="10"/>
<path d="M200.88 365.75C199.081 365.753 197.357 366.469 196.085 367.742C194.814 369.015 194.1 370.741 194.1 372.54C194.1 376.29 200.88 383.85 200.88 383.85C200.88 383.85 207.67 376.29 207.67 372.54C207.67 370.739 206.955 369.012 205.681 367.739C204.408 366.465 202.681 365.75 200.88 365.75ZM200.88 375.53C200.287 375.53 199.707 375.354 199.213 375.024C198.72 374.695 198.336 374.226 198.108 373.678C197.881 373.13 197.822 372.527 197.938 371.945C198.053 371.363 198.339 370.828 198.759 370.409C199.178 369.989 199.713 369.703 200.295 369.588C200.877 369.472 201.48 369.531 202.028 369.758C202.576 369.985 203.045 370.37 203.374 370.863C203.704 371.357 203.88 371.937 203.88 372.53C203.88 373.326 203.564 374.089 203.001 374.651C202.439 375.214 201.676 375.53 200.88 375.53Z" fill="#263238" stroke="#263238" stroke-miterlimit="10"/>
<path d="M224.88 394.311C223.989 394.311 223.106 394.486 222.283 394.828C221.46 395.169 220.712 395.669 220.082 396.3C219.453 396.931 218.953 397.679 218.613 398.503C218.273 399.327 218.099 400.209 218.1 401.101C218.1 404.851 224.88 412.411 224.88 412.411C224.88 412.411 231.67 404.851 231.67 401.101C231.67 399.3 230.955 397.573 229.681 396.299C228.408 395.026 226.681 394.311 224.88 394.311ZM224.88 404.091C224.287 404.091 223.707 403.915 223.213 403.585C222.72 403.255 222.336 402.787 222.108 402.239C221.881 401.69 221.822 401.087 221.938 400.505C222.053 399.923 222.339 399.389 222.759 398.969C223.178 398.55 223.713 398.264 224.295 398.148C224.877 398.032 225.48 398.092 226.028 398.319C226.576 398.546 227.045 398.93 227.375 399.424C227.704 399.917 227.88 400.497 227.88 401.091C227.88 401.886 227.564 402.649 227.001 403.212C226.439 403.774 225.676 404.091 224.88 404.091Z" fill="#263238" stroke="#263238" stroke-miterlimit="10"/>
<path d="M309.17 407.13C308.113 407.13 307.066 407.338 306.09 407.743C305.113 408.147 304.225 408.74 303.478 409.488C302.73 410.235 302.137 411.123 301.733 412.099C301.328 413.076 301.12 414.123 301.12 415.18C301.12 419.62 309.17 428.58 309.17 428.58C309.17 428.58 317.17 419.58 317.17 415.18C317.177 414.125 316.975 413.079 316.576 412.103C316.176 411.127 315.588 410.239 314.845 409.491C314.101 408.742 313.217 408.149 312.243 407.744C311.269 407.338 310.225 407.13 309.17 407.13ZM309.17 418.72C308.467 418.722 307.779 418.515 307.194 418.126C306.609 417.736 306.152 417.182 305.882 416.533C305.612 415.884 305.541 415.169 305.678 414.48C305.815 413.79 306.153 413.157 306.65 412.66C307.147 412.163 307.78 411.824 308.47 411.688C309.16 411.551 309.874 411.622 310.523 411.892C311.172 412.162 311.727 412.619 312.116 413.204C312.505 413.789 312.712 414.477 312.71 415.18C312.71 415.645 312.619 416.105 312.441 416.535C312.263 416.964 312.002 417.354 311.673 417.683C311.345 418.012 310.954 418.273 310.525 418.45C310.095 418.628 309.635 418.72 309.17 418.72Z" fill="#263238" stroke="#263238" stroke-miterlimit="10"/>
<path d="M308.58 253.32C306.686 253.32 304.87 254.073 303.531 255.412C302.192 256.751 301.44 258.567 301.44 260.46C301.44 264.46 308.58 272.37 308.58 272.37C308.58 272.37 315.73 264.37 315.73 260.46C315.727 258.566 314.973 256.75 313.632 255.411C312.292 254.072 310.474 253.32 308.58 253.32ZM308.58 263.61C307.957 263.61 307.348 263.426 306.83 263.079C306.312 262.733 305.908 262.241 305.67 261.666C305.431 261.09 305.369 260.457 305.49 259.846C305.612 259.235 305.912 258.673 306.353 258.233C306.793 257.792 307.354 257.492 307.965 257.371C308.576 257.249 309.21 257.312 309.785 257.55C310.361 257.788 310.853 258.192 311.199 258.71C311.545 259.228 311.73 259.837 311.73 260.46C311.73 261.296 311.398 262.097 310.807 262.688C310.217 263.278 309.415 263.61 308.58 263.61Z" fill="#263238" stroke="#263238" stroke-miterlimit="10"/>
<path d="M186.29 298C185.352 297.999 184.422 298.182 183.555 298.541C182.687 298.899 181.899 299.425 181.235 300.088C180.571 300.751 180.044 301.538 179.685 302.405C179.325 303.272 179.14 304.202 179.14 305.14C179.14 309.09 186.29 317.05 186.29 317.05C186.29 317.05 193.43 309.05 193.43 305.14C193.43 303.246 192.678 301.43 191.339 300.091C190 298.752 188.184 298 186.29 298ZM186.29 308.29C185.667 308.292 185.057 308.109 184.537 307.764C184.018 307.419 183.613 306.928 183.373 306.352C183.133 305.777 183.069 305.143 183.189 304.532C183.31 303.92 183.609 303.358 184.049 302.916C184.489 302.475 185.051 302.174 185.662 302.051C186.273 301.929 186.907 301.991 187.483 302.229C188.059 302.467 188.552 302.871 188.899 303.389C189.245 303.907 189.43 304.517 189.43 305.14C189.43 305.974 189.1 306.773 188.511 307.364C187.922 307.954 187.124 308.287 186.29 308.29Z" fill="#263238" stroke="#263238" stroke-miterlimit="10"/>
<path d="M271.06 144.131C271.06 144.131 270.44 200.431 270.44 209.731C270.44 219.031 269.67 228.031 269.67 228.031C269.67 228.031 272.46 230.031 271.99 232.371C271.469 234.355 270.742 236.278 269.82 238.111C268.754 237.87 267.654 237.819 266.57 237.961C265.48 238.271 258.97 241.211 257.88 241.211C256.79 241.211 256.33 242.141 256.02 239.211C255.682 236.588 255.579 233.941 255.71 231.301C255.904 228.944 256.268 226.605 256.8 224.301L250.28 153.121L248.73 222.441C248.73 222.441 249.04 226.631 249.51 227.441C250.126 228.55 250.546 229.758 250.75 231.011C250.75 231.781 249.35 239.071 248.75 239.381C248.15 239.691 246.27 240.781 246.27 240.781C246.27 240.781 245.03 240.471 243.32 238.301C241.61 236.131 237.59 236.301 236.81 236.591L236.03 236.901C236.03 236.901 233.71 234.111 233.24 232.091C232.77 230.071 235.88 229.921 235.72 224.491C235.56 219.061 230.9 173.001 230.9 173.001L229.81 142.001L271.37 140.761L271.06 144.131Z" fill="#263238" stroke="#263238" stroke-miterlimit="10"/>
<path d="M254.78 72.1709L238.19 73.2609L237.57 144.131C237.57 144.131 238.81 145.221 249.04 145.371C259.27 145.521 261.45 144.291 261.45 144.291L254.78 72.1709Z" fill="white" stroke="#263238" stroke-miterlimit="10"/>
<path d="M253.76 37.2704C253.76 37.2704 257.82 43.0004 257.76 43.8704C257.646 44.7266 257.479 45.5748 257.26 46.4104C257.26 46.4104 261.68 50.9704 261.26 51.3404L258.8 53.4404C258.8 53.4404 258.87 57.7104 258.87 58.3704C258.87 59.0304 259.81 60.6904 259.52 61.3704C259.185 62.1126 258.721 62.7897 258.15 63.3704C257.64 63.8004 253.94 63.7304 253.94 63.7304L253.87 69.6004C253.87 69.6004 254.52 73.3004 253.94 74.6004C253.36 75.9004 251.69 76.9204 247.49 77.1404C243.29 77.3604 241.24 75.9304 240.01 74.9104C238.78 73.8905 238.94 64.5304 238.86 63.0804C238.78 61.6304 238.72 58.8704 237.92 57.6404C237.12 56.4104 231.92 47.6404 231.04 45.4604C230.16 43.2804 230.09 41.0404 231.76 39.0904C233.43 37.1404 235.53 36.2604 235.76 35.1704C235.99 34.0804 235.76 33.0004 237.35 32.4904C238.508 32.1861 239.714 32.1114 240.9 32.2704C240.9 32.2704 243.95 28.5804 245.54 29.0104L247.14 29.4404C247.14 29.4404 251.56 28.2104 253.88 30.1704C256.2 32.1304 256.66 35.2404 253.76 37.2704Z" fill="white" stroke="#263238" stroke-miterlimit="10"/>
<path d="M254.59 47.5208C254.59 48.4408 254.87 49.1908 255.23 49.1908C255.59 49.1908 255.87 48.4408 255.87 47.5208C255.87 46.6008 255.58 45.8408 255.23 45.8408C254.88 45.8408 254.59 46.5908 254.59 47.5208Z" fill="#263238" stroke="#263238" stroke-miterlimit="10"/>
<path d="M235.71 35.1704C235.92 34.0804 235.71 33.0004 237.3 32.4904C238.458 32.1861 239.664 32.1114 240.85 32.2704C240.85 32.2704 243.9 28.5804 245.49 29.0104L247.09 29.4404C247.09 29.4404 251.51 28.2104 253.83 30.1704C256.15 32.1304 256.66 35.2404 253.76 37.2704C253.76 37.2704 245.76 38.1404 246.76 39.5904C247.76 41.0404 248.21 42.2004 247.42 42.5904C246.63 42.9804 243 44.8304 243.36 45.7004C243.72 46.5704 244.08 48.8904 243.58 49.0404C243.08 49.1904 243.14 48.8904 241.58 47.7304C240.02 46.5704 238.24 47.4404 238.03 49.7304C237.95 50.5638 238.147 51.4004 238.592 52.1095C239.037 52.8187 239.705 53.3605 240.49 53.6504C241.29 53.7904 240.85 56.6504 239.33 57.7104C238.981 57.9426 238.605 58.1307 238.21 58.2704C238.124 58.0233 238.014 57.7854 237.88 57.5604C237.08 56.3304 231.88 47.5604 231 45.3804C230.12 43.2004 230.05 40.9604 231.72 39.0104C233.39 37.0604 235.49 36.2604 235.71 35.1704Z" fill="#263238" stroke="#263238" stroke-miterlimit="10"/>
<path d="M258 55.6802C258 55.6802 254.74 56.2602 252.86 53.9502" stroke="#263238" stroke-miterlimit="10"/>
<path d="M253.9 63.7309L247.23 61.6309L253.76 68.2209L253.9 63.7309Z" fill="#263238" stroke="#263238" stroke-miterlimit="10"/>
<path d="M256.15 43.8305C256.15 43.8305 253.79 42.5404 252.42 44.4804" stroke="#263238" stroke-miterlimit="10"/>
<path d="M256.6 72.0009L265.28 72.6609C265.28 72.6609 270.06 71.5509 271.5 72.0009C272.94 72.4509 293.41 80.3409 295.64 81.9009C297.87 83.4609 297.53 89.1209 296.97 91.4609C296.778 92.2773 296.328 93.01 295.687 93.5504C295.045 94.0908 294.247 94.4101 293.41 94.4609C292.41 94.5709 271.73 93.2409 271.73 93.2409L277.06 147.401L265.94 151.001L258.05 152.001L254.15 84.4909L256.6 72.0009Z" fill="#92E3A9" stroke="#263238" stroke-miterlimit="10"/>
<path d="M253.76 68.2305L256.6 72.0005C256.6 72.0005 256.93 77.6705 256.16 80.0005C255.616 81.5714 254.947 83.0963 254.16 84.5605L250.6 76.3305C252.127 73.8401 253.197 71.097 253.76 68.2305Z" fill="#92E3A9" stroke="#263238" stroke-miterlimit="10"/>
<path d="M240 86.6506L241 152.241C241 152.241 231.22 151.141 228 149.791C226.165 149.024 224.369 148.167 222.62 147.221C222.62 147.221 225.8 123.221 225.92 121.301C226.04 119.381 226.04 117.751 226.04 117.751C226.04 117.751 218.83 120.321 216.14 119.471C213.45 118.621 213.08 115.801 213.33 112.251C213.472 110.287 213.492 108.317 213.39 106.351C213.39 105.741 214.12 95.6106 217.06 88.0306C220 80.4506 218.22 80.2106 220.3 78.8706C222.38 77.5306 237.54 72.1406 237.54 72.1406L239.25 75.6906L240 86.6506Z" fill="#92E3A9" stroke="#263238" stroke-miterlimit="10"/>
<path d="M239.14 68.6306C239.14 68.6306 240.59 72.3006 241.47 74.1906C242.35 76.0806 243 77.3106 243 77.3106L240 86.6506C238.75 83.195 237.83 79.6292 237.25 76.0006C236.8 71.7706 236.4 72.4206 236.4 72.4206C236.4 72.4206 238.36 67.8506 239.14 68.6306Z" fill="#92E3A9" stroke="#263238" stroke-miterlimit="10"/>
<path d="M269.28 56.4004C268.381 56.0931 267.522 55.6802 266.72 55.1703C266.05 54.6203 264.72 52.5004 264.27 52.0604C263.82 51.6204 261.62 52.3904 261.27 51.3404C260.92 50.2904 260.67 49.2104 261.99 49.5204C263.295 49.7547 264.615 49.895 265.94 49.9403L263.85 43.1104H273.44C273.44 43.1104 276.22 52.5704 276.22 53.3404C276.142 54.2041 275.995 55.0602 275.78 55.9004C275.78 55.9004 288.9 70.5804 291.68 74.2504C294.46 77.9204 297.91 82.9304 298.25 84.8204C298.59 86.7104 297.58 92.7103 295.25 93.4903C292.92 94.2703 290.8 93.3804 288.36 91.0504C285.92 88.7204 278.57 73.7004 278.24 73.1404C277.91 72.5804 272.24 58.5704 271.9 58.1404C271.078 57.4859 270.202 56.9037 269.28 56.4004Z" fill="white" stroke="#263238" stroke-miterlimit="10"/>
<path d="M239.92 90.3302L243.22 119.62L224.4 117.39L219.49 88.2002L239.92 90.3302Z" fill="white" stroke="#263238" stroke-miterlimit="10"/>
<path d="M237.5 90.4802L243.49 119.34L224.53 118.85L216.95 90.2402L237.5 90.4802Z" fill="white" stroke="#263238" stroke-miterlimit="10"/>
<path d="M219.15 107.12C221.215 108.234 223.338 109.235 225.51 110.12C226.49 110.51 227.541 110.691 228.596 110.649C229.65 110.608 230.684 110.346 231.63 109.88C232.701 109.389 233.658 108.681 234.44 107.8C234.44 107.8 235.05 104.5 235.78 104.01C236.51 103.52 238.23 103.15 238.96 102.01C239.69 100.87 240.06 101.01 240.31 102.13C240.56 103.25 240.8 104.46 240.06 104.95C239.631 105.232 239.326 105.669 239.21 106.17C239.21 106.17 239.33 107.03 240.31 106.66C241.29 106.29 241.9 105.07 242.88 105.44C243.095 105.475 243.299 105.561 243.475 105.691C243.651 105.82 243.793 105.989 243.891 106.185C243.988 106.38 244.038 106.595 244.037 106.814C244.035 107.032 243.981 107.247 243.88 107.44C243.601 108.04 243.266 108.612 242.88 109.15C242.88 109.15 244.1 111.97 243.49 113.8C242.88 115.63 239.82 116.74 238.35 116.86C236.88 116.98 232.73 117.1 232.73 117.1C232.73 117.1 226.73 119.1 223.07 120.16C219.41 121.22 218.3 121.02 216.22 119.43C215.15 118.603 214.363 117.464 213.969 116.171C213.575 114.877 213.593 113.493 214.02 112.21C214.87 109.32 215.85 107.73 219.15 107.12Z" fill="white" stroke="#263238" stroke-miterlimit="10"/>
<path d="M268.89 235.791C268.89 235.791 270.89 240.591 271.37 241.521C272.403 243.19 273.845 244.567 275.56 245.521C277.89 246.911 280.68 247.841 280.06 249.081C279.44 250.321 276.65 250.631 274.32 250.941C271.99 251.251 266.57 250.321 264.39 250.321C262.21 250.321 257.39 249.551 256.95 248.461C256.51 247.371 257.11 239.621 257.11 239.621C257.11 239.621 260.67 235.631 268.89 235.791Z" fill="white" stroke="#263238" stroke-miterlimit="10"/>
<path d="M257 248.501C256.828 247.666 256.77 246.811 256.83 245.961L262.42 247.621C265.84 248.478 269.325 249.046 272.84 249.321C275.268 249.444 277.695 249.067 279.97 248.211C280.084 248.33 280.159 248.481 280.184 248.644C280.209 248.807 280.183 248.973 280.11 249.121C279.49 250.361 276.7 250.671 274.37 250.981C272.04 251.291 266.62 250.361 264.44 250.361C262.26 250.361 257.42 249.591 257 248.501Z" fill="white" stroke="#263238" stroke-miterlimit="10"/>
<path d="M246.73 240C246.73 240 246.27 248 246.16 248.58C246.05 249.16 245.48 249.58 243.9 249.77C242.32 249.96 241.63 249.88 240.73 250.32C239.83 250.76 237.9 251.73 232.47 251.73C227.04 251.73 225.34 250.73 226.02 248.8C226.7 246.87 231.9 243.04 233.15 241.52C234.191 240.023 235.072 238.421 235.78 236.74C235.78 236.74 237.33 235.44 240.39 236.09C243.45 236.74 244.24 237.94 244.58 238.48C245.218 239.09 245.942 239.603 246.73 240Z" fill="white" stroke="#263238" stroke-miterlimit="10"/>
<path d="M226 248.84C226.046 248.712 226.103 248.588 226.17 248.47C226.698 249.032 227.33 249.487 228.03 249.81C230.03 250.81 238.11 250.25 239.92 249.27C241.989 248.359 244.121 247.6 246.3 247C246.24 247.86 246.19 248.5 246.16 248.64C246.05 249.18 245.48 249.64 243.9 249.83C242.32 250.02 241.63 249.94 240.73 250.38C239.83 250.82 237.9 251.79 232.47 251.79C227.04 251.79 225.34 250.79 226 248.84Z" fill="white" stroke="#263238" stroke-miterlimit="10"/>
<path d="M261.3 44.6404L268.7 44.1504V49.9404L261.3 49.4504C260.95 49.4504 260.66 48.3804 260.66 47.0504C260.66 45.7204 261 44.6404 261.3 44.6404Z" fill="white" stroke="#263238" stroke-miterlimit="10"/>
<path d="M259.27 44.0605H261.6C261.661 44.061 261.72 44.0762 261.773 44.1049C261.827 44.1336 261.872 44.175 261.906 44.2253C261.939 44.2756 261.96 44.3334 261.966 44.3936C261.972 44.4538 261.963 44.5146 261.94 44.5705C261.685 45.3717 261.567 46.2101 261.59 47.0505C261.566 47.8878 261.684 48.7231 261.94 49.5205C261.963 49.5765 261.972 49.6373 261.966 49.6975C261.96 49.7577 261.939 49.8155 261.906 49.8658C261.872 49.9161 261.827 49.9575 261.773 49.9862C261.72 50.0149 261.661 50.0301 261.6 50.0305H259.27C258.83 50.0305 258.47 48.6905 258.47 47.0305C258.47 45.3705 258.83 44.0605 259.27 44.0605Z" fill="white" stroke="#263238" stroke-miterlimit="10"/>
<path d="M266.61 43.1105L282.68 42.3105V51.7905L266.61 51.0005C266.03 51.0005 265.61 49.2305 265.61 47.0605C265.61 44.8905 266 43.1105 266.61 43.1105Z" fill="white" stroke="#263238" stroke-miterlimit="10"/>
<path d="M281.42 47.0505C281.42 49.6605 281.99 51.7905 282.68 51.7905C283.37 51.7905 283.94 49.6605 283.94 47.0505C283.94 44.4405 283.38 42.3105 282.68 42.3105C281.98 42.3105 281.42 44.4305 281.42 47.0505Z" fill="white" stroke="#263238" stroke-miterlimit="10"/>
<path d="M258.49 44.6404L265.89 44.1504V49.9404L258.49 49.4504C258.14 49.4504 257.85 48.3804 257.85 47.0504C257.85 45.7204 258.14 44.6404 258.49 44.6404Z" fill="#263238" stroke="#263238" stroke-miterlimit="10"/>
<path d="M256.46 44.0605H258.79C258.851 44.061 258.91 44.0762 258.963 44.1049C259.017 44.1336 259.062 44.175 259.096 44.2253C259.129 44.2756 259.15 44.3334 259.156 44.3936C259.162 44.4538 259.153 44.5146 259.13 44.5705C258.879 45.3724 258.764 46.2107 258.79 47.0505C258.763 47.8872 258.878 48.7223 259.13 49.5205C259.153 49.5765 259.162 49.6373 259.156 49.6975C259.15 49.7577 259.129 49.8155 259.096 49.8658C259.062 49.9161 259.017 49.9575 258.963 49.9862C258.91 50.0149 258.851 50.0301 258.79 50.0305H256.46C256.02 50.0305 255.66 48.6905 255.66 47.0305C255.66 45.3705 256 44.0605 256.46 44.0605Z" fill="white" stroke="#263238" stroke-miterlimit="10"/>
<path d="M263.8 43.1105L279.87 42.3105V51.7905L263.8 51.0005C263.23 51.0005 262.8 49.2305 262.8 47.0605C262.8 44.8905 263.23 43.1105 263.8 43.1105Z" fill="#263238" stroke="#263238" stroke-miterlimit="10"/>
<path d="M278.61 47.0505C278.61 49.6605 279.18 51.7905 279.87 51.7905C280.56 51.7905 281.13 49.6605 281.13 47.0505C281.13 44.4405 280.57 42.3105 279.87 42.3105C279.17 42.3105 278.61 44.4305 278.61 47.0505Z" fill="white" stroke="#263238" stroke-miterlimit="10"/>
<path d="M273.12 42.5405C273.12 42.5405 271.05 40.3105 270.28 40.3105C269.51 40.3105 268.28 42.3105 268.06 42.5405C267.84 42.7705 267.98 43.1505 268.82 43.2305C269.46 43.2097 270.077 42.9933 270.59 42.6105L273.12 42.5405Z" fill="white" stroke="#263238" stroke-miterlimit="10"/>
<path d="M270.28 40.3106C269.227 40.0394 268.147 39.8851 267.06 39.8506C266.44 40.0006 265.29 42.6106 265.52 43.0006C265.75 43.3906 268.06 42.5406 268.06 42.5406C268.06 42.5406 269.59 40.2306 270.28 40.3106Z" fill="white" stroke="#263238" stroke-miterlimit="10"/>
<path d="M266.52 40.0803C266.52 40.0803 265.29 39.3103 264.68 39.8503C264.07 40.3903 262.76 42.2303 263.07 42.9203C263.38 43.6103 265.52 43.0003 265.52 43.0003C265.52 43.0003 266 40.3103 266.52 40.0803Z" fill="white" stroke="#263238" stroke-miterlimit="10"/>
<path d="M264.07 40.3102C264.07 40.3102 262.53 39.7002 261.99 40.3102C261.45 40.9202 260.08 42.8402 260.99 43.3102C261.9 43.7802 262.83 42.3902 262.83 42.3902L264.07 40.3102Z" fill="white" stroke="#263238" stroke-miterlimit="10"/>
</g>
<defs>
<clipPath id="clip0_223_1265">
<rect width="500" height="500" fill="white"/>
</clipPath>
</defs>
</svg>
