<svg width="750" height="500" viewBox="0 0 750 500" fill="none" xmlns="http://www.w3.org/2000/svg">
<path d="M707 330.33V315.23L695 313.8C694.229 310.185 692.907 306.711 691.08 303.5L698.43 294.16L687.75 283.48L678.75 290.56C675.481 288.491 671.903 286.958 668.15 286.02L666.79 274.64H651.69L650.34 286C646.633 286.926 643.097 288.431 639.86 290.46L630.62 283.19L619.94 293.87L627.45 303.4C625.681 306.506 624.377 309.855 623.58 313.34L611.1 314.83V330L624.1 331.54C624.985 334.704 626.301 337.733 628.01 340.54L619.67 351L630.35 361.68L641.09 353.23C643.786 354.775 646.67 355.968 649.67 356.78L651.31 370.52H666.41L668 357C671.069 356.241 674.026 355.088 676.8 353.57L687.48 362L698.16 351.32L690.16 341.12C691.983 338.247 693.397 335.133 694.36 331.87L707 330.33ZM659.24 342.33C655.114 342.328 651.082 341.103 647.653 338.809C644.224 336.516 641.552 333.257 639.975 329.445C638.397 325.634 637.986 321.44 638.792 317.394C639.598 313.348 641.585 309.632 644.503 306.716C647.421 303.8 651.138 301.814 655.184 301.01C659.23 300.206 663.424 300.619 667.235 302.198C671.046 303.778 674.303 306.451 676.595 309.881C678.886 313.312 680.11 317.344 680.11 321.47C680.114 324.212 679.577 326.929 678.529 329.464C677.482 331.999 675.945 334.302 674.007 336.243C672.068 338.183 669.766 339.722 667.232 340.772C664.698 341.821 661.982 342.361 659.24 342.36V342.33Z" stroke="#123022" stroke-linejoin="round"/>
<path d="M695.94 218.17V210.28L689.67 209.54C689.28 207.652 688.606 205.834 687.67 204.15L691.51 199.27L685.93 193.69L681.23 197.39C679.519 196.313 677.649 195.514 675.69 195.02L674.98 189.02H667L666.29 195.02C664.354 195.502 662.508 196.288 660.82 197.35L655.99 193.55L650.41 199.13L654.33 204.13C653.414 205.753 652.74 207.501 652.33 209.32L645.81 210.1V218L652.58 218.81C653.032 220.456 653.704 222.034 654.58 223.5L650.31 229L655.89 234.58L661.5 230.17C662.916 230.967 664.428 231.582 666 232L666.85 239.18H674.74L675.58 232.11C677.184 231.714 678.73 231.113 680.18 230.32L685.75 234.7L691.33 229.12L687.13 223.79C688.089 222.292 688.829 220.666 689.33 218.96L695.94 218.17ZM670.94 224.46C668.784 224.46 666.676 223.82 664.884 222.623C663.091 221.425 661.694 219.722 660.869 217.731C660.044 215.739 659.828 213.547 660.249 211.433C660.67 209.319 661.708 207.376 663.232 205.852C664.757 204.328 666.699 203.29 668.813 202.869C670.928 202.448 673.119 202.664 675.111 203.489C677.103 204.314 678.805 205.711 680.003 207.504C681.2 209.296 681.84 211.404 681.84 213.56C681.837 216.439 680.696 219.201 678.665 221.243C676.635 223.285 673.879 224.441 671 224.46H670.94Z" stroke="#123022" stroke-linejoin="round"/>
<path d="M538 341.15V334.23L532.5 333.58C532.146 331.925 531.542 330.333 530.71 328.86L534.08 324.58L529.18 319.68L525.06 322.93C523.561 321.981 521.92 321.279 520.2 320.85L519.58 315.63H512.66L512.04 320.85C510.345 321.263 508.726 321.938 507.24 322.85L503 319.56L498.11 324.45L501.55 328.82C500.74 330.245 500.144 331.782 499.78 333.38L494.06 334.06V341L500 341.71C500.407 343.155 501.01 344.537 501.79 345.82L497.99 350.65L502.88 355.55L507.8 351.67C509.033 352.382 510.354 352.93 511.73 353.3L512.48 359.6H519.4L520.14 353.4C521.535 353.05 522.879 352.522 524.14 351.83L529.03 355.67L533.92 350.78L530.24 346.1C531.077 344.787 531.726 343.363 532.17 341.87L538 341.15ZM516.12 346.66C514.228 346.66 512.38 346.099 510.807 345.048C509.235 343.997 508.01 342.503 507.286 340.756C506.563 339.009 506.374 337.086 506.744 335.231C507.114 333.376 508.025 331.673 509.363 330.336C510.701 329 512.406 328.09 514.261 327.722C516.116 327.355 518.038 327.545 519.785 328.27C521.532 328.996 523.024 330.222 524.073 331.796C525.123 333.369 525.682 335.219 525.68 337.11C525.68 339.639 524.676 342.065 522.89 343.856C521.103 345.646 518.679 346.655 516.15 346.66H516.12Z" stroke="#123022" stroke-linejoin="round"/>
<path d="M57.4797 201.34C63.4197 201.53 75.6697 196.34 75.6797 196.34C75.6897 196.34 69.7997 189.34 69.3697 188.91C64.3697 184.31 52.0897 178.36 45.4797 182.08C40.7297 184.76 39.9297 190.91 42.9497 195.19C45.9697 199.47 52.4297 201.17 57.4797 201.34Z" fill="#58A67E"/>
<path d="M75.9994 235.45C81.5494 234.13 91.3094 226.54 92.0794 225.93C96.4133 231.52 101.114 236.815 106.149 241.78C109.069 244.69 112.089 247.53 115.149 250.34C113.549 249.27 112.149 248.34 111.909 248.21C105.909 245.09 92.4494 242.6 87.0694 247.93C83.1794 251.77 84.0694 257.93 88.0694 261.24C92.0694 264.55 98.7894 264.52 103.709 263.35C108.629 262.18 117.149 255.85 119.359 254.15L122.919 257.35C128.649 262.44 134.389 267.5 139.869 272.63C141.799 274.43 143.629 276.28 145.479 278.13C144.059 277.18 142.859 276.39 142.659 276.28C136.659 273.17 123.209 270.67 117.819 276.01C113.939 279.85 114.819 286.01 118.819 289.32C122.819 292.63 129.549 292.6 134.469 291.42C139.229 290.29 147.079 284.54 149.719 282.53C151.549 284.53 153.389 286.42 155.079 288.39C156.199 289.76 157.369 291 158.419 292.44L161.589 296.61C163.509 299.33 165.509 302.13 167.319 304.83C168.589 306.7 169.769 308.5 170.959 310.32C169.049 308.5 165.259 305.01 164.909 304.76C159.439 300.76 146.529 296.27 140.389 300.76C135.979 303.97 135.899 310.17 139.389 314.08C142.879 317.99 149.489 318.94 154.529 318.52C160.079 318.07 170.529 312.32 171.769 311.6C173.769 314.6 175.609 317.55 177.339 320.36C178.889 322.88 180.339 325.28 181.689 327.58L186.109 325.82C184.559 323.33 182.919 320.72 181.109 317.96C179.109 314.9 176.959 311.66 174.699 308.36C177.471 305.73 180.086 302.938 182.529 300C187.689 302.46 198.749 303.36 200.169 303.46C200.169 307.05 200.089 310.55 199.979 313.84C199.913 316.107 199.826 318.29 199.719 320.39L204.399 318.53C204.399 317.03 204.399 315.53 204.469 313.93C204.469 310.29 204.469 306.39 204.419 302.39C205.849 302.14 217.569 300.02 222.169 296.87C226.339 294.01 230.859 289.2 231.099 283.87C231.339 278.54 227.369 273.87 221.919 274.18C214.349 274.59 207.169 286.24 205.459 292.78C205.349 293.17 204.719 297.49 204.369 300.21C204.369 298.58 204.309 296.99 204.259 295.31C204.169 291.98 203.979 288.66 203.789 285.09C203.639 283.37 203.479 281.63 203.329 279.87C203.179 278.11 202.859 276.3 202.639 274.49C202.029 270.31 201.209 266.12 200.279 261.9C203.199 261.82 213.549 261.36 218.119 259.15C222.689 256.94 227.869 252.9 228.919 247.65C229.969 242.4 226.749 237.21 221.309 236.65C213.759 235.91 204.909 246.33 202.219 252.55C202.049 252.93 200.619 257.61 199.889 260.19C199.309 257.66 198.749 255.14 198.089 252.6C196.169 245.27 194.009 237.91 191.879 230.6C191.229 228.35 190.599 226.09 189.969 223.84C190.969 223.84 203.319 223.55 208.439 221.08C212.999 218.88 218.189 214.82 219.249 209.57C220.309 204.32 217.069 199.13 211.629 198.57C204.089 197.84 195.229 208.26 192.539 214.47C192.339 214.94 190.289 221.67 189.859 223.4C188.459 218.4 187.119 213.49 185.999 208.55C184.445 201.89 183.326 195.136 182.649 188.33C183.129 188.33 195.979 188.09 201.229 185.56C205.789 183.37 210.979 179.31 212.039 174.06C213.099 168.81 209.859 163.62 204.419 163.06C196.879 162.32 188.019 172.74 185.329 178.96C185.119 179.44 182.919 186.69 182.619 188.03C182.619 187.63 182.499 187.23 182.469 186.83C181.974 179.99 182.094 173.119 182.829 166.3C183.179 162.52 183.729 158.94 184.339 155.46C186.739 155.66 197.709 156.46 202.679 154.71C207.449 153.03 213.059 149.56 214.679 144.46C216.299 139.36 213.679 133.85 208.319 132.72C200.899 131.16 190.959 140.55 187.599 146.43C187.419 146.75 185.919 150.2 184.869 152.73C185.169 151.17 185.449 149.55 185.769 148.05C186.949 142.44 188.369 137.38 189.669 132.9C190.429 130.36 191.169 128.08 191.879 125.9C194.339 124.9 204.179 120.61 207.729 116.82C211.279 113.03 214.559 107.47 213.649 102.2C212.739 96.9304 207.859 93.2004 202.599 94.7104C195.289 96.7104 190.789 109.66 190.519 116.42C190.519 117.01 191.179 126.19 191.309 126.14L191.459 126.08C190.729 128.08 189.979 130.3 189.199 132.71C187.799 137.16 186.259 142.21 184.959 147.82C183.483 153.846 182.361 159.953 181.599 166.11C180.708 173.002 180.437 179.96 180.789 186.9C180.789 186.98 180.789 187.06 180.789 187.14C180.009 185.07 177.619 179.33 177.379 178.91C174.199 173 164.359 163.55 156.919 165C151.569 166.06 148.919 171.65 150.429 176.66C151.939 181.67 157.569 185.31 162.319 187.05C167.669 189 179.999 188.05 180.989 187.97C181.518 195.03 182.52 202.045 183.989 208.97C184.819 212.97 185.779 217.05 186.789 221.09C186.059 219.31 185.379 217.73 185.269 217.52C181.969 211.6 172.139 202.11 164.699 203.59C159.339 204.65 156.699 210.25 158.209 215.26C159.719 220.27 165.339 223.9 170.089 225.64C174.839 227.38 185.439 226.8 188.219 226.64C188.629 228.19 189.019 229.74 189.429 231.28C191.429 238.69 193.429 246.07 195.129 253.37C195.749 255.94 196.259 258.49 196.769 261.05C196.119 259.47 195.549 258.15 195.449 257.96C192.149 252.04 182.319 242.55 174.879 244.03C169.519 245.09 166.879 250.68 168.389 255.7C169.899 260.72 175.519 264.34 180.269 266.08C184.869 267.76 194.599 267.29 197.899 267.08C198.359 269.72 198.819 272.35 199.139 274.93C199.309 276.69 199.609 278.37 199.689 280.15C199.769 281.93 199.919 283.65 200.039 285.37C200.139 288.7 200.259 292.14 200.279 295.37C200.279 297.63 200.279 299.79 200.279 301.96C199.699 299.39 198.459 294.39 198.279 293.96C195.995 288.465 192.342 283.646 187.669 279.96C187.439 279.337 187.155 278.734 186.819 278.16C184.129 273.67 178.189 271.89 173.819 275.16C167.729 279.68 168.179 293.35 170.349 299.76C170.479 300.14 172.349 304.09 173.549 306.56C172.609 305.21 171.719 303.9 170.749 302.56C168.829 299.83 166.849 297.17 164.749 294.29L161.479 290.19C160.419 288.8 159.129 287.47 157.939 286.09C155.129 282.94 152.129 279.89 149.029 276.89C151.419 275.21 159.799 269.12 162.399 264.75C164.999 260.38 167.069 254.15 165.059 249.2C163.049 244.25 157.479 241.69 152.659 244.25C145.959 247.8 144.319 261.37 145.499 268.04C145.579 268.45 146.959 273.14 147.769 275.7C145.899 273.91 144.039 272.11 142.089 270.36C136.449 265.3 130.579 260.36 124.749 255.36C122.959 253.85 121.199 252.31 119.429 250.78C120.289 250.19 130.429 243.17 133.309 238.28C135.899 233.94 137.989 227.69 135.979 222.73C133.969 217.77 128.399 215.22 123.579 217.73C116.879 221.28 115.239 234.85 116.419 241.52C116.509 242.02 118.509 248.77 119.109 250.45C115.209 247.09 111.359 243.7 107.699 240.2C102.712 235.51 98.0354 230.499 93.6994 225.2C94.0994 224.93 104.699 217.64 107.699 212.64C110.289 208.29 112.379 202.04 110.369 197.08C108.359 192.12 102.789 189.58 97.9694 192.08C91.2694 195.63 89.6294 209.21 90.8094 215.87C90.9094 216.4 93.0694 223.65 93.5494 224.94C93.2994 224.63 93.0094 224.34 92.7694 224.03C88.5958 218.592 84.9147 212.792 81.7694 206.7C79.9794 203.35 78.4594 200.06 77.0594 196.82C79.1694 195.67 88.7594 190.29 91.9394 186.08C94.9394 182.08 97.7494 176.08 96.2894 170.91C94.8294 165.74 89.5894 162.62 84.5094 164.63C77.5094 167.42 74.3494 180.73 74.7894 187.49C74.7894 187.86 75.4694 191.57 75.9894 194.26C75.3794 192.79 74.7194 191.26 74.1594 189.86C71.9994 184.59 70.3994 179.58 68.9994 175.13C68.2294 172.59 67.5794 170.28 66.9994 168.13C68.4794 165.91 74.3294 156.92 75.1994 151.81C76.0694 146.7 75.7394 140.24 72.0794 136.34C68.4194 132.44 62.3094 132.07 58.7294 136.19C53.7294 141.92 57.1294 155.19 60.6294 160.97C60.9294 161.47 66.5694 168.75 66.6294 168.64L66.7194 168.5C67.2394 170.6 67.8094 172.84 68.4894 175.28C69.7794 179.76 71.2794 184.82 73.2894 190.22C75.3839 196.061 77.8181 201.774 80.5794 207.33C83.6413 213.569 87.2523 219.522 91.3694 225.12C91.3694 225.18 91.4794 225.24 91.5294 225.31C89.7294 224.01 84.5294 220.54 84.1394 220.31C78.1394 217.19 64.6894 214.7 59.2994 220.04C55.4194 223.88 56.2994 230.04 60.2994 233.35C64.2994 236.66 71.0894 236.63 75.9994 235.45Z" fill="#58A67E"/>
<path d="M183.62 154.26C183.76 154.26 182.62 145.15 182.46 144.58C180.85 138.01 173.87 126.25 166.3 125.71C160.85 125.32 156.8 130.01 156.96 135.25C157.12 140.49 161.56 145.47 165.68 148.4C170.52 151.84 183.61 154.26 183.62 154.26Z" fill="#58A67E"/>
<path d="M664.9 123.17C659.9 125.63 647.35 125.91 647.34 125.91C647.33 125.91 649.67 117.6 649.88 117.09C652.37 111.22 660.63 101.35 667.74 101.99C672.86 102.45 675.92 107.42 674.98 112.26C674.04 117.1 669.17 121.07 664.9 123.17Z" fill="#58A67E"/>
<path d="M662.19 159.61C656.92 160.61 645.61 157.88 644.71 157.61C643.157 164.069 641.173 170.417 638.77 176.61C637.4 180.23 635.89 183.84 634.35 187.44C635.3 185.9 636.16 184.54 636.3 184.36C640.3 179.36 650.83 172.02 657.51 174.51C662.33 176.31 663.96 181.91 661.78 186.33C659.6 190.75 653.85 193.33 649.18 194.18C644.51 195.03 634.74 192.95 632.18 192.35C631.57 193.72 630.98 195.1 630.37 196.47C627.37 203.06 624.45 209.62 621.74 216.14C620.74 218.43 619.92 220.73 619.05 223.03C619.9 221.66 620.62 220.52 620.75 220.36C624.75 215.36 635.28 208.02 641.96 210.51C646.78 212.31 648.42 217.91 646.24 222.33C644.06 226.75 638.3 229.33 633.63 230.18C628.96 231.03 620.14 229.18 617.1 228.45C616.28 230.83 615.45 233.21 614.77 235.55C614.34 237.16 613.77 238.68 613.47 240.32C613.17 241.96 612.72 243.54 612.36 245.12C611.76 248.2 611.13 251.38 610.62 254.39C610.26 256.49 609.94 258.49 609.62 260.51C610.54 258.21 612.45 253.75 612.62 253.4C615.77 247.86 625.11 239 632.1 240.46C637.1 241.46 639.6 246.79 638.1 251.46C636.6 256.13 631.31 259.54 626.83 261.13C621.89 262.89 610.74 261.98 609.35 261.86C608.83 265.2 608.35 268.46 607.97 271.54C607.61 274.29 607.3 276.91 607.02 279.41L602.55 279.61C602.91 276.87 603.32 274 603.78 270.95C604.29 267.55 604.91 263.95 605.57 260.22C602.156 259.04 598.816 257.654 595.57 256.07C592.1 260.19 582.95 265.23 581.77 265.87C583.18 268.94 584.58 271.92 585.95 274.7C586.89 276.62 587.806 278.46 588.7 280.22L583.97 280.43C583.37 279.16 582.76 277.87 582.13 276.52C580.69 273.41 579.2 270.05 577.71 266.59C576.38 266.93 565.51 269.65 560.34 268.72C555.66 267.88 549.93 265.51 547.64 261.02C545.35 256.53 546.98 251.02 551.78 249.15C558.44 246.58 569.1 253.79 573.1 258.75C573.34 259.04 575.55 262.5 576.91 264.7C576.31 263.28 575.71 261.91 575.11 260.45C573.9 257.56 572.78 254.63 571.56 251.5L570 247C569.43 245.46 569 243.75 568.51 242.12C567.42 238.3 566.51 234.38 565.66 230.41C563.13 231.41 554.08 235.07 549.29 234.95C544.5 234.83 538.51 233.35 535.58 229.25C532.65 225.15 533.4 219.45 537.86 216.9C544.06 213.35 555.68 218.9 560.4 223.15C560.69 223.42 563.72 226.88 565.4 228.81C564.91 226.42 564.4 224.03 564 221.6C562.81 214.6 561.82 207.42 560.8 200.29C560.49 198.1 560.16 195.93 559.8 193.75C558.9 194.14 548.23 198.66 542.88 198.52C538.12 198.4 532.09 196.92 529.16 192.83C526.23 188.74 526.99 183.03 531.45 180.47C537.64 176.92 549.26 182.47 553.98 186.73C554.33 187.05 558.69 192.03 559.74 193.35C559.01 188.56 558.25 183.79 557.3 179.12C556.044 172.804 554.374 166.577 552.3 160.48C551.89 160.66 540.77 165.43 535.3 165.29C530.54 165.17 524.51 163.69 521.58 159.59C518.65 155.49 519.41 149.8 523.87 147.24C530.06 143.69 541.69 149.24 546.4 153.49C546.77 153.83 551.46 159.19 552.24 160.23C552.12 159.87 552.03 159.49 551.9 159.14C549.676 153.079 546.915 147.229 543.65 141.66C541.89 138.56 540.03 135.66 538.16 132.95C536.16 134.05 527.08 138.95 522.16 139.4C517.42 139.8 511.26 138.99 507.9 135.25C504.54 131.51 504.67 125.75 508.82 122.71C514.58 118.5 526.74 122.71 531.9 126.46C532.18 126.66 534.8 129.05 536.68 130.81C535.82 129.58 534.95 128.3 534.1 127.15C530.92 122.79 527.74 118.99 524.89 115.65C523.26 113.77 521.74 112.1 520.31 110.55C517.8 110.61 507.7 110.76 503.2 108.89C498.7 107.02 493.71 103.51 492.45 98.63C491.19 93.75 493.96 88.7 499.05 87.93C506.1 86.85 514.96 96.18 517.81 101.93C518.05 102.43 521.02 110.57 520.89 110.58H520.73C522.14 112.05 523.64 113.63 525.24 115.4C528.16 118.68 531.44 122.4 534.72 126.72C538.334 131.319 541.673 136.127 544.72 141.12C548.146 146.69 551.07 152.553 553.46 158.64C553.488 158.712 553.511 158.785 553.53 158.86C553.4 156.78 553.24 150.93 553.27 150.48C553.81 144.13 558.58 132.17 565.53 130.57C570.53 129.41 575 133.17 575.62 138.07C576.24 142.97 572.84 148.25 569.43 151.57C565.59 155.32 554.65 159.28 553.78 159.57C556.053 165.827 557.907 172.227 559.33 178.73C560.18 182.51 560.92 186.35 561.61 190.21C561.56 188.4 561.52 186.78 561.54 186.55C562.08 180.2 566.85 168.25 573.8 166.64C578.8 165.48 583.26 169.25 583.88 174.14C584.5 179.03 581.11 184.32 577.7 187.65C574.29 190.98 564.98 194.58 562.52 195.49C562.77 196.97 563.03 198.49 563.28 199.94C564.45 207.05 565.59 214.16 566.93 221.09C567.39 223.54 567.93 225.93 568.49 228.32C568.44 226.72 568.42 225.32 568.43 225.16C568.97 218.81 573.74 206.85 580.69 205.25C585.69 204.09 590.15 207.85 590.78 212.75C591.41 217.65 588 222.93 584.59 226.25C581.18 229.57 572.77 232.83 569.85 233.93C570.48 236.36 571.11 238.8 571.85 241.13C572.37 242.71 572.77 244.27 573.39 245.83L575.11 250.45C576.31 253.34 577.54 256.34 578.78 259.14C579.63 261.09 580.48 262.93 581.32 264.79C580.83 262.36 579.96 257.59 579.93 257.18C579.743 251.562 581.003 245.99 583.59 241C583.53 240.378 583.53 239.752 583.59 239.13C584.15 234.23 588.59 230.41 593.59 231.51C600.59 233.04 605.47 244.93 606.08 251.28C606.08 251.65 606.08 255.75 605.97 258.34C606.25 256.83 606.5 255.34 606.81 253.8C607.39 250.72 608.07 247.67 608.81 244.38C609.22 242.8 609.62 241.21 610.03 239.6C610.44 237.99 611.03 236.35 611.48 234.71C612.68 230.92 614.07 227.14 615.57 223.37C612.87 222.84 603.33 220.86 599.41 218.12C595.49 215.38 591.29 210.84 591.1 205.8C590.91 200.76 594.7 196.43 599.83 196.8C606.95 197.25 613.61 208.27 615.17 214.45C615.27 214.83 615.89 219.39 616.17 221.9C617.08 219.64 617.98 217.38 618.98 215.12C621.87 208.6 624.98 202.12 628.07 195.58C629.02 193.58 629.94 191.58 630.86 189.58C629.86 189.4 618.51 187.29 614.12 184.22C610.22 181.5 606 176.94 605.82 171.91C605.64 166.88 609.41 162.54 614.54 162.86C621.66 163.32 628.32 174.33 629.88 180.51C630 180.98 630.88 187.51 631.03 189.22C633.03 184.82 635.03 180.42 636.86 176C639.299 170.028 641.35 163.906 643 157.67C642.55 157.59 630.65 155.44 626.16 152.3C622.25 149.57 618.04 145.01 617.85 139.98C617.66 134.95 621.45 130.61 626.58 130.98C633.7 131.44 640.36 142.45 641.92 148.63C642.04 149.12 643 156.18 643.08 157.47C643.17 157.11 643.31 156.74 643.4 156.38C644.883 150.097 645.807 143.696 646.16 137.25C646.4 133.69 646.43 130.25 646.38 126.95C644.12 126.78 633.81 125.87 629.46 123.49C625.28 121.21 620.59 117.14 619.85 112.16C619.11 107.18 622.4 102.45 627.53 102.16C634.66 101.83 642.53 112.05 644.72 118.02C644.84 118.34 645.72 121.78 646.31 124.29C646.26 122.79 646.25 121.24 646.18 119.81C645.92 114.42 645.36 109.49 644.83 105.14C644.51 102.67 644.17 100.44 643.83 98.35C641.7 97.03 633.2 91.57 630.47 87.53C627.74 83.49 625.53 77.81 627.17 73.05C628.81 68.29 633.9 65.6 638.57 67.75C645.05 70.75 647.29 83.42 646.52 89.75C646.45 90.29 644.43 98.75 644.32 98.66L644.19 98.58C644.56 100.58 644.93 102.72 645.29 105.07C645.92 109.43 646.59 114.35 646.96 119.75C647.418 125.571 647.538 131.415 647.32 137.25C647.124 143.786 646.347 150.291 645 156.69L644.94 156.92C645.94 155.1 649.07 150.13 649.35 149.78C653.3 144.78 663.87 137.44 670.56 139.93C675.37 141.73 677.01 147.33 674.83 151.75C672.65 156.17 666.87 158.71 662.19 159.61Z" fill="#58A67E"/>
<path d="M538.449 131.57C538.339 131.64 535.799 123.35 535.699 122.81C534.539 116.54 535.989 103.81 542.269 100.37C546.789 97.9295 552.079 100.37 553.969 104.94C555.859 109.51 553.969 115.49 551.579 119.6C548.749 124.42 538.459 131.56 538.449 131.57Z" fill="#58A67E"/>
<path d="M699.78 388.929C697.78 389.639 693.15 389.239 693.14 389.239C693.13 389.239 694.34 386.239 694.45 386.059C695.61 383.979 699.08 380.639 701.7 381.169C702.132 381.27 702.539 381.46 702.893 381.728C703.247 381.995 703.541 382.334 703.756 382.722C703.971 383.111 704.102 383.54 704.141 383.982C704.179 384.424 704.124 384.87 703.98 385.289C703.42 387.089 701.46 388.319 699.78 388.929Z" fill="#58A67E"/>
<path d="M697.299 402.37C695.299 402.53 691.199 401.05 690.869 400.94C690.023 403.284 689.021 405.569 687.869 407.78C687.209 409.07 686.509 410.35 685.779 411.62C686.199 411.09 686.579 410.62 686.639 410.56C688.309 408.86 692.539 406.56 694.919 407.76C695.31 407.97 695.652 408.26 695.923 408.611C696.195 408.962 696.389 409.366 696.494 409.797C696.598 410.228 696.611 410.677 696.531 411.113C696.451 411.549 696.28 411.964 696.029 412.33C695.029 413.92 692.799 414.59 691.029 414.73C689.259 414.87 685.709 413.73 684.779 413.36L683.939 414.82C682.569 417.15 681.199 419.47 679.939 421.82C679.489 422.64 679.079 423.46 678.659 424.28C679.029 423.8 679.349 423.41 679.399 423.35C681.069 421.65 685.299 419.35 687.689 420.55C688.08 420.76 688.422 421.05 688.693 421.401C688.965 421.752 689.159 422.156 689.264 422.587C689.368 423.018 689.381 423.467 689.301 423.903C689.221 424.339 689.05 424.754 688.799 425.12C687.799 426.71 685.569 427.39 683.799 427.53C682.029 427.67 678.799 426.6 677.719 426.21C677.319 427.07 676.919 427.92 676.569 428.76C676.339 429.34 676.079 429.88 675.889 430.48C675.699 431.08 675.479 431.65 675.279 432.22C674.939 433.34 674.569 434.5 674.279 435.6C674.059 436.36 673.859 437.1 673.659 437.83C674.099 437.02 674.989 435.43 675.079 435.31C676.479 433.38 680.309 430.47 682.849 431.31C683.267 431.458 683.65 431.693 683.971 431.999C684.293 432.305 684.546 432.675 684.715 433.085C684.884 433.496 684.964 433.937 684.951 434.381C684.938 434.824 684.832 435.26 684.639 435.66C683.879 437.38 681.779 438.39 680.049 438.8C678.139 439.25 674.049 438.46 673.519 438.36C673.189 439.58 672.889 440.77 672.619 441.9C672.349 443.03 672.149 443.9 671.939 444.79L670.269 444.68C670.519 443.68 670.779 442.62 671.079 441.51C671.379 440.4 671.789 438.95 672.179 437.59C670.966 437.012 669.787 436.364 668.649 435.65C667.189 437.04 663.589 438.54 663.119 438.73C663.519 439.93 663.919 441.09 664.319 442.18C664.589 442.94 664.859 443.66 665.119 444.35L663.349 444.23C663.179 443.74 662.999 443.23 662.819 442.7C662.409 441.49 661.999 440.18 661.579 438.83C661.069 438.9 656.919 439.47 655.039 438.92C653.329 438.42 651.289 437.3 650.629 435.54C650.458 435.132 650.374 434.692 650.383 434.249C650.392 433.806 650.494 433.37 650.683 432.97C650.872 432.569 651.142 432.212 651.478 431.923C651.813 431.633 652.205 431.418 652.629 431.29C655.209 430.61 658.879 433.72 660.169 435.73C660.239 435.84 660.929 437.22 661.339 438.1C661.179 437.54 661.009 437.01 660.839 436.44C660.509 435.32 660.209 434.18 659.839 432.97L659.419 431.17C659.269 430.57 659.189 429.92 659.069 429.29C658.819 427.83 658.629 426.29 658.479 424.82C657.479 425.11 653.979 426.09 652.209 425.82C650.439 425.55 648.269 424.82 647.339 423.14C647.109 422.761 646.962 422.337 646.906 421.898C646.85 421.458 646.888 421.011 647.016 420.587C647.144 420.162 647.361 419.77 647.651 419.434C647.941 419.099 648.298 418.828 648.699 418.64C651.139 417.57 655.239 420.1 656.819 421.88C656.919 421.99 657.909 423.4 658.429 424.19C658.349 423.28 658.259 422.37 658.209 421.45C658.049 418.79 657.969 416.09 657.879 413.39C657.879 412.57 657.819 411.75 657.789 410.92C657.439 411.03 653.289 412.28 651.299 412.01C649.539 411.77 647.359 411.01 646.429 409.34C646.199 408.961 646.051 408.537 645.994 408.097C645.938 407.657 645.974 407.21 646.102 406.785C646.229 406.36 646.444 405.966 646.733 405.629C647.022 405.292 647.378 405.02 647.779 404.83C650.229 403.76 654.329 406.29 655.909 408.08C656.029 408.21 657.449 410.24 657.779 410.77C657.709 408.96 657.619 407.16 657.459 405.38C657.25 402.982 656.886 400.601 656.369 398.25C656.209 398.25 651.879 399.62 649.849 399.34C648.079 399.11 645.899 398.34 644.979 396.67C644.747 396.292 644.598 395.869 644.541 395.429C644.484 394.989 644.52 394.542 644.647 394.118C644.775 393.693 644.99 393.3 645.28 392.964C645.57 392.628 645.928 392.358 646.329 392.17C648.779 391.1 652.879 393.62 654.459 395.41C654.579 395.55 656.109 397.73 656.349 398.15C656.349 398.01 656.349 397.87 656.269 397.73C655.692 395.387 654.905 393.102 653.919 390.9C653.389 389.67 652.809 388.53 652.229 387.43C651.449 387.76 647.859 389.23 645.999 389.18C644.139 389.13 641.999 388.59 640.869 387.06C640.597 386.709 640.403 386.304 640.298 385.872C640.193 385.441 640.18 384.992 640.26 384.555C640.34 384.118 640.512 383.703 640.763 383.337C641.015 382.971 641.34 382.662 641.719 382.43C644.039 381.1 648.389 383.16 650.149 384.76C650.249 384.85 651.149 385.85 651.749 386.58C651.479 386.09 651.209 385.58 650.939 385.11C649.939 383.36 648.939 381.82 647.939 380.46C647.409 379.7 646.939 379.01 646.449 378.38C645.509 378.3 641.749 377.94 640.149 377.06C638.549 376.18 636.849 374.68 636.569 372.81C636.493 372.373 636.508 371.926 636.615 371.496C636.722 371.066 636.918 370.663 637.191 370.313C637.463 369.964 637.806 369.675 638.196 369.466C638.587 369.257 639.017 369.132 639.459 369.1C642.129 368.99 645.039 372.82 645.869 375.05C645.939 375.25 646.709 378.4 646.659 378.39C647.119 378.99 647.609 379.64 648.139 380.39C649.139 381.73 650.139 383.25 651.199 384.99C652.355 386.845 653.397 388.768 654.319 390.75C655.371 392.959 656.221 395.258 656.859 397.62C656.859 397.62 656.859 397.68 656.859 397.7C656.859 396.92 657.069 394.7 657.099 394.58C657.559 392.24 659.819 387.99 662.469 387.67C662.911 387.629 663.357 387.682 663.777 387.825C664.198 387.968 664.583 388.198 664.909 388.5C665.234 388.802 665.492 389.169 665.667 389.577C665.841 389.985 665.927 390.426 665.919 390.87C665.919 392.75 664.469 394.54 663.069 395.64C661.489 396.88 657.249 397.9 656.919 397.99C657.51 400.405 657.938 402.857 658.199 405.33C658.369 406.78 658.489 408.23 658.589 409.7C658.639 409.02 658.689 408.42 658.709 408.34C659.169 406 661.429 401.74 664.079 401.43C664.521 401.389 664.966 401.442 665.386 401.585C665.806 401.728 666.191 401.958 666.515 402.26C666.84 402.562 667.097 402.929 667.27 403.338C667.443 403.746 667.528 404.186 667.519 404.63C667.519 406.51 666.079 408.3 664.669 409.4C663.259 410.5 659.669 411.46 658.669 411.7C658.669 412.26 658.739 412.82 658.769 413.38C658.919 416.08 659.049 418.77 659.269 421.38C659.339 422.31 659.449 423.22 659.549 424.13C659.599 423.53 659.649 423.03 659.659 422.95C660.119 420.61 662.379 416.36 665.029 416.04C665.471 416.001 665.916 416.055 666.336 416.198C666.755 416.342 667.14 416.572 667.465 416.873C667.79 417.175 668.049 417.541 668.223 417.949C668.398 418.357 668.485 418.796 668.479 419.24C668.479 421.13 667.029 422.92 665.629 424.01C664.229 425.1 660.959 426.01 659.829 426.27C659.969 427.2 660.099 428.13 660.279 429.03C660.409 429.64 660.489 430.23 660.659 430.84L661.109 432.63C661.439 433.75 661.769 434.92 662.109 436.01C662.349 436.77 662.589 437.49 662.829 438.21C662.739 437.29 662.609 435.48 662.619 435.33C662.774 433.241 663.462 431.226 664.619 429.48C664.621 429.244 664.648 429.01 664.699 428.78C664.784 428.348 664.958 427.939 665.211 427.578C665.463 427.217 665.788 426.913 666.164 426.685C666.541 426.458 666.961 426.311 667.397 426.255C667.834 426.199 668.277 426.235 668.699 426.36C671.229 427.21 672.569 431.83 672.539 434.21C672.539 434.36 672.349 435.88 672.209 436.84C672.379 436.29 672.529 435.75 672.709 435.18C673.059 434.06 673.429 432.95 673.829 431.76C674.039 431.19 674.259 430.61 674.479 430.03C674.699 429.45 674.969 428.86 675.219 428.27C675.809 426.91 676.489 425.56 677.219 424.22C676.219 423.92 672.779 422.79 671.429 421.61C670.079 420.43 668.709 418.61 668.839 416.69C668.856 416.247 668.965 415.813 669.161 415.415C669.356 415.018 669.633 414.666 669.974 414.383C670.315 414.1 670.711 413.892 671.138 413.772C671.564 413.653 672.011 413.625 672.449 413.69C675.089 414.14 677.109 418.51 677.449 420.87C677.449 421.02 677.519 422.74 677.529 423.69C677.959 422.88 678.389 422.08 678.849 421.28C680.189 418.97 681.609 416.67 683.019 414.38C683.459 413.68 683.879 412.97 684.309 412.27C683.959 412.16 679.799 410.91 678.309 409.59C676.969 408.42 675.579 406.59 675.719 404.68C675.737 404.238 675.848 403.804 676.044 403.408C676.24 403.011 676.517 402.66 676.857 402.377C677.197 402.094 677.593 401.886 678.019 401.766C678.445 401.646 678.891 401.616 679.329 401.68C681.959 402.14 683.989 406.5 684.329 408.86C684.329 409.04 684.419 411.52 684.399 412.15C685.339 410.6 686.259 409.04 687.109 407.47C688.247 405.352 689.249 403.165 690.109 400.92C689.949 400.87 685.609 399.59 684.109 398.24C682.769 397.07 681.389 395.24 681.529 393.32C681.546 392.877 681.655 392.443 681.851 392.045C682.046 391.648 682.323 391.296 682.664 391.013C683.005 390.73 683.401 390.522 683.828 390.402C684.254 390.283 684.701 390.255 685.139 390.32C687.769 390.78 689.799 395.15 690.139 397.51C690.139 397.69 690.229 400.36 690.209 400.84L690.369 400.45C691.178 398.175 691.78 395.832 692.169 393.45C692.409 392.13 692.559 390.87 692.679 389.63C691.839 389.47 688.049 388.71 686.519 387.63C684.989 386.55 683.519 384.91 683.409 383.03C683.377 382.587 683.438 382.143 683.588 381.726C683.739 381.308 683.976 380.927 684.283 380.608C684.591 380.288 684.962 380.036 685.373 379.87C685.784 379.703 686.226 379.625 686.669 379.64C689.339 379.81 691.829 383.93 692.419 386.24C692.419 386.36 692.629 387.67 692.749 388.63C692.749 388.07 692.859 387.5 692.889 386.96C693.009 384.96 692.999 383.09 692.979 381.45C692.979 380.52 692.979 379.68 692.889 378.89C692.149 378.31 689.209 375.89 688.359 374.32C687.509 372.75 686.919 370.5 687.719 368.8C687.894 368.392 688.152 368.026 688.478 367.726C688.803 367.425 689.189 367.196 689.609 367.055C690.029 366.913 690.474 366.862 690.915 366.904C691.356 366.946 691.784 367.081 692.169 367.3C694.459 368.67 694.779 373.48 694.239 375.8C694.189 376 693.099 379.05 693.059 379.02C693.119 379.773 693.169 380.593 693.209 381.48C693.209 383.12 693.309 384.98 693.209 387C693.143 389.186 692.949 391.366 692.629 393.53C692.288 395.952 691.729 398.338 690.959 400.66V400.74C691.419 400.11 692.769 398.38 692.889 398.26C694.559 396.56 698.789 394.26 701.169 395.46C701.557 395.668 701.897 395.956 702.168 396.304C702.438 396.652 702.633 397.052 702.739 397.48C702.846 397.907 702.861 398.352 702.786 398.786C702.71 399.22 702.544 399.634 702.299 400C701.289 401.55 699.069 402.23 697.299 402.37Z" fill="#58A67E"/>
<path d="M652.42 386.91C652.42 386.91 651.77 383.75 651.75 383.55C651.58 381.17 652.63 376.47 655.11 375.47C655.525 375.314 655.967 375.247 656.409 375.274C656.851 375.301 657.282 375.421 657.675 375.626C658.067 375.83 658.412 376.116 658.687 376.463C658.962 376.81 659.161 377.211 659.27 377.64C659.8 379.45 658.85 381.57 657.79 383C656.54 384.68 652.42 386.91 652.42 386.91Z" fill="#58A67E"/>
<path d="M512.25 410.19C513.623 410.46 515.028 410.524 516.42 410.38C516.42 410.38 515.67 408.5 515.6 408.38C514.87 407.07 512.69 404.98 511.05 405.31C510.78 405.375 510.527 405.495 510.306 405.663C510.085 405.831 509.902 406.043 509.767 406.286C509.633 406.528 509.55 406.796 509.525 407.072C509.5 407.349 509.532 407.627 509.62 407.89C509.865 408.442 510.227 408.933 510.681 409.33C511.136 409.728 511.671 410.021 512.25 410.19Z" fill="#58A67E"/>
<path d="M513.81 418.62C515.18 418.522 516.529 418.218 517.81 417.72C518.33 419.193 518.955 420.627 519.68 422.01C520.09 422.83 520.53 423.63 520.99 424.43L520.45 423.76C519.45 422.69 516.75 421.25 515.25 422C515.006 422.134 514.792 422.316 514.623 422.537C514.454 422.757 514.332 423.011 514.267 423.281C514.201 423.551 514.192 423.832 514.241 424.105C514.289 424.379 514.394 424.64 514.55 424.87C514.933 425.336 515.414 425.712 515.958 425.973C516.502 426.234 517.096 426.373 517.7 426.38C519.043 426.296 520.365 426.006 521.62 425.52L522.14 426.44C523 427.9 523.86 429.35 524.66 430.8C524.94 431.32 525.2 431.8 525.46 432.34L525 431.76C524 430.7 521.29 429.26 519.8 430.01C519.556 430.144 519.342 430.326 519.173 430.547C519.004 430.767 518.882 431.021 518.817 431.291C518.751 431.561 518.742 431.842 518.791 432.115C518.839 432.389 518.944 432.65 519.1 432.88C519.483 433.343 519.963 433.717 520.505 433.978C521.047 434.239 521.638 434.379 522.24 434.39C523.548 434.309 524.836 434.029 526.06 433.56C526.31 434.1 526.56 434.63 526.78 435.16C526.92 435.52 527.09 435.86 527.21 436.24C527.33 436.62 527.46 436.97 527.59 437.33C527.81 438.03 528.04 438.76 528.23 439.45C528.37 439.93 528.49 440.39 528.62 440.85C528.34 440.34 527.78 439.35 527.73 439.27C526.85 438.06 524.45 436.27 522.85 436.75C522.59 436.846 522.354 436.995 522.155 437.186C521.956 437.378 521.799 437.609 521.693 437.865C521.588 438.12 521.537 438.395 521.543 438.671C521.549 438.948 521.613 439.22 521.73 439.47C522.032 439.995 522.448 440.447 522.946 440.793C523.443 441.139 524.012 441.37 524.61 441.47C525.982 441.588 527.364 441.497 528.71 441.2C528.91 441.96 529.11 442.71 529.28 443.42L529.7 445.23L530.7 445.17L530.19 443.17C529.98 442.39 529.75 441.56 529.5 440.71C530.26 440.348 530.998 439.94 531.71 439.49C532.773 440.288 533.941 440.937 535.18 441.42C534.93 442.18 534.68 442.91 534.43 443.59C534.26 444.06 534.1 444.51 533.93 444.95L535.04 444.88C535.15 444.56 535.26 444.25 535.37 443.88C535.63 443.11 535.89 442.29 536.15 441.45C537.512 441.656 538.897 441.656 540.26 441.45C540.847 441.322 541.399 441.065 541.876 440.698C542.353 440.332 542.744 439.865 543.02 439.33C543.125 439.073 543.176 438.797 543.169 438.52C543.161 438.242 543.096 437.969 542.978 437.718C542.859 437.466 542.69 437.243 542.48 437.061C542.27 436.879 542.025 436.742 541.76 436.66C540.14 436.23 537.83 438.19 537.02 439.45C537.02 439.52 536.55 440.39 536.29 440.93C536.39 440.59 536.5 440.25 536.6 439.93C536.81 439.22 537 438.51 537.2 437.75C537.29 437.37 537.37 437 537.46 436.62C537.55 436.24 537.61 435.84 537.68 435.44C537.84 434.52 537.96 433.58 538.05 432.64C539.322 433.054 540.651 433.27 541.99 433.28C542.581 433.231 543.154 433.055 543.672 432.766C544.189 432.476 544.639 432.078 544.99 431.6C545.132 431.362 545.224 431.096 545.258 430.82C545.293 430.544 545.269 430.264 545.189 429.998C545.109 429.731 544.974 429.485 544.794 429.273C544.613 429.062 544.39 428.891 544.14 428.77C542.61 428.1 540.04 429.69 539.04 430.77C538.98 430.84 538.36 431.72 538.04 432.21C538.09 431.64 538.15 431.08 538.18 430.5C538.28 428.83 538.33 427.13 538.39 425.44C538.39 424.92 538.39 424.44 538.45 423.89C539.764 424.322 541.136 424.552 542.52 424.57C543.133 424.56 543.736 424.413 544.286 424.142C544.836 423.871 545.318 423.481 545.7 423C545.841 422.762 545.931 422.497 545.964 422.222C545.998 421.947 545.974 421.669 545.894 421.404C545.814 421.139 545.68 420.893 545.5 420.682C545.32 420.472 545.099 420.301 544.85 420.18C543.32 419.51 540.75 421.09 539.76 422.18C539.68 422.27 538.76 423.54 538.58 423.88C538.58 422.74 538.68 421.61 538.79 420.49C538.911 418.986 539.138 417.492 539.47 416.02C540.791 416.452 542.17 416.681 543.56 416.7C544.16 416.661 544.745 416.491 545.274 416.203C545.802 415.915 546.262 415.514 546.62 415.03C546.762 414.792 546.854 414.526 546.888 414.25C546.923 413.974 546.899 413.694 546.819 413.428C546.739 413.161 546.604 412.915 546.424 412.703C546.243 412.492 546.02 412.321 545.77 412.2C544.23 411.53 541.66 413.11 540.67 414.2C540.59 414.28 539.67 415.65 539.48 415.92C539.48 415.83 539.48 415.74 539.48 415.65C539.856 414.19 540.365 412.768 541 411.4C541.33 410.63 541.69 409.92 542.06 409.23C543.295 409.796 544.611 410.167 545.96 410.33C546.561 410.354 547.161 410.246 547.717 410.015C548.273 409.784 548.772 409.434 549.18 408.99C549.347 408.769 549.466 408.516 549.53 408.246C549.595 407.976 549.602 407.696 549.552 407.424C549.502 407.151 549.396 406.892 549.241 406.662C549.086 406.433 548.884 406.238 548.65 406.09C547.2 405.26 544.47 406.55 543.36 407.56C543.3 407.61 542.75 408.23 542.36 408.69C542.53 408.38 542.7 408.06 542.87 407.77C543.5 406.67 544.15 405.71 544.73 404.85C545.06 404.37 545.37 403.94 545.67 403.55C547.037 403.479 548.386 403.199 549.67 402.72C550.215 402.465 550.697 402.094 551.084 401.632C551.471 401.171 551.753 400.631 551.91 400.05C551.956 399.777 551.946 399.496 551.878 399.227C551.811 398.958 551.688 398.706 551.517 398.487C551.347 398.268 551.133 398.086 550.889 397.954C550.645 397.822 550.376 397.743 550.1 397.72C548.43 397.65 546.6 400.06 546.1 401.46C546.1 401.58 545.57 403.56 545.6 403.56L544.67 404.8C544.07 405.64 543.4 406.6 542.75 407.69C542.007 408.85 541.339 410.056 540.75 411.3C540.092 412.687 539.56 414.129 539.16 415.61V415.67C539.16 415.18 539.03 413.81 539.01 413.67C538.72 412.21 537.31 409.54 535.64 409.34C535.364 409.318 535.086 409.353 534.825 409.444C534.564 409.535 534.324 409.678 534.121 409.866C533.918 410.054 533.756 410.282 533.646 410.536C533.535 410.79 533.479 411.064 533.48 411.34C533.542 411.94 533.734 412.52 534.043 413.038C534.353 413.556 534.771 414 535.27 414.34C536.474 415.023 537.776 415.518 539.13 415.81C538.758 417.331 538.488 418.874 538.32 420.43C538.22 421.33 538.14 422.24 538.08 423.16C538.08 422.74 538.01 422.36 538 422.31C537.72 420.84 536.3 418.17 534.63 417.97C534.354 417.948 534.076 417.983 533.815 418.074C533.554 418.165 533.314 418.308 533.111 418.496C532.908 418.684 532.746 418.912 532.636 419.166C532.525 419.42 532.469 419.694 532.47 419.97C532.533 420.57 532.725 421.149 533.034 421.667C533.343 422.185 533.762 422.63 534.26 422.97C535.425 423.64 536.686 424.125 538 424.41L537.94 425.47C537.85 427.16 537.76 428.84 537.63 430.47C537.63 431.05 537.51 431.62 537.45 432.19C537.45 431.82 537.39 431.5 537.38 431.45C537.09 429.98 535.67 427.32 534.01 427.12C533.734 427.098 533.456 427.133 533.195 427.224C532.934 427.315 532.694 427.458 532.491 427.646C532.288 427.834 532.126 428.062 532.016 428.316C531.905 428.57 531.849 428.844 531.85 429.12C531.912 429.72 532.104 430.3 532.413 430.818C532.723 431.336 533.141 431.78 533.64 432.12C534.768 432.78 535.993 433.259 537.27 433.54C537.19 434.12 537.1 434.71 536.99 435.27C536.91 435.65 536.86 436.02 536.75 436.4C536.64 436.78 536.56 437.16 536.47 437.53C536.26 438.23 536.05 438.96 535.84 439.65L535.39 441.03C535.39 440.45 535.52 439.31 535.52 439.22C535.415 437.909 534.978 436.646 534.25 435.55C534.239 435.402 534.219 435.255 534.19 435.11C534.134 434.838 534.023 434.58 533.863 434.354C533.703 434.127 533.497 433.936 533.259 433.793C533.021 433.65 532.756 433.558 532.481 433.523C532.205 433.488 531.926 433.511 531.66 433.59C530.07 434.12 529.23 437.03 529.25 438.52C529.25 438.61 529.37 439.57 529.46 440.17C529.35 439.82 529.26 439.48 529.15 439.17C528.93 438.47 528.69 437.77 528.44 437.02L528 436C527.87 435.63 527.69 435.26 527.53 434.89C527.16 434.04 526.74 433.19 526.29 432.35C527.58 431.994 528.808 431.441 529.93 430.71C530.409 430.347 530.803 429.883 531.083 429.351C531.363 428.818 531.522 428.231 531.55 427.63C531.537 427.354 531.467 427.083 531.343 426.834C531.22 426.586 531.047 426.366 530.835 426.189C530.622 426.011 530.375 425.879 530.109 425.802C529.843 425.725 529.564 425.704 529.29 425.74C527.64 426.03 526.36 428.74 526.16 430.25C526.16 430.34 526.11 431.42 526.11 432.01C525.84 431.51 525.57 431.01 525.28 430.5C524.44 429.05 523.55 427.61 522.66 426.17L521.85 424.85C523.186 424.481 524.46 423.914 525.63 423.17C526.107 422.803 526.499 422.337 526.779 421.803C527.059 421.27 527.219 420.682 527.25 420.08C527.235 419.803 527.164 419.533 527.04 419.285C526.916 419.037 526.741 418.818 526.528 418.641C526.314 418.465 526.067 418.334 525.8 418.258C525.533 418.182 525.254 418.162 524.98 418.2C523.33 418.48 522.06 421.2 521.85 422.71C521.85 422.82 521.85 424.37 521.85 424.77C521.26 423.77 520.68 422.77 520.15 421.83C519.427 420.503 518.792 419.131 518.25 417.72C519.578 417.337 520.842 416.757 522 416C522.478 415.634 522.871 415.168 523.151 414.634C523.431 414.101 523.591 413.512 523.62 412.91C523.607 412.634 523.537 412.363 523.413 412.114C523.29 411.866 523.117 411.646 522.905 411.469C522.692 411.291 522.445 411.159 522.179 411.082C521.913 411.005 521.634 410.984 521.36 411.02C519.71 411.31 518.44 414.02 518.23 415.53C518.23 415.65 518.17 417.32 518.23 417.63C518.23 417.54 518.16 417.46 518.13 417.38C517.626 415.956 517.248 414.49 517 413C516.85 412.18 516.76 411.38 516.68 410.61C518.024 410.393 519.329 409.975 520.55 409.37C521.073 409.063 521.523 408.645 521.868 408.146C522.213 407.647 522.446 407.078 522.55 406.48C522.568 406.203 522.528 405.924 522.432 405.663C522.337 405.402 522.188 405.163 521.995 404.963C521.802 404.762 521.569 404.604 521.312 404.499C521.054 404.393 520.778 404.343 520.5 404.35C518.83 404.46 517.26 407.04 516.9 408.49C516.9 408.57 516.76 409.39 516.68 410C516.68 409.65 516.62 409.28 516.6 408.95C516.52 407.68 516.53 406.52 516.54 405.49C516.54 404.9 516.54 404.37 516.6 403.88C517.689 403.076 518.647 402.108 519.44 401.01C519.755 400.498 519.955 399.923 520.024 399.325C520.093 398.727 520.03 398.121 519.84 397.55C519.727 397.297 519.563 397.071 519.359 396.884C519.154 396.698 518.913 396.556 518.651 396.468C518.389 396.38 518.111 396.347 517.835 396.371C517.56 396.396 517.292 396.477 517.05 396.61C515.61 397.47 515.41 400.48 515.75 401.94C515.75 402.07 516.47 403.94 516.49 403.94C516.49 404.42 516.43 404.94 516.4 405.49C516.4 406.49 516.34 407.68 516.4 408.95C516.438 410.323 516.558 411.692 516.76 413.05C516.957 414.567 517.292 416.064 517.76 417.52C517.76 417.52 517.76 417.52 517.76 417.57C517.47 417.18 516.62 416.1 516.55 416.02C515.5 414.96 512.84 413.51 511.35 414.26C511.106 414.394 510.892 414.576 510.723 414.797C510.554 415.017 510.432 415.271 510.367 415.541C510.301 415.811 510.292 416.092 510.341 416.365C510.389 416.639 510.494 416.9 510.65 417.13C511.036 417.594 511.519 417.968 512.065 418.225C512.611 418.482 513.206 418.617 513.81 418.62Z" fill="#58A67E"/>
<path d="M542 408.92C542 408.92 542.41 406.92 542.42 406.81C542.53 405.32 541.86 402.37 540.31 401.74C540.049 401.646 539.772 401.608 539.495 401.627C539.219 401.646 538.949 401.722 538.704 401.851C538.458 401.98 538.242 402.158 538.07 402.375C537.897 402.592 537.771 402.842 537.7 403.11C537.599 403.702 537.63 404.31 537.79 404.889C537.951 405.468 538.238 406.005 538.63 406.46C539.624 407.444 540.76 408.273 542 408.92Z" fill="#58A67E"/>
<path d="M315.4 388.929C313.4 389.639 308.76 389.239 308.76 389.239C308.76 389.239 309.96 386.239 310.06 386.059C311.23 383.979 314.7 380.639 317.32 381.169C317.752 381.27 318.158 381.46 318.512 381.727C318.866 381.995 319.16 382.334 319.374 382.723C319.588 383.112 319.718 383.541 319.755 383.983C319.792 384.425 319.736 384.871 319.59 385.289C319 387.089 317.07 388.319 315.4 388.929Z" fill="#58A67E"/>
<path d="M312.91 402.37C310.91 402.53 306.82 401.05 306.49 400.94C305.644 403.284 304.642 405.569 303.49 407.78C302.83 409.07 302.12 410.35 301.4 411.62L302.25 410.56C303.93 408.86 308.16 406.56 310.54 407.76C310.931 407.97 311.273 408.26 311.544 408.611C311.815 408.962 312.01 409.366 312.114 409.797C312.219 410.228 312.232 410.677 312.152 411.113C312.072 411.549 311.901 411.964 311.65 412.33C310.65 413.92 308.42 414.59 306.65 414.73C304.88 414.87 301.34 413.73 300.41 413.36L299.57 414.82C298.2 417.15 296.83 419.47 295.57 421.82C295.12 422.64 294.71 423.46 294.29 424.28C294.66 423.8 294.98 423.41 295.03 423.35C296.7 421.65 300.93 419.35 303.32 420.55C303.711 420.76 304.053 421.05 304.324 421.401C304.595 421.752 304.79 422.156 304.894 422.587C304.999 423.018 305.012 423.467 304.932 423.903C304.852 424.339 304.681 424.754 304.43 425.12C303.43 426.71 301.19 427.39 299.43 427.53C297.67 427.67 294.43 426.6 293.35 426.21C292.95 427.07 292.55 427.92 292.2 428.76C291.97 429.34 291.71 429.88 291.52 430.48L290.91 432.22C290.56 433.34 290.2 434.5 289.91 435.6C289.69 436.36 289.49 437.1 289.29 437.83C289.73 437.02 290.62 435.43 290.71 435.31C292.1 433.38 295.94 430.47 298.48 431.31C298.898 431.458 299.281 431.693 299.602 431.999C299.923 432.305 300.176 432.676 300.344 433.086C300.512 433.497 300.591 433.939 300.577 434.382C300.562 434.826 300.454 435.261 300.26 435.66C299.5 437.38 297.41 438.39 295.68 438.8C293.77 439.25 289.68 438.46 289.15 438.36C288.82 439.58 288.52 440.77 288.24 441.9C287.96 443.03 287.78 443.9 287.57 444.79L285.9 444.68C286.15 443.68 286.41 442.62 286.71 441.51C287.01 440.4 287.41 438.95 287.81 437.59C286.597 437.012 285.418 436.364 284.28 435.65C282.82 437.04 279.22 438.54 278.75 438.73C279.15 439.93 279.55 441.09 279.95 442.18C280.22 442.94 280.48 443.66 280.74 444.35L278.98 444.23C278.8 443.74 278.63 443.23 278.45 442.7C278.04 441.49 277.62 440.18 277.21 438.83C276.7 438.9 272.55 439.47 270.67 438.92C268.96 438.42 266.92 437.3 266.26 435.54C266.088 435.132 266.004 434.692 266.014 434.249C266.023 433.806 266.125 433.37 266.314 432.97C266.502 432.569 266.773 432.212 267.108 431.923C267.444 431.633 267.836 431.418 268.26 431.29C270.84 430.61 274.51 433.72 275.8 435.73C275.87 435.84 276.55 437.22 276.97 438.1L276.47 436.44C276.14 435.32 275.84 434.18 275.52 432.97L275.1 431.17C274.95 430.57 274.87 429.92 274.75 429.29C274.49 427.83 274.31 426.29 274.16 424.82C273.16 425.11 269.66 426.09 267.89 425.82C266.12 425.55 263.94 424.82 263.02 423.14C262.788 422.762 262.639 422.339 262.581 421.899C262.524 421.459 262.561 421.012 262.688 420.588C262.815 420.163 263.031 419.77 263.321 419.434C263.611 419.098 263.968 418.828 264.37 418.64C266.82 417.57 270.92 420.1 272.5 421.88C272.6 421.99 273.58 423.4 274.11 424.19C274.03 423.28 273.94 422.37 273.89 421.45C273.73 418.79 273.65 416.09 273.56 413.39C273.56 412.57 273.5 411.75 273.47 410.92C273.12 411.03 268.97 412.28 266.98 412.01C265.22 411.77 262.98 411.01 262.11 409.34C261.878 408.961 261.728 408.537 261.671 408.097C261.614 407.656 261.65 407.209 261.777 406.783C261.905 406.358 262.121 405.964 262.41 405.627C262.7 405.291 263.058 405.019 263.46 404.83C265.91 403.76 270.01 406.29 271.59 408.08C271.71 408.21 273.12 410.24 273.46 410.77C273.39 408.96 273.3 407.16 273.13 405.38C272.924 402.982 272.563 400.601 272.05 398.25C271.89 398.25 267.56 399.62 265.53 399.34C263.76 399.11 261.58 398.34 260.66 396.67C260.428 396.292 260.279 395.869 260.221 395.429C260.164 394.989 260.201 394.542 260.328 394.118C260.455 393.693 260.671 393.3 260.961 392.964C261.251 392.628 261.608 392.358 262.01 392.17C264.46 391.1 268.56 393.62 270.13 395.41C270.26 395.55 271.78 397.73 272.03 398.15C272.03 398.01 272.03 397.87 271.95 397.73C271.369 395.387 270.579 393.101 269.59 390.9C269.06 389.67 268.49 388.53 267.91 387.43C267.12 387.76 263.54 389.23 261.68 389.18C259.82 389.13 257.68 388.59 256.55 387.06C256.278 386.709 256.083 386.304 255.978 385.872C255.873 385.441 255.861 384.992 255.941 384.555C256.021 384.118 256.192 383.703 256.444 383.337C256.695 382.971 257.021 382.662 257.4 382.43C259.71 381.1 264.07 383.16 265.83 384.76C265.93 384.85 266.83 385.85 267.43 386.58C267.16 386.09 266.89 385.58 266.62 385.11C265.62 383.36 264.62 381.82 263.62 380.46C263.09 379.7 262.62 379.01 262.13 378.38C261.19 378.3 257.43 377.94 255.83 377.06C254.23 376.18 252.52 374.68 252.25 372.81C252.173 372.373 252.189 371.926 252.296 371.496C252.403 371.066 252.599 370.663 252.871 370.313C253.144 369.964 253.486 369.675 253.877 369.466C254.268 369.257 254.698 369.132 255.14 369.1C257.81 368.99 260.72 372.82 261.55 375.05C261.62 375.25 262.39 378.4 262.34 378.39H262.29C262.75 378.99 263.24 379.64 263.76 380.39C264.76 381.73 265.76 383.25 266.83 384.99C267.982 386.847 269.024 388.77 269.95 390.75C270.997 392.961 271.847 395.26 272.49 397.62C272.484 397.646 272.484 397.673 272.49 397.7C272.49 396.92 272.7 394.7 272.73 394.58C273.19 392.24 275.45 387.99 278.1 387.67C278.542 387.629 278.987 387.682 279.407 387.825C279.826 387.968 280.211 388.198 280.536 388.5C280.861 388.802 281.118 389.169 281.291 389.578C281.464 389.986 281.549 390.426 281.54 390.87C281.54 392.75 280.1 394.54 278.69 395.64C277.11 396.88 272.88 397.9 272.55 397.99C273.141 400.405 273.569 402.857 273.83 405.33C274 406.78 274.11 408.23 274.21 409.7C274.27 409.02 274.32 408.42 274.34 408.34C274.8 406 277.05 401.74 279.71 401.43C280.152 401.389 280.597 401.442 281.017 401.585C281.436 401.728 281.821 401.958 282.146 402.26C282.471 402.562 282.728 402.929 282.901 403.338C283.074 403.746 283.159 404.186 283.15 404.63C283.15 406.51 281.7 408.3 280.3 409.4C278.9 410.5 275.3 411.46 274.3 411.7C274.3 412.26 274.37 412.82 274.4 413.38C274.55 416.08 274.68 418.77 274.9 421.38C274.97 422.31 275.08 423.22 275.18 424.13C275.23 423.53 275.28 423.03 275.29 422.95C275.75 420.61 278.01 416.36 280.66 416.04C281.101 416.001 281.546 416.054 281.965 416.198C282.384 416.342 282.768 416.572 283.093 416.874C283.417 417.175 283.674 417.542 283.848 417.95C284.021 418.357 284.107 418.797 284.1 419.24C284.1 421.13 282.66 422.92 281.26 424.01C279.86 425.1 276.59 426.01 275.46 426.27C275.6 427.2 275.73 428.13 275.9 429.03C276.04 429.64 276.12 430.23 276.29 430.84L276.74 432.63C277.07 433.75 277.4 434.92 277.74 436.01C277.98 436.77 278.22 437.49 278.46 438.21C278.37 437.29 278.24 435.48 278.25 435.33C278.403 433.24 279.092 431.226 280.25 429.48C280.26 429.244 280.29 429.01 280.34 428.78C280.425 428.348 280.599 427.939 280.851 427.578C281.104 427.217 281.428 426.913 281.805 426.685C282.181 426.458 282.602 426.311 283.038 426.255C283.475 426.199 283.918 426.235 284.34 426.36C286.87 427.21 288.21 431.83 288.18 434.21C288.18 434.36 287.99 435.88 287.85 436.84C288.02 436.29 288.17 435.75 288.35 435.18C288.69 434.06 289.07 432.95 289.47 431.76C289.68 431.19 289.9 430.61 290.12 430.03C290.34 429.45 290.61 428.86 290.85 428.27C291.45 426.91 292.13 425.56 292.85 424.22C291.85 423.92 288.4 422.79 287.06 421.61C285.72 420.43 284.34 418.61 284.47 416.69C284.486 416.247 284.596 415.813 284.791 415.415C284.987 415.018 285.264 414.666 285.605 414.383C285.945 414.1 286.342 413.892 286.768 413.772C287.195 413.653 287.642 413.625 288.08 413.69C290.71 414.14 292.74 418.51 293.08 420.87C293.08 421.02 293.15 422.74 293.16 423.69C293.59 422.88 294.02 422.08 294.48 421.28C295.82 418.97 297.24 416.67 298.65 414.38C299.09 413.68 299.51 412.97 299.93 412.27C299.58 412.16 295.43 410.91 293.93 409.59C292.59 408.42 291.21 406.59 291.35 404.68C291.368 404.238 291.478 403.804 291.674 403.408C291.87 403.011 292.147 402.66 292.488 402.377C292.828 402.094 293.224 401.886 293.65 401.766C294.076 401.646 294.522 401.616 294.96 401.68C297.59 402.14 299.62 406.5 299.96 408.86C299.96 409.04 300.05 411.52 300.03 412.15C300.97 410.6 301.89 409.04 302.73 407.47C303.872 405.354 304.874 403.166 305.73 400.92C305.56 400.87 301.22 399.59 299.68 398.24C298.34 397.07 296.96 395.24 297.09 393.32C297.109 392.877 297.221 392.444 297.418 392.047C297.615 391.65 297.893 391.299 298.234 391.017C298.575 390.734 298.972 390.526 299.398 390.406C299.825 390.286 300.272 390.257 300.71 390.32C303.34 390.78 305.36 395.15 305.71 397.51C305.71 397.69 305.81 400.36 305.78 400.84C305.83 400.71 305.9 400.58 305.95 400.45C306.754 398.174 307.356 395.831 307.75 393.45C307.99 392.13 308.14 390.87 308.25 389.63C307.42 389.47 303.62 388.71 302.1 387.63C300.58 386.55 299.1 384.91 298.99 383.03C298.957 382.587 299.018 382.143 299.169 381.726C299.319 381.308 299.556 380.927 299.864 380.608C300.171 380.288 300.543 380.036 300.954 379.87C301.365 379.703 301.807 379.625 302.25 379.64C304.91 379.81 307.41 383.93 308 386.24C308 386.36 308.21 387.67 308.33 388.63C308.38 388.07 308.43 387.5 308.47 386.96C308.59 384.96 308.58 383.09 308.56 381.45C308.56 380.52 308.51 379.68 308.46 378.89C307.73 378.31 304.79 375.89 303.94 374.32C303.09 372.75 302.5 370.5 303.3 368.8C303.474 368.392 303.733 368.026 304.058 367.726C304.384 367.425 304.77 367.196 305.19 367.055C305.61 366.913 306.055 366.862 306.496 366.904C306.937 366.946 307.364 367.081 307.75 367.3C310.04 368.67 310.36 373.48 309.81 375.8C309.81 376 308.67 379.05 308.63 379.02C308.69 379.77 308.74 380.59 308.77 381.48C308.83 383.12 308.88 384.98 308.77 387C308.704 389.186 308.51 391.366 308.19 393.53C307.849 395.952 307.29 398.338 306.52 400.66C306.514 400.686 306.514 400.713 306.52 400.74C306.98 400.11 308.33 398.38 308.45 398.26C310.12 396.56 314.35 394.26 316.73 395.46C317.121 395.67 317.463 395.96 317.734 396.311C318.005 396.662 318.2 397.066 318.304 397.497C318.409 397.928 318.422 398.377 318.342 398.813C318.262 399.249 318.091 399.664 317.84 400.03C316.91 401.55 314.69 402.23 312.91 402.37Z" fill="#58A67E"/>
<path d="M268 386.91C267.95 386.91 267.34 383.75 267.33 383.55C267.15 381.17 268.21 376.47 270.68 375.47C271.095 375.313 271.539 375.245 271.982 375.271C272.425 375.297 272.857 375.416 273.251 375.621C273.645 375.826 273.991 376.112 274.266 376.46C274.542 376.808 274.741 377.21 274.85 377.64C275.38 379.45 274.43 381.57 273.36 383C272.16 384.68 268 386.91 268 386.91Z" fill="#58A67E"/>
<path d="M672.39 251.76C672.396 239.702 669.499 227.821 663.941 217.121C658.384 206.42 650.331 197.216 640.463 190.288C630.596 183.359 619.204 178.909 607.253 177.315C595.301 175.721 583.142 177.03 571.803 181.13C560.464 185.231 550.28 192.002 542.113 200.872C533.946 209.742 528.035 220.448 524.882 232.086C521.729 243.724 521.425 255.95 523.998 267.729C526.57 279.509 531.942 290.496 539.659 299.76C550.713 313.02 556.764 329.737 556.76 347V357.28H637.9V347C637.893 329.755 643.945 313.056 654.999 299.82C666.264 286.341 672.421 269.326 672.39 251.76Z" fill="white" stroke="#123022" stroke-linejoin="round"/>
<path d="M637.91 357.31H556.76V377.38H637.91V357.31Z" fill="white" stroke="#123022" stroke-linecap="round" stroke-linejoin="round"/>
<path d="M556.76 377.43H637.9V392.78C637.9 394.034 637.402 395.237 636.515 396.124C635.628 397.011 634.425 397.51 633.17 397.51H561.47C560.216 397.51 559.013 397.011 558.126 396.124C557.239 395.237 556.74 394.034 556.74 392.78V377.43H556.76Z" fill="white" stroke="#123022" stroke-linecap="round" stroke-linejoin="round"/>
<path d="M620.84 417.56H573.84C572.384 417.558 570.966 417.092 569.794 416.229C568.621 415.365 567.754 414.15 567.32 412.76C566.74 410.716 566.029 408.712 565.19 406.76L560.95 397.49H633.75L629.51 406.76C628.672 408.712 627.96 410.716 627.38 412.76C626.945 414.153 626.075 415.371 624.899 416.234C623.722 417.098 622.3 417.563 620.84 417.56Z" fill="#123022" stroke="#123022" stroke-miterlimit="10"/>
<path d="M644.038 299.12C669.844 273.314 669.844 231.475 644.038 205.669C618.232 179.863 576.393 179.863 550.587 205.669C524.781 231.475 524.781 273.314 550.587 299.12C576.393 324.926 618.232 324.926 644.038 299.12Z" fill="#58A67E"/>
<path opacity="0.65" d="M623.527 273.774C635.352 259.286 633.192 237.956 618.705 226.132C604.217 214.308 582.887 216.467 571.063 230.954C559.239 245.442 561.398 266.772 575.885 278.596C590.373 290.42 611.703 288.261 623.527 273.774Z" fill="white"/>
<path d="M588.479 357.18C588.479 357.18 585.619 263.46 579.249 250.38C572.879 237.3 567.959 251.26 573.699 269.32C579.439 287.38 597.509 284.1 601.619 264.4C605.729 244.7 599.159 234.02 595.869 250.4C592.579 266.78 599.509 288.05 611.239 279.49C622.969 270.93 639.389 238.08 627.069 243.83C614.749 249.58 600.799 305.41 609.829 357.14" stroke="#123022" stroke-linecap="round" stroke-linejoin="round"/>
<path d="M200.571 258.08L215.751 209.9C215.751 209.9 214.661 207.33 205.851 205.13C197.041 202.93 193.181 208.8 188.231 210.45C183.281 212.1 177.051 202.45 170.611 202.2C158.611 201.76 155.751 206.6 148.041 209.9C140.331 213.2 140.331 206.6 132.041 203.85C123.751 201.1 116.041 210.45 116.041 210.45L137.361 255.68C100.911 268.35 74.6006 304.68 74.6006 347.47C74.6006 400.83 115.461 444.08 165.861 444.08C216.261 444.08 257.121 400.83 257.121 347.47C257.191 307.1 233.791 272.52 200.571 258.08Z" fill="white" stroke="#123022" stroke-linejoin="round"/>
<path d="M146.531 249.79L139.771 239.51" stroke="#123022" stroke-miterlimit="10"/>
<path d="M190.34 235.47L186.29 250.34" stroke="#123022" stroke-miterlimit="10"/>
<path d="M148.41 235.81L147.9 231.42" stroke="#123022" stroke-miterlimit="10"/>
<path d="M150.09 250.34L148.83 239.45" stroke="#123022" stroke-miterlimit="10"/>
<path d="M197.61 232.3L199.18 228.95" stroke="#123022" stroke-miterlimit="10"/>
<path d="M189.301 250.07L196.111 235.51" stroke="#123022" stroke-miterlimit="10"/>
<path d="M206.52 312.61C205.592 312.609 204.7 312.256 204.023 311.62C203.347 310.985 202.938 310.116 202.88 309.19C201 278.56 181.22 258.47 181 258.28C180.314 257.596 179.929 256.667 179.928 255.699C179.927 254.73 180.311 253.801 180.995 253.115C181.679 252.43 182.608 252.044 183.576 252.043C184.545 252.042 185.474 252.426 186.16 253.11C187.05 254.01 208.06 275.38 210.16 308.73C210.191 309.208 210.128 309.688 209.973 310.142C209.818 310.595 209.576 311.014 209.259 311.373C208.942 311.733 208.557 312.026 208.127 312.237C207.696 312.447 207.228 312.571 206.75 312.6L206.52 312.61Z" fill="white" stroke="#123022" stroke-linejoin="round"/>
<path d="M225.321 305.39C224.425 305.628 223.471 305.515 222.656 305.075C221.84 304.635 221.223 303.899 220.931 303.02C211.201 273.91 186.931 259.58 186.711 259.44C186.277 259.21 185.894 258.895 185.584 258.513C185.275 258.132 185.046 257.692 184.911 257.22C184.775 256.747 184.737 256.253 184.797 255.765C184.858 255.278 185.016 254.808 185.262 254.383C185.509 253.958 185.838 253.588 186.231 253.293C186.624 252.999 187.073 252.787 187.55 252.67C188.027 252.553 188.522 252.533 189.007 252.612C189.492 252.691 189.955 252.867 190.371 253.13C191.461 253.76 217.261 269.01 227.851 300.71C228.003 301.163 228.064 301.643 228.03 302.12C227.997 302.597 227.87 303.063 227.656 303.492C227.443 303.92 227.147 304.302 226.785 304.615C226.424 304.929 226.005 305.168 225.551 305.32L225.321 305.39Z" fill="white" stroke="#123022" stroke-linejoin="round"/>
<path d="M199.11 259.74H135.73C135.108 259.742 134.491 259.62 133.916 259.382C133.341 259.144 132.819 258.795 132.379 258.354C131.939 257.914 131.591 257.391 131.355 256.815C131.118 256.239 130.997 255.623 131 255C131 253.748 131.497 252.548 132.383 251.663C133.268 250.778 134.468 250.28 135.72 250.28H199.1C200.352 250.28 201.552 250.778 202.438 251.663C203.323 252.548 203.82 253.748 203.82 255C203.823 255.621 203.703 256.236 203.467 256.81C203.232 257.385 202.886 257.907 202.448 258.347C202.011 258.788 201.491 259.137 200.918 259.376C200.345 259.615 199.731 259.739 199.11 259.74Z" fill="white" stroke="#123022" stroke-linejoin="round"/>
<path d="M165.55 381V372.1C158.977 371.853 154.067 369.75 150.82 365.79C147.574 361.83 145.82 355.933 145.56 348.1L159.05 345.8C159.108 348.494 159.443 351.175 160.05 353.8C160.409 355.587 161.253 357.241 162.49 358.58C163.052 359.11 163.713 359.523 164.436 359.794C165.159 360.066 165.929 360.19 166.7 360.16C168.7 360.16 170.03 359.52 170.76 358.25C171.514 356.908 171.893 355.388 171.86 353.85C171.962 350.959 171.18 348.106 169.62 345.67C167.865 343.192 165.79 340.956 163.45 339.02L155.32 332.02C153.538 330.381 151.867 328.623 150.32 326.76C148.829 324.925 147.65 322.858 146.83 320.64C145.919 318.028 145.482 315.275 145.54 312.51C145.54 306.51 147.247 301.843 150.66 298.51C154.074 295.176 158.647 293.28 164.38 292.82V284.3H169V292.82C171.976 292.875 174.889 293.679 177.47 295.16C179.553 296.421 181.275 298.198 182.47 300.32C183.638 302.445 184.477 304.734 184.96 307.11C185.453 309.46 185.77 311.843 185.91 314.24L172.24 316.24C172.196 314.139 172.003 312.043 171.66 309.97C171.455 308.431 170.863 306.968 169.94 305.72C169.465 305.19 168.868 304.782 168.201 304.531C167.535 304.28 166.817 304.194 166.11 304.28C165.312 304.271 164.525 304.459 163.816 304.827C163.108 305.195 162.502 305.732 162.05 306.39C161.129 307.704 160.643 309.275 160.66 310.88C160.533 313.412 161.278 315.911 162.77 317.96C164.221 319.807 165.82 321.532 167.55 323.12L175.5 330C177.606 331.915 179.555 333.995 181.33 336.22C183.125 338.464 184.577 340.961 185.64 343.63C186.768 346.609 187.318 349.775 187.26 352.96C187.318 356.15 186.634 359.31 185.26 362.19C183.917 364.923 181.87 367.25 179.33 368.93C176.59 370.702 173.446 371.755 170.19 371.99V380.99L165.55 381Z" fill="#123022"/>
<path d="M215.2 417.149H115.04V444.469H215.2V417.149Z" fill="#58A67E" stroke="#123022" stroke-miterlimit="10"/>
<path d="M263.071 417.149H215.061V444.469H263.071V417.149Z" fill="#A3A3A3" stroke="#123022" stroke-linejoin="round"/>
<path d="M115.771 422.36H140.441" stroke="#123022" stroke-linejoin="round"/>
<path d="M129.92 428.86H150.6" stroke="#123022" stroke-linejoin="round"/>
<path d="M204.67 425.39H215.56H222.52" stroke="#123022" stroke-linejoin="round"/>
<path d="M115.771 436.67H124.481" stroke="#123022" stroke-linejoin="round"/>
<path d="M128.101 436.67H135.361" stroke="#123022" stroke-linejoin="round"/>
<path d="M215.561 434.5H177.091" stroke="#123022" stroke-linejoin="round"/>
<path d="M177.1 417.149H154.74V444.469H177.1V417.149Z" fill="white" stroke="#123022" stroke-linejoin="round"/>
<path d="M262.81 431.229H247.92" stroke="#123022" stroke-linejoin="round"/>
<path d="M215.07 439.56H226.11" stroke="#123022" stroke-linejoin="round"/>
<path d="M215.33 430.51H236.37" stroke="#123022" stroke-linejoin="round"/>
<path d="M262.81 425.8H242.79" stroke="#123022" stroke-linejoin="round"/>
<path d="M230.471 439.56H235.861" stroke="#123022" stroke-linejoin="round"/>
<path d="M207.671 390.32H107.511V417.64H207.671V390.32Z" fill="#58A67E" stroke="#123022" stroke-miterlimit="10"/>
<path d="M255.54 390.32H207.53V417.64H255.54V390.32Z" fill="#A3A3A3" stroke="#123022" stroke-linejoin="round"/>
<path d="M108.24 395.52H132.91" stroke="#123022" stroke-linejoin="round"/>
<path d="M122.391 402.02H143.071" stroke="#123022" stroke-linejoin="round"/>
<path d="M197.141 398.56H208.031H214.991" stroke="#123022" stroke-linejoin="round"/>
<path d="M108.24 409.83H116.95" stroke="#123022" stroke-linejoin="round"/>
<path d="M120.58 409.83H127.83" stroke="#123022" stroke-linejoin="round"/>
<path d="M208.031 407.66H169.561" stroke="#123022" stroke-linejoin="round"/>
<path d="M169.57 390.31H147.21V417.63H169.57V390.31Z" fill="white" stroke="#123022" stroke-linejoin="round"/>
<path d="M255.281 404.399H240.391" stroke="#123022" stroke-linejoin="round"/>
<path d="M207.551 412.72H218.581" stroke="#123022" stroke-linejoin="round"/>
<path d="M207.801 403.67H228.851" stroke="#123022" stroke-linejoin="round"/>
<path d="M255.281 398.97H235.261" stroke="#123022" stroke-linejoin="round"/>
<path d="M222.94 412.72H228.33" stroke="#123022" stroke-linejoin="round"/>
<path d="M215.7 363.479H115.54V390.799H215.7V363.479Z" fill="#58A67E" stroke="#123022" stroke-miterlimit="10"/>
<path d="M263.571 363.479H215.561V390.799H263.571V363.479Z" fill="#A3A3A3" stroke="#123022" stroke-linejoin="round"/>
<path d="M116.271 368.68H140.941" stroke="#123022" stroke-linejoin="round"/>
<path d="M130.42 375.189H151.1" stroke="#123022" stroke-linejoin="round"/>
<path d="M205.17 371.72H216.06H223.02" stroke="#123022" stroke-linejoin="round"/>
<path d="M116.271 382.99H124.981" stroke="#123022" stroke-linejoin="round"/>
<path d="M128.601 382.99H135.861" stroke="#123022" stroke-linejoin="round"/>
<path d="M216.061 380.82H177.591" stroke="#123022" stroke-linejoin="round"/>
<path d="M177.6 363.479H155.24V390.799H177.6V363.479Z" fill="white" stroke="#123022" stroke-linejoin="round"/>
<path d="M263.31 377.56H248.42" stroke="#123022" stroke-linejoin="round"/>
<path d="M215.57 385.89H226.61" stroke="#123022" stroke-linejoin="round"/>
<path d="M215.83 376.84H236.87" stroke="#123022" stroke-linejoin="round"/>
<path d="M263.31 372.13H243.29" stroke="#123022" stroke-linejoin="round"/>
<path d="M230.971 385.89H236.361" stroke="#123022" stroke-linejoin="round"/>
<path d="M256.78 386.93H132.38V444.48H256.78V386.93Z" fill="#CCCCCC" stroke="#123022" stroke-linejoin="round"/>
<path d="M245.12 387.229V411.229" stroke="#123022" stroke-linejoin="round"/>
<path d="M248.46 387.399V394.699" stroke="#123022" stroke-linejoin="round"/>
<path d="M247.46 444.32V422.58" stroke="#123022" stroke-linejoin="round"/>
<path d="M250.94 444.65V440.83" stroke="#123022" stroke-linejoin="round"/>
<path d="M254.261 444.48V433.7" stroke="#123022" stroke-linejoin="round"/>
<path d="M247.29 420.419V415.939" stroke="#123022" stroke-linejoin="round"/>
<path d="M248.29 396.53V399.18" stroke="#123022" stroke-linejoin="round"/>
<path d="M242.36 386.93H132.38V444.48H242.36V386.93Z" fill="#58A67E" stroke="#123022" stroke-linejoin="round"/>
<path d="M235.151 435.31V396.11C234.114 396.11 233.119 395.698 232.386 394.965C231.653 394.232 231.241 393.237 231.241 392.2H144.061C144.061 393.237 143.649 394.232 142.915 394.965C142.182 395.698 141.188 396.11 140.151 396.11C139.966 396.104 139.783 396.087 139.601 396.06V435.37C139.782 435.335 139.966 435.315 140.151 435.31C140.665 435.31 141.174 435.412 141.649 435.609C142.124 435.806 142.556 436.095 142.919 436.459C143.282 436.823 143.57 437.255 143.766 437.731C143.962 438.206 144.062 438.716 144.061 439.23H231.241C231.239 438.716 231.339 438.206 231.535 437.731C231.731 437.255 232.019 436.823 232.382 436.459C232.745 436.095 233.177 435.806 233.652 435.609C234.127 435.412 234.636 435.31 235.151 435.31ZM187.371 431.94C184.161 431.94 181.023 430.988 178.354 429.205C175.685 427.422 173.604 424.887 172.376 421.921C171.148 418.955 170.826 415.692 171.452 412.544C172.079 409.396 173.624 406.504 175.894 404.234C178.164 401.964 181.056 400.418 184.204 399.792C187.353 399.166 190.616 399.487 193.582 400.716C196.547 401.944 199.082 404.024 200.865 406.693C202.649 409.362 203.601 412.5 203.601 415.71C203.601 420.015 201.891 424.143 198.847 427.187C195.803 430.23 191.675 431.94 187.371 431.94Z" fill="white" stroke="#123022" stroke-linejoin="round"/>
<path d="M192.41 386.77H182.46V444.4H192.41V386.77Z" fill="white" stroke="#123022" stroke-linejoin="round"/>
<path d="M124.311 429.87H81.9707V444.47H124.311V429.87Z" fill="white" stroke="#123022" stroke-linejoin="round"/>
<path d="M92.7504 429.87H87.3604V444.47H92.7504V429.87Z" fill="#123022" stroke="#123022" stroke-linejoin="round"/>
<path d="M97.9607 429.87H95.2607V444.47H97.9607V429.87Z" fill="#123022" stroke="#123022" stroke-linejoin="round"/>
<path d="M127.84 415.229H85.5V429.829H127.84V415.229Z" fill="white" stroke="#123022" stroke-linejoin="round"/>
<path d="M96.2806 415.229H90.8906V429.829H96.2806V415.229Z" fill="#123022" stroke="#123022" stroke-linejoin="round"/>
<path d="M101.49 415.229H98.79V429.829H101.49V415.229Z" fill="#123022" stroke="#123022" stroke-linejoin="round"/>
<path d="M124.311 400.58H81.9707V415.18H124.311V400.58Z" fill="white" stroke="#123022" stroke-linejoin="round"/>
<path d="M92.7504 400.58H87.3604V415.18H92.7504V400.58Z" fill="#123022" stroke="#123022" stroke-linejoin="round"/>
<path d="M97.9607 400.58H95.2607V415.18H97.9607V400.58Z" fill="#123022" stroke="#123022" stroke-linejoin="round"/>
<path d="M122.21 385.939H79.8701V400.539H122.21V385.939Z" fill="white" stroke="#123022" stroke-linejoin="round"/>
<path d="M90.6605 385.939H85.2705V400.539H90.6605V385.939Z" fill="#123022" stroke="#123022" stroke-linejoin="round"/>
<path d="M95.8699 385.939H93.1699V400.539H95.8699V385.939Z" fill="#123022" stroke="#123022" stroke-linejoin="round"/>
<path d="M124.311 371.3H81.9707V385.9H124.311V371.3Z" fill="white" stroke="#123022" stroke-linejoin="round"/>
<path d="M92.7504 371.3H87.3604V385.9H92.7504V371.3Z" fill="#123022" stroke="#123022" stroke-linejoin="round"/>
<path d="M97.9607 371.3H95.2607V385.9H97.9607V371.3Z" fill="#123022" stroke="#123022" stroke-linejoin="round"/>
<path d="M87.5402 429.87H45.2002V444.47H87.5402V429.87Z" fill="white" stroke="#123022" stroke-linejoin="round"/>
<path d="M55.9906 429.87H50.6006V444.47H55.9906V429.87Z" fill="#123022" stroke="#123022" stroke-linejoin="round"/>
<path d="M61.2 429.87H58.5V444.47H61.2V429.87Z" fill="#123022" stroke="#123022" stroke-linejoin="round"/>
<path d="M91.0705 415.229H48.7305V429.829H91.0705V415.229Z" fill="white" stroke="#123022" stroke-linejoin="round"/>
<path d="M59.5199 415.229H54.1299V429.829H59.5199V415.229Z" fill="#123022" stroke="#123022" stroke-linejoin="round"/>
<path d="M64.7303 415.229H62.0303V429.829H64.7303V415.229Z" fill="#123022" stroke="#123022" stroke-linejoin="round"/>
<path d="M87.5402 400.58H45.2002V415.18H87.5402V400.58Z" fill="white" stroke="#123022" stroke-linejoin="round"/>
<path d="M55.9906 400.58H50.6006V415.18H55.9906V400.58Z" fill="#123022" stroke="#123022" stroke-linejoin="round"/>
<path d="M61.2 400.58H58.5V415.18H61.2V400.58Z" fill="#123022" stroke="#123022" stroke-linejoin="round"/>
<path d="M85.4503 385.939H43.1104V400.539H85.4503V385.939Z" fill="white" stroke="#123022" stroke-linejoin="round"/>
<path d="M53.89 385.939H48.5V400.539H53.89V385.939Z" fill="#123022" stroke="#123022" stroke-linejoin="round"/>
<path d="M59.1004 385.939H56.4004V400.539H59.1004V385.939Z" fill="#123022" stroke="#123022" stroke-linejoin="round"/>
<path d="M87.5402 371.3H45.2002V385.9H87.5402V371.3Z" fill="white" stroke="#123022" stroke-linejoin="round"/>
<path d="M55.9906 371.3H50.6006V385.9H55.9906V371.3Z" fill="#123022" stroke="#123022" stroke-linejoin="round"/>
<path d="M61.2 371.3H58.5V385.9H61.2V371.3Z" fill="#123022" stroke="#123022" stroke-linejoin="round"/>
<path d="M87.5402 356.89H45.2002V371.49H87.5402V356.89Z" fill="white" stroke="#123022" stroke-linejoin="round"/>
<path d="M55.9906 356.89H50.6006V371.49H55.9906V356.89Z" fill="#123022" stroke="#123022" stroke-linejoin="round"/>
<path d="M61.2 356.89H58.5V371.49H61.2V356.89Z" fill="#123022" stroke="#123022" stroke-linejoin="round"/>
<path d="M87.5402 342.49H45.2002V357.09H87.5402V342.49Z" fill="white" stroke="#123022" stroke-linejoin="round"/>
<path d="M55.9906 342.49H50.6006V357.09H55.9906V342.49Z" fill="#123022" stroke="#123022" stroke-linejoin="round"/>
<path d="M61.2 342.49H58.5V357.09H61.2V342.49Z" fill="#123022" stroke="#123022" stroke-linejoin="round"/>
<path d="M100.08 444.26C111.474 444.26 120.71 435.024 120.71 423.63C120.71 412.236 111.474 403 100.08 403C88.6866 403 79.4502 412.236 79.4502 423.63C79.4502 435.024 88.6866 444.26 100.08 444.26Z" fill="white" stroke="#123022" stroke-linejoin="round"/>
<path d="M98.0001 444.26C109.394 444.26 118.63 435.024 118.63 423.63C118.63 412.236 109.394 403 98.0001 403C86.6065 403 77.3701 412.236 77.3701 423.63C77.3701 435.024 86.6065 444.26 98.0001 444.26Z" fill="white" stroke="#123022" stroke-linejoin="round"/>
<path d="M98.0001 441.3C107.759 441.3 115.67 433.389 115.67 423.63C115.67 413.871 107.759 405.96 98.0001 405.96C88.2412 405.96 80.3301 413.871 80.3301 423.63C80.3301 433.389 88.2412 441.3 98.0001 441.3Z" fill="white" stroke="#123022" stroke-linejoin="round"/>
<path d="M97.8302 438.74V435.92C96.9545 435.947 96.0835 435.782 95.2785 435.437C94.4734 435.091 93.7538 434.573 93.1702 433.92C92.0157 432.287 91.429 430.319 91.5002 428.32L95.7702 427.59C95.7906 428.442 95.8979 429.29 96.0902 430.12C96.2047 430.687 96.4708 431.212 96.8602 431.64C97.2229 431.978 97.7049 432.158 98.2002 432.14C98.449 432.166 98.7001 432.123 98.926 432.015C99.1518 431.908 99.3436 431.74 99.4802 431.53C99.7218 431.108 99.8429 430.627 99.8302 430.14C99.862 429.225 99.6144 428.321 99.1202 427.55C98.5498 426.761 97.8773 426.052 97.1202 425.44L94.5402 423.23C93.991 422.711 93.4766 422.157 93.0002 421.57C92.5266 420.988 92.1516 420.333 91.8902 419.63C91.603 418.804 91.4642 417.934 91.4802 417.06C91.432 416.249 91.5509 415.436 91.8296 414.672C92.1082 413.908 92.5407 413.21 93.1002 412.62C94.2857 411.515 95.8306 410.876 97.4502 410.82V408.12H98.9002V410.82C99.8421 410.834 100.765 411.088 101.58 411.56C102.243 411.955 102.792 412.517 103.17 413.19C103.542 413.862 103.809 414.587 103.96 415.34C104.116 416.085 104.216 416.84 104.26 417.6L99.9302 418.24C99.9181 417.57 99.858 416.902 99.7502 416.24C99.6861 415.755 99.5003 415.294 99.2102 414.9C99.0609 414.731 98.8728 414.601 98.662 414.521C98.4512 414.441 98.224 414.413 98.0002 414.44C97.7463 414.435 97.4952 414.494 97.2699 414.611C97.0445 414.728 96.8521 414.9 96.7102 415.11C96.4206 415.527 96.2669 416.023 96.2702 416.53C96.2285 417.332 96.4652 418.123 96.9402 418.77C97.3975 419.357 97.9025 419.906 98.4502 420.41L101 422.6C101.671 423.214 102.29 423.883 102.85 424.6C103.421 425.305 103.88 426.095 104.21 426.94C104.578 427.896 104.755 428.916 104.73 429.94C104.742 430.951 104.519 431.95 104.08 432.86C103.656 433.726 103.007 434.462 102.2 434.99C101.338 435.565 100.343 435.909 99.3102 435.99V438.84L97.8302 438.74Z" fill="#123022"/>
<path d="M436.11 250C436.11 250 409.95 253.88 407.53 253.72C405.11 253.56 395.42 252.1 395.42 252.1L387.34 253.23L390.25 265.34C390.25 265.34 396.06 266.34 398.81 265.18C400.713 264.356 402.549 263.383 404.3 262.27C404.3 262.27 438.37 267.27 441.44 264.54C444.51 261.81 436.11 250 436.11 250Z" fill="white" stroke="#123022" stroke-miterlimit="10"/>
<path d="M324.26 428.761C324.26 428.761 329.79 431.701 334.46 434.121C339.13 436.541 345.17 437.921 346.21 438.781C347.25 439.641 345.69 444.141 345.69 444.141H302.14C301.599 442.045 301.599 439.846 302.14 437.751C302.659 435.452 303.351 433.195 304.21 431.001L324.26 428.761Z" fill="white" stroke="#123022" stroke-miterlimit="10"/>
<path d="M298.13 295.721L301.35 314.001C301.35 314.001 305.94 351.901 305.42 356.571C304.9 361.241 299.89 371.951 300.06 381.461C300.23 390.971 303.69 416.541 303.69 417.051C303.69 417.561 301.1 420.511 301.1 420.511C301.1 420.511 303.69 431.921 303.87 432.611C304.05 433.301 314.58 433.611 318.21 432.781C320.674 432.134 323.053 431.201 325.3 430.001C325.3 430.001 326.3 423.431 325.99 420.001C325.542 417.164 324.787 414.384 323.74 411.711C323.74 411.711 338.43 355.371 338.95 346.711C339.47 338.051 341.54 300.711 341.54 300.711L316.14 286.891L298.13 295.721Z" fill="#123022" stroke="#123022" stroke-miterlimit="10"/>
<path d="M351.05 230.87C351.05 230.87 354.33 249.87 354.16 266.3C353.99 282.73 354.16 297.58 353.64 299.66C353.12 301.74 343.96 300.35 343.96 300.35L350 238L351.05 230.87Z" fill="white" stroke="#123022" stroke-miterlimit="10"/>
<path d="M313.72 177.46C313.72 177.46 293.49 198 292.63 202.35C291.77 206.7 292.46 217.04 292.63 218.25C292.8 219.46 297.63 265.78 297.63 265.78C297.63 265.78 292.28 277.36 292.45 277.88C292.62 278.4 292.79 299.31 292.79 299.31C292.79 299.31 295.73 302.08 301.79 303.11C307.85 304.14 308.7 304.11 308.7 304.11L312.85 295.64L314.24 304.98C319.16 307.257 324.62 308.109 330 307.44C338.65 306.23 345.73 304.15 346.42 303.63C347.11 303.11 351.26 258.18 351.61 254.03C351.96 249.88 351.44 236.4 351.09 230.87C350.74 225.34 345.04 202.52 344.35 199.76C343.66 197 329.83 185.24 325.35 183.51C321.339 181.762 317.454 179.74 313.72 177.46Z" fill="white" stroke="#123022" stroke-linejoin="round"/>
<path d="M351.53 241.671C351.4 237.511 351.21 233.371 351.05 230.871C350.7 225.341 345 202.521 344.31 199.761C343.62 197.001 329.79 185.241 325.31 183.511C321.318 181.776 317.449 179.772 313.73 177.511C313.73 177.511 312.35 178.911 310.3 181.061L324.79 200.151L333.43 199.811L329.63 206.031L351.53 241.671Z" fill="white" stroke="#123022" stroke-linejoin="round"/>
<path d="M313.72 177.46L340 201.66L348.29 228.28C348.29 228.28 345.87 203.91 344.29 199.76C342.71 195.61 336.68 190.25 336.68 190.25L313.72 177.46Z" fill="#123022" stroke="#123022" stroke-linejoin="round"/>
<path d="M351.05 136.67C351.05 136.67 353.82 146.18 353.64 148.6C353.46 151.02 351.74 154.3 351.91 154.82C352.08 155.34 357.1 162.25 356.58 163.12C356.06 163.99 352.26 166.05 352.26 166.05C352.26 166.05 351.4 176.05 350.7 178.5C350 180.95 347.42 181.78 342.75 181.09L338.09 180.4L336.19 192.84L316.14 177.46L316.66 168.82C316.66 168.82 309.57 158.45 308.53 155.34C307.49 152.23 311.64 132.34 313.03 130.45C314.42 128.56 325.64 125.61 334.46 125.61C343.28 125.61 351.91 130.28 352.78 132.87C353.65 135.46 351.05 136.67 351.05 136.67Z" fill="white" stroke="#123022" stroke-linejoin="round"/>
<path d="M350.7 178.5C351.28 176.5 351.97 169.24 352.19 166.84C351.639 166.772 351.085 166.739 350.53 166.74C347.018 166.706 343.624 168.003 341.03 170.37C338.43 172.79 338.43 173.31 336.7 172.28C334.957 171.087 333.536 169.483 332.56 167.61C332.04 166.4 332.21 151.19 332.21 151.19C332.21 151.19 335.49 148.25 336.7 147.04C337.91 145.83 335.15 139.09 334.98 137.88C334.81 136.67 351.05 136.67 351.05 136.67C351.05 136.67 353.64 135.46 352.78 132.87C351.92 130.28 343.27 125.61 334.46 125.61C325.65 125.61 314.46 128.55 313.03 130.45C311.6 132.35 307.49 152.23 308.53 155.34C309.57 158.45 316.66 168.82 316.66 168.82L323.74 165.36C322.028 163.833 320.519 162.092 319.25 160.18C317.69 157.58 319.42 153.26 322.19 151.18C324.96 149.1 326.85 151.87 327.54 152.74C328.23 153.61 328.54 157.23 328.54 159.82C328.54 162.41 327.54 170.54 328.2 172.96C328.86 175.38 338.05 180.39 338.05 180.39L342.71 181.08C347.42 181.78 350 180.92 350.7 178.5Z" fill="#123022" stroke="#123022" stroke-linejoin="round"/>
<path d="M347.42 157.411C347.994 157.411 348.46 156.52 348.46 155.421C348.46 154.322 347.994 153.431 347.42 153.431C346.846 153.431 346.38 154.322 346.38 155.421C346.38 156.52 346.846 157.411 347.42 157.411Z" fill="#123022"/>
<path d="M345 151.361C345 151.361 347.25 148.941 350 150.501" stroke="#123022" stroke-linejoin="round"/>
<path d="M350.88 172.101C350.88 172.101 346.56 171.761 345.17 169.681" stroke="white" stroke-linejoin="round"/>
<path d="M315.79 174.521L339.12 190.941L338.43 200.451L313.72 177.461L315.79 174.521Z" fill="white" stroke="#123022" stroke-linejoin="round"/>
<path d="M375.25 252.47C375.25 252.47 382.33 249.71 383.03 249.36C383.73 249.01 387.86 250.23 387.86 250.23C387.86 250.23 396.51 263.23 396.68 264.23C396.85 265.23 396.85 266.3 394.78 266.82C392.71 267.34 392.46 267.17 392.46 267.17C392.46 267.17 388.06 268.71 385.64 267.33C383.22 265.95 375.77 265.09 375.77 265.09L375.25 252.47Z" fill="white" stroke="#123022" stroke-miterlimit="10"/>
<path d="M369.2 251.78L375.25 252.47L375.77 265.09L369.54 263.71L369.2 251.78Z" fill="white" stroke="#123022" stroke-miterlimit="10"/>
<path d="M297.82 216.35C297.82 216.35 313.2 248.35 316.82 254.89C320.44 261.43 324.08 261.81 324.94 262.15C325.8 262.49 369.88 266.47 369.88 266.47L370.4 251.95L336.19 245L323.4 205.46C323.4 205.46 316.48 194.57 312.51 193.36C308.54 192.15 303.87 193.71 303.87 193.71" fill="white"/>
<path d="M297.82 216.35C297.82 216.35 313.2 248.35 316.82 254.89C320.44 261.43 324.08 261.81 324.94 262.15C325.8 262.49 369.88 266.47 369.88 266.47L370.4 251.95L336.19 245L323.4 205.46C323.4 205.46 316.48 194.57 312.51 193.36C308.54 192.15 303.87 193.71 303.87 193.71" stroke="#123022" stroke-linejoin="round"/>
<path d="M314.059 250.051C314.059 250.051 305.059 255.761 302.479 256.971" stroke="#123022" stroke-miterlimit="10"/>
<path d="M313.89 255.58C313.89 255.58 304.21 263.19 301.1 265.26" stroke="#123022" stroke-miterlimit="10"/>
<path d="M441.44 264.54C444.51 261.79 436.11 250 436.11 250L432.71 250.5C433.63 253.33 436.36 261.58 438 265.3C439.73 265.2 441 265 441.44 264.54Z" fill="#58A67E" stroke="#123022" stroke-miterlimit="10"/>
<path d="M446.28 242.25C446.28 242.25 435.95 248.25 436.11 250C436.27 251.75 439.5 263.73 441.44 264.54C443.38 265.35 451.61 260.34 451.61 260.34L446.28 242.25Z" fill="#58A67E" stroke="#123022" stroke-miterlimit="10"/>
<path d="M474.05 139.93C474.05 139.93 477.26 134.51 480.31 132.65C483.36 130.79 490.64 134.17 493.86 137.73C497.08 141.29 502.33 153.82 503.86 163.14C505.39 172.46 501.32 180.75 499.79 182.14C498.26 183.53 493.69 185.14 495.22 189.59C496.75 194.04 498.77 191.59 498.77 191.59C498.77 191.59 498.61 196.33 496.06 198.54C494.283 200.084 492.05 201.002 489.701 201.153C487.353 201.305 485.02 200.682 483.06 199.38C477.47 196 472.06 189.38 471.71 184.82C471.405 181.803 471.635 178.757 472.39 175.82C472.73 174.97 480.18 168.03 480.69 161.25C481.2 154.47 476.96 146.01 474.59 144.32C472.22 142.63 474.05 139.93 474.05 139.93Z" fill="#123022" stroke="#123022" stroke-miterlimit="10"/>
<path d="M491.83 283.231C488.27 270.861 487.26 268.491 487.26 268.491L449.65 267.641C449.65 267.641 448.65 282.211 449.65 292.031C450.65 301.851 451.35 309.481 451.35 309.481C451.35 309.481 450.5 330.991 453.21 348.101C455.92 365.211 458.63 376.551 458.97 378.591C459.16 379.751 460.2 394.371 461.04 406.591L458.43 406.511L460.57 423.601L456.43 433.111C453.89 435.311 443.73 440.731 442.88 442.251C442.03 443.771 445.42 444.461 447.11 444.461H477.26C477.9 444.267 478.475 443.901 478.922 443.404C479.37 442.907 479.673 442.298 479.8 441.641C480.03 439.511 478.61 427.871 478.61 427.871L482.17 407.221L479.68 407.151C481.15 396.641 482.68 383.601 482.01 379.241C480.82 371.621 478.79 362.981 478.79 360.951C478.79 358.921 482.01 327.411 483.7 320.641C485.39 313.871 491.15 303.701 491.15 303.701C491.15 303.701 495.39 295.591 491.83 283.231Z" fill="#123022" stroke="#123022" stroke-miterlimit="10"/>
<path d="M444.12 153.131C444.12 153.131 439.46 149.271 439.46 146.061C439.46 142.851 452.46 136.571 454.08 135.451C455.7 134.331 466.78 134.971 471.08 137.221C475.38 139.471 482.81 145.891 484.08 149.911C485.35 153.931 485.36 162.131 484.56 167.271C483.76 172.411 474.75 179.161 474.75 179.161L477.81 190.571C481.933 193.435 485.252 197.308 487.45 201.821C491.31 209.541 490.18 247.461 490.18 247.461C490.18 247.461 490.02 259.841 490.18 261.771C490.476 263.773 490.256 265.817 489.54 267.711C488.54 270.771 487.93 270.771 485.84 270.611C483.75 270.451 453.38 271.251 453.38 271.251C451.582 271.137 449.85 270.524 448.38 269.481C446.45 267.871 447.09 250.841 446.93 250.361C446.77 249.881 443.07 237.361 442.43 233.481C441.934 229.656 442.666 225.772 444.52 222.391C446.13 219.501 460.82 192.801 460.82 192.801L456.77 184.001C456.77 184.001 449.54 186.251 448.09 186.251C446.64 186.251 443.31 173.411 443.31 173.411C443.31 173.411 439.46 170.031 439.14 169.231C438.82 168.431 443.96 163.761 443.96 163.761C443.96 163.761 443.64 159.101 444.12 157.341C444.542 156.35 445.075 155.41 445.71 154.541L444.12 153.131Z" fill="white" stroke="#123022" stroke-miterlimit="10"/>
<path d="M444.12 153.131L445.71 154.511L450.71 149.431C450.71 149.431 450.23 155.061 452.96 159.071C455.69 163.081 461.47 165.341 462.12 165.821C462.77 166.301 463.4 167.431 462.92 170.641C462.52 173.321 460.56 174.441 459.64 174.451C460.64 174.911 463.22 176.021 464.53 174.821C466.3 173.221 466.14 170.001 465.97 168.231C465.8 166.461 466.14 165.231 468.55 164.061C470.96 162.891 475.14 162.611 475.14 165.981C475.14 169.351 473.53 172.731 472.08 173.381C471 173.805 469.865 174.074 468.71 174.181C468.71 174.181 470.64 178.681 474.81 179.181C474.81 179.181 483.81 172.431 484.62 167.291C485.43 162.151 485.42 153.951 484.14 149.931C482.86 145.911 475.46 139.491 471.14 137.241C466.82 134.991 455.71 134.341 454.14 135.471C452.57 136.601 439.52 142.861 439.52 146.081C439.52 149.301 444.12 153.131 444.12 153.131Z" fill="#123022" stroke="#123022" stroke-miterlimit="10"/>
<path d="M459.22 174.34C459.34 174.431 459.491 174.471 459.64 174.45C459.28 174.3 459.1 174.22 459.22 174.34Z" stroke="#123022" stroke-miterlimit="10"/>
<path d="M448.77 165.18C448.77 166.25 448.3 167.11 447.77 167.11C447.24 167.11 446.77 166.25 446.77 165.18C446.77 164.11 447.23 163.25 447.77 163.25C448.31 163.25 448.77 164.12 448.77 165.18Z" fill="#123022"/>
<path d="M445.4 161.16C445.4 161.16 447.98 158.43 450.23 161.48" stroke="#123022" stroke-miterlimit="10"/>
<path d="M445.729 176.751C446.938 176.825 448.147 176.617 449.262 176.143C450.376 175.669 451.365 174.943 452.149 174.021" stroke="#123022" stroke-miterlimit="10"/>
<path d="M487.51 201.82C485.311 197.308 481.992 193.434 477.87 190.57C476.294 190.566 474.737 190.914 473.313 191.588C471.889 192.263 470.634 193.248 469.64 194.47C466.08 198.71 455.75 214.63 455.75 214.63L449.41 213.29C447.14 217.63 445.18 221.36 444.6 222.39C442.745 225.772 442.014 229.656 442.51 233.48C443.15 237.34 446.85 249.87 447.01 250.36C447.17 250.85 446.53 267.87 448.46 269.48C449.929 270.523 451.661 271.136 453.46 271.25C453.46 271.25 483.83 270.45 485.92 270.61C488.01 270.77 488.65 270.77 489.62 267.71C490.335 265.817 490.556 263.773 490.26 261.77C490.1 259.84 490.26 247.46 490.26 247.46C490.26 247.46 491.37 209.54 487.51 201.82Z" fill="#58A67E" stroke="#123022" stroke-miterlimit="10"/>
<path d="M468.62 266.12L460.83 306.12C460.83 306.12 455.75 311.71 454.91 313.12C454.07 314.53 454.4 320.74 454.4 322.43C454.4 324.12 455.24 327.18 455.92 327.85C456.6 328.52 457.62 329.85 459.14 329.72C460.66 329.59 461.68 329.21 461.34 327.85C461.131 325.765 461.188 323.661 461.51 321.59C461.68 320.91 464.73 318.88 466.08 315.32C467.43 311.76 467.78 305.5 467.78 305.5L484 268.32L468.62 266.12Z" fill="white" stroke="#123022" stroke-miterlimit="10"/>
<path d="M484 268.32L468.58 266.12L467.49 271.73C471.182 274.629 475.65 276.368 480.33 276.73L484 268.32Z" fill="#58A67E" stroke="#123022" stroke-miterlimit="10"/>
<path d="M460.66 329.64C459.749 328.806 459.062 327.757 458.66 326.59C458.483 324.561 458.483 322.52 458.66 320.49" fill="white"/>
<path d="M460.66 329.64C459.749 328.806 459.062 327.757 458.66 326.59C458.483 324.561 458.483 322.52 458.66 320.49" stroke="#123022" stroke-miterlimit="10"/>
<path d="M457.45 329.13C456.985 327.809 456.65 326.446 456.45 325.06C456.28 323.37 456.45 318.46 456.45 318.46" fill="white"/>
<path d="M457.45 329.13C456.985 327.809 456.65 326.446 456.45 325.06C456.28 323.37 456.45 318.46 456.45 318.46" stroke="#123022" stroke-miterlimit="10"/>
<path d="M469 209.38C467.489 213.87 466.577 218.541 466.29 223.27C466.12 229.87 465.62 261.38 465.62 263.92C465.62 266.46 469 269 473 270.18C477 271.36 481.81 271.37 483.67 270.01C485.53 268.65 485.19 269.01 485.67 262.9C486.15 256.79 486.18 250.2 486.18 250.2C486.18 250.2 490.67 218.96 489.06 210.39C487.45 201.82 483.3 194.98 477.37 194.81C471.44 194.64 470.09 196.67 470.09 196.67" fill="#58A67E"/>
<path d="M469 209.38C467.489 213.87 466.577 218.541 466.29 223.27C466.12 229.87 465.62 261.38 465.62 263.92C465.62 266.46 469 269 473 270.18C477 271.36 481.81 271.37 483.67 270.01C485.53 268.65 485.19 269.01 485.67 262.9C486.15 256.79 486.18 250.2 486.18 250.2C486.18 250.2 490.67 218.96 489.06 210.39C487.45 201.82 483.3 194.98 477.37 194.81C471.44 194.64 470.09 196.67 470.09 196.67" stroke="#123022" stroke-miterlimit="10"/>
<path d="M381.34 263.84C381.34 263.84 379.83 266.59 380.1 267.12C380.37 267.65 381.25 268.27 381.87 267.74C382.781 266.849 383.317 265.644 383.37 264.37C383.28 263.13 382.58 262.42 381.34 263.84Z" fill="white" stroke="#123022" stroke-miterlimit="10"/>
<path d="M384.26 264.55C384.26 264.55 382.75 267.3 383.02 267.83C383.29 268.36 384.17 268.98 384.79 268.45C385.705 267.561 386.245 266.355 386.3 265.08C386.21 263.84 385.5 263.13 384.26 264.55Z" fill="white" stroke="#123022" stroke-miterlimit="10"/>
<path d="M386.469 265.26C386.469 265.26 384.969 268 385.229 268.54C385.489 269.08 386.389 269.69 387.009 269.16C387.921 268.269 388.457 267.063 388.509 265.79C388.419 264.55 387.709 263.84 386.469 265.26Z" fill="white" stroke="#123022" stroke-miterlimit="10"/>
<path d="M389.11 265.83C389.11 265.83 387.94 267.96 388.11 268.37C388.28 268.78 389 269.26 389.48 268.85C390.189 268.162 390.607 267.228 390.65 266.24C390.62 265.28 390.07 264.73 389.11 265.83Z" fill="white" stroke="#123022" stroke-miterlimit="10"/>
<path d="M402.17 253.74C402.17 253.74 390.07 247.69 389.17 248.9C387.584 251.136 386.196 253.505 385.02 255.98C384.5 257.54 384.67 258.06 386.4 257.37C388.02 256.52 389.531 255.475 390.9 254.26C390.9 254.26 395.04 259.79 397.98 258.92" fill="white"/>
<path d="M402.17 253.74C402.17 253.74 390.07 247.69 389.17 248.9C387.584 251.136 386.196 253.505 385.02 255.98C384.5 257.54 384.67 258.06 386.4 257.37C388.02 256.52 389.531 255.475 390.9 254.26C390.9 254.26 395.04 259.79 397.98 258.92" stroke="#123022" stroke-miterlimit="10"/>
<path d="M33.0996 444.48H715.63" stroke="#123022" stroke-miterlimit="10"/>
</svg>
