<svg width="680" height="400" viewBox="0 0 680 400" fill="none" xmlns="http://www.w3.org/2000/svg">
<g clip-path="url(#clip0_57_204)">
<mask id="mask0_57_204" style="mask-type:luminance" maskUnits="userSpaceOnUse" x="0" y="15" width="368" height="369">
<path d="M0 15.2709H368V384H0V15.2709Z" fill="white"/>
</mask>
<g mask="url(#mask0_57_204)">
<path d="M367.292 199.417C367.292 202.417 367.219 205.417 367.073 208.417C366.922 211.412 366.703 214.406 366.406 217.391C366.115 220.38 365.745 223.359 365.307 226.328C364.865 229.297 364.354 232.255 363.766 235.198C363.182 238.141 362.526 241.073 361.792 243.984C361.062 246.896 360.266 249.787 359.391 252.662C358.521 255.531 357.578 258.38 356.568 261.208C355.557 264.037 354.479 266.833 353.328 269.609C352.177 272.38 350.963 275.125 349.677 277.839C348.396 280.552 347.047 283.234 345.63 285.88C344.213 288.526 342.734 291.141 341.193 293.714C339.651 296.287 338.042 298.823 336.375 301.318C334.708 303.818 332.979 306.271 331.193 308.682C329.401 311.094 327.557 313.458 325.651 315.776C323.75 318.099 321.786 320.37 319.771 322.594C317.755 324.818 315.687 326.995 313.562 329.115C311.443 331.24 309.266 333.307 307.042 335.323C304.818 337.339 302.547 339.297 300.224 341.203C297.906 343.109 295.536 344.953 293.125 346.745C290.713 348.531 288.26 350.26 285.766 351.927C283.271 353.594 280.734 355.198 278.156 356.745C275.583 358.287 272.974 359.766 270.323 361.182C267.677 362.594 264.995 363.943 262.281 365.229C259.568 366.51 256.823 367.729 254.052 368.875C251.276 370.026 248.479 371.104 245.651 372.115C242.823 373.13 239.974 374.068 237.099 374.943C234.229 375.813 231.333 376.615 228.422 377.344C225.51 378.073 222.583 378.729 219.641 379.313C216.693 379.901 213.74 380.412 210.766 380.854C207.797 381.297 204.818 381.662 201.833 381.958C198.844 382.25 195.849 382.469 192.854 382.62C189.854 382.766 186.854 382.839 183.849 382.839C180.849 382.839 177.849 382.766 174.849 382.62C171.854 382.469 168.859 382.25 165.87 381.958C162.885 381.662 159.906 381.297 156.937 380.854C153.963 380.412 151.01 379.901 148.062 379.313C145.12 378.729 142.193 378.073 139.281 377.344C136.365 376.615 133.474 375.813 130.599 374.943C127.729 374.068 124.88 373.13 122.052 372.115C119.224 371.104 116.427 370.026 113.651 368.875C110.88 367.729 108.135 366.51 105.422 365.229C102.708 363.943 100.026 362.594 97.3801 361.182C94.7291 359.766 92.1197 358.287 89.5468 356.745C86.9687 355.198 84.4322 353.594 81.9374 351.927C79.4426 350.26 76.9895 348.531 74.578 346.745C72.1666 344.953 69.7968 343.109 67.4791 341.203C65.1562 339.297 62.8853 337.339 60.6614 335.323C58.4374 333.307 56.2603 331.24 54.1405 329.115C52.0155 326.995 49.9478 324.818 47.9322 322.594C45.9166 320.37 43.953 318.099 42.052 315.776C40.1458 313.458 38.2968 311.094 36.5103 308.682C34.7239 306.271 32.9947 303.818 31.328 301.318C29.6562 298.823 28.052 296.287 26.5103 293.714C24.9635 291.141 23.4843 288.526 22.0728 285.88C20.6562 283.234 19.3072 280.552 18.0208 277.839C16.7395 275.125 15.526 272.38 14.3749 269.609C13.2239 266.833 12.1458 264.037 11.1353 261.208C10.1249 258.38 9.18221 255.531 8.31242 252.662C7.43742 249.787 6.64054 246.896 5.90617 243.984C5.177 241.073 4.52075 238.141 3.93742 235.198C3.34888 232.255 2.83846 229.297 2.39575 226.328C1.95825 223.359 1.58846 220.38 1.29679 217.391C0.999918 214.406 0.781169 211.412 0.630126 208.417C0.484293 205.417 0.411377 202.417 0.411377 199.417C0.411377 196.412 0.484293 193.412 0.630126 190.417C0.781169 187.417 0.999918 184.422 1.29679 181.438C1.58846 178.448 1.95825 175.469 2.39575 172.5C2.83846 169.531 3.34888 166.573 3.93742 163.63C4.52075 160.688 5.177 157.755 5.90617 154.844C6.64054 151.932 7.43742 149.042 8.31242 146.167C9.18221 143.297 10.1249 140.448 11.1353 137.62C12.1458 134.792 13.2239 131.995 14.3749 129.219C15.526 126.448 16.7395 123.703 18.0208 120.99C19.3072 118.276 20.6562 115.594 22.0728 112.948C23.4843 110.302 24.9635 107.688 26.5103 105.115C28.052 102.542 29.6562 100.005 31.328 97.5105C32.9947 95.0105 34.7239 92.5573 36.5103 90.1459C38.2968 87.7396 40.1458 85.3698 42.052 83.0521C43.953 80.7292 45.9166 78.4584 47.9322 76.2344C49.9478 74.0105 52.0155 71.8386 54.1405 69.7136C56.2603 67.5886 58.4374 65.5209 60.6614 63.5053C62.8853 61.4896 65.1562 59.5313 67.4791 57.625C69.7968 55.7188 72.1666 53.875 74.578 52.0886C76.9895 50.2969 79.4426 48.5677 81.9374 46.9011C84.4322 45.2344 86.9687 43.6302 89.5468 42.0834C92.1197 40.5417 94.7291 39.0625 97.3801 37.6459C100.026 36.2344 102.708 34.8855 105.422 33.599C108.135 32.3177 110.88 31.099 113.651 29.9532C116.427 28.8021 119.224 27.724 122.052 26.7136C124.88 25.698 127.729 24.7605 130.599 23.8855C133.474 23.0157 136.365 22.2136 139.281 21.4844C142.193 20.7552 145.12 20.099 148.062 19.5157C151.01 18.9271 153.963 18.4167 156.937 17.974C159.906 17.5365 162.885 17.1667 165.87 16.875C168.859 16.5782 171.854 16.3594 174.849 16.2084C177.849 16.0625 180.849 15.9896 183.849 15.9896C186.854 15.9896 189.854 16.0625 192.854 16.2084C195.849 16.3594 198.844 16.5782 201.833 16.875C204.818 17.1667 207.797 17.5365 210.766 17.974C213.74 18.4167 216.693 18.9271 219.641 19.5157C222.583 20.099 225.51 20.7552 228.422 21.4844C231.333 22.2136 234.229 23.0157 237.099 23.8855C239.974 24.7605 242.823 25.698 245.651 26.7136C248.479 27.724 251.276 28.8021 254.052 29.9532C256.823 31.099 259.568 32.3177 262.281 33.599C264.995 34.8855 267.677 36.2344 270.323 37.6459C272.974 39.0625 275.583 40.5417 278.156 42.0834C280.734 43.6302 283.271 45.2344 285.766 46.9011C288.26 48.5677 290.713 50.2969 293.125 52.0886C295.536 53.875 297.906 55.7188 300.224 57.625C302.547 59.5313 304.818 61.4896 307.042 63.5053C309.266 65.5209 311.443 67.5886 313.562 69.7136C315.687 71.8386 317.755 74.0105 319.771 76.2344C321.786 78.4584 323.75 80.7292 325.651 83.0521C327.557 85.3698 329.401 87.7396 331.193 90.1459C332.979 92.5573 334.708 95.0105 336.375 97.5105C338.042 100.005 339.651 102.542 341.193 105.115C342.734 107.688 344.213 110.302 345.63 112.948C347.047 115.594 348.396 118.276 349.677 120.99C350.963 123.703 352.177 126.448 353.328 129.219C354.479 131.995 355.557 134.792 356.568 137.62C357.578 140.448 358.521 143.297 359.391 146.167C360.266 149.042 361.062 151.932 361.792 154.844C362.526 157.755 363.182 160.688 363.766 163.63C364.354 166.573 364.865 169.531 365.307 172.5C365.745 175.469 366.115 178.448 366.406 181.438C366.703 184.422 366.922 187.417 367.073 190.417C367.219 193.412 367.292 196.412 367.292 199.417Z" fill="#1A7A5E"/>
</g>
<path d="M308.922 199.417C308.922 201.464 308.875 203.505 308.776 205.552C308.672 207.594 308.521 209.635 308.323 211.672C308.12 213.708 307.87 215.74 307.573 217.766C307.271 219.792 306.922 221.807 306.521 223.812C306.12 225.818 305.672 227.818 305.177 229.802C304.677 231.786 304.13 233.76 303.536 235.719C302.942 237.677 302.302 239.62 301.614 241.547C300.922 243.474 300.187 245.38 299.401 247.276C298.62 249.167 297.791 251.036 296.916 252.885C296.041 254.734 295.12 256.562 294.156 258.37C293.192 260.172 292.182 261.953 291.13 263.708C290.078 265.464 288.984 267.193 287.844 268.896C286.708 270.599 285.531 272.271 284.312 273.911C283.094 275.557 281.833 277.172 280.536 278.755C279.234 280.333 277.901 281.885 276.526 283.401C275.151 284.917 273.739 286.401 272.291 287.849C270.844 289.292 269.359 290.703 267.844 292.078C266.328 293.453 264.781 294.792 263.198 296.089C261.614 297.385 260 298.646 258.359 299.865C256.713 301.083 255.041 302.26 253.338 303.401C251.635 304.536 249.906 305.63 248.151 306.682C246.396 307.734 244.614 308.745 242.812 309.708C241.005 310.672 239.177 311.594 237.328 312.469C235.474 313.344 233.604 314.172 231.713 314.958C229.823 315.74 227.916 316.479 225.989 317.167C224.057 317.854 222.114 318.5 220.156 319.094C218.198 319.687 216.229 320.229 214.239 320.729C212.255 321.224 210.26 321.677 208.25 322.073C206.245 322.474 204.229 322.823 202.203 323.125C200.177 323.422 198.146 323.672 196.109 323.875C194.073 324.073 192.031 324.224 189.989 324.328C187.943 324.427 185.896 324.479 183.849 324.479C181.802 324.479 179.76 324.427 177.713 324.328C175.672 324.224 173.63 324.073 171.594 323.875C169.557 323.672 167.526 323.422 165.5 323.125C163.474 322.823 161.458 322.474 159.453 322.073C157.443 321.672 155.448 321.224 153.463 320.729C151.474 320.229 149.505 319.687 147.547 319.094C145.583 318.5 143.64 317.854 141.713 317.167C139.786 316.479 137.88 315.74 135.989 314.958C134.099 314.172 132.224 313.344 130.375 312.469C128.526 311.594 126.698 310.672 124.89 309.708C123.088 308.745 121.307 307.734 119.552 306.682C117.797 305.63 116.068 304.536 114.364 303.401C112.661 302.26 110.989 301.083 109.344 299.865C107.703 298.646 106.088 297.385 104.505 296.089C102.922 294.792 101.375 293.453 99.8592 292.078C98.3384 290.703 96.8592 289.292 95.4113 287.849C93.9634 286.401 92.5519 284.917 91.1769 283.401C89.8019 281.885 88.4686 280.333 87.1665 278.755C85.8696 277.172 84.6092 275.557 83.3905 273.911C82.1717 272.271 80.9946 270.599 79.8592 268.896C78.7186 267.193 77.6248 265.464 76.5727 263.708C75.5207 261.953 74.5102 260.172 73.5467 258.37C72.5832 256.562 71.6613 254.734 70.7863 252.885C69.9113 251.036 69.0832 249.167 68.2967 247.276C67.5155 245.38 66.7811 243.474 66.0884 241.547C65.4009 239.62 64.7602 237.677 64.1665 235.719C63.5675 233.76 63.0259 231.786 62.5259 229.802C62.0311 227.818 61.5832 225.818 61.1821 223.812C60.7811 221.807 60.4321 219.792 60.13 217.766C59.8332 215.74 59.5832 213.708 59.38 211.672C59.1821 209.635 59.0311 207.594 58.9269 205.552C58.828 203.505 58.7759 201.464 58.7759 199.417C58.7759 197.37 58.828 195.323 58.9269 193.276C59.0311 191.234 59.1821 189.193 59.38 187.156C59.5832 185.12 59.8332 183.089 60.13 181.062C60.4321 179.042 60.7811 177.021 61.1821 175.016C61.5832 173.01 62.0311 171.01 62.5259 169.026C63.0259 167.042 63.5675 165.068 64.1665 163.109C64.7602 161.151 65.4009 159.208 66.0884 157.281C66.7811 155.354 67.5155 153.448 68.2967 151.557C69.0832 149.661 69.9113 147.792 70.7863 145.943C71.6613 144.094 72.5832 142.266 73.5467 140.458C74.5102 138.656 75.5207 136.875 76.5727 135.12C77.6248 133.365 78.7186 131.635 79.8592 129.932C80.9946 128.229 82.1717 126.557 83.3905 124.917C84.6092 123.271 85.8696 121.656 87.1665 120.078C88.4686 118.495 89.8019 116.943 91.1769 115.427C92.5519 113.911 93.9634 112.427 95.4113 110.984C96.8592 109.536 98.3384 108.125 99.8592 106.75C101.375 105.375 102.922 104.036 104.505 102.74C106.088 101.443 107.703 100.182 109.344 98.9635C110.989 97.7448 112.661 96.5677 114.364 95.427C116.068 94.2916 117.797 93.1979 119.552 92.1458C121.307 91.0937 123.088 90.0833 124.89 89.1198C126.698 88.1562 128.526 87.2343 130.375 86.3593C132.224 85.4843 134.099 84.6562 135.989 83.8697C137.88 83.0885 139.786 82.3541 141.713 81.6614C143.64 80.9739 145.583 80.3333 147.547 79.7395C149.505 79.1406 151.474 78.5989 153.463 78.0989C155.448 77.6041 157.443 77.1562 159.453 76.7552C161.458 76.3541 163.474 76.0052 165.5 75.7031C167.526 75.4062 169.557 75.1562 171.594 74.9531C173.63 74.7552 175.672 74.6041 177.713 74.5C179.76 74.401 181.802 74.3541 183.849 74.3541C185.896 74.3541 187.943 74.401 189.989 74.5C192.031 74.6041 194.073 74.7552 196.109 74.9531C198.146 75.1562 200.177 75.4062 202.203 75.7031C204.229 76.0052 206.245 76.3541 208.25 76.7552C210.26 77.1562 212.255 77.6041 214.239 78.0989C216.229 78.5989 218.198 79.1406 220.156 79.7395C222.114 80.3333 224.057 80.9739 225.989 81.6614C227.916 82.3541 229.823 83.0885 231.713 83.8697C233.604 84.6562 235.474 85.4843 237.328 86.3593C239.177 87.2343 241.005 88.1562 242.812 89.1198C244.614 90.0833 246.396 91.0937 248.151 92.1458C249.906 93.1979 251.635 94.2916 253.338 95.427C255.041 96.5677 256.713 97.7448 258.359 98.9635C260 100.182 261.614 101.443 263.198 102.74C264.781 104.036 266.328 105.375 267.844 106.75C269.359 108.125 270.844 109.536 272.291 110.984C273.739 112.427 275.151 113.911 276.526 115.427C277.901 116.943 279.234 118.495 280.536 120.078C281.833 121.656 283.094 123.271 284.312 124.917C285.531 126.557 286.708 128.229 287.844 129.932C288.984 131.635 290.078 133.365 291.13 135.12C292.182 136.875 293.192 138.656 294.156 140.458C295.12 142.266 296.041 144.094 296.916 145.943C297.791 147.792 298.62 149.661 299.401 151.557C300.187 153.448 300.922 155.354 301.614 157.281C302.302 159.208 302.942 161.151 303.536 163.109C304.13 165.068 304.677 167.042 305.177 169.026C305.672 171.01 306.12 173.01 306.521 175.016C306.922 177.021 307.271 179.042 307.573 181.062C307.87 183.089 308.12 185.12 308.323 187.156C308.521 189.193 308.672 191.234 308.776 193.276C308.875 195.323 308.922 197.37 308.922 199.417Z" stroke="white" stroke-opacity="0.25" stroke-width="8.33784"/>
<path d="M243.885 199.417C243.885 201.38 243.792 203.344 243.599 205.297C243.406 207.255 243.115 209.198 242.734 211.125C242.349 213.052 241.87 214.958 241.302 216.839C240.729 218.724 240.068 220.573 239.318 222.385C238.562 224.203 237.724 225.979 236.797 227.714C235.87 229.448 234.859 231.13 233.771 232.766C232.677 234.401 231.505 235.979 230.26 237.495C229.01 239.016 227.693 240.474 226.302 241.859C224.911 243.25 223.458 244.573 221.937 245.818C220.417 247.068 218.838 248.234 217.203 249.328C215.568 250.422 213.885 251.427 212.151 252.354C210.417 253.281 208.641 254.125 206.828 254.875C205.01 255.625 203.161 256.286 201.276 256.859C199.396 257.432 197.49 257.906 195.562 258.292C193.635 258.672 191.693 258.964 189.734 259.156C187.781 259.349 185.818 259.443 183.849 259.443C181.885 259.443 179.922 259.349 177.969 259.156C176.01 258.964 174.068 258.672 172.141 258.292C170.208 257.906 168.307 257.432 166.422 256.859C164.542 256.286 162.693 255.625 160.875 254.875C159.062 254.125 157.286 253.281 155.552 252.354C153.818 251.427 152.13 250.422 150.5 249.328C148.865 248.234 147.286 247.068 145.766 245.818C144.245 244.573 142.792 243.25 141.401 241.859C140.01 240.474 138.693 239.016 137.443 237.495C136.198 235.979 135.026 234.401 133.932 232.766C132.844 231.13 131.833 229.448 130.906 227.714C129.979 225.979 129.141 224.203 128.385 222.385C127.635 220.573 126.974 218.724 126.401 216.839C125.828 214.958 125.354 213.052 124.969 211.125C124.588 209.198 124.297 207.255 124.104 205.297C123.911 203.344 123.818 201.38 123.818 199.417C123.818 197.448 123.911 195.484 124.104 193.531C124.297 191.573 124.588 189.63 124.969 187.703C125.354 185.776 125.828 183.87 126.401 181.99C126.974 180.109 127.635 178.26 128.385 176.443C129.141 174.625 129.979 172.849 130.906 171.115C131.833 169.38 132.844 167.698 133.932 166.062C135.026 164.427 136.198 162.849 137.443 161.333C138.693 159.812 140.01 158.359 141.401 156.969C142.792 155.578 144.245 154.255 145.766 153.01C147.286 151.766 148.865 150.594 150.5 149.5C152.13 148.411 153.818 147.401 155.552 146.474C157.286 145.547 159.062 144.708 160.875 143.953C162.693 143.203 164.542 142.542 166.422 141.969C168.307 141.401 170.208 140.922 172.141 140.536C174.068 140.156 176.01 139.865 177.969 139.672C179.922 139.479 181.885 139.385 183.849 139.385C185.818 139.385 187.781 139.479 189.734 139.672C191.693 139.865 193.635 140.156 195.562 140.536C197.49 140.922 199.396 141.401 201.276 141.969C203.161 142.542 205.01 143.203 206.828 143.953C208.641 144.708 210.417 145.547 212.151 146.474C213.885 147.401 215.568 148.411 217.203 149.5C218.838 150.594 220.417 151.766 221.937 153.01C223.458 154.255 224.911 155.578 226.302 156.969C227.693 158.359 229.01 159.812 230.26 161.333C231.505 162.849 232.677 164.427 233.771 166.062C234.859 167.698 235.87 169.38 236.797 171.115C237.724 172.849 238.562 174.625 239.318 176.443C240.068 178.26 240.729 180.109 241.302 181.99C241.87 183.87 242.349 185.776 242.734 187.703C243.115 189.63 243.406 191.573 243.599 193.531C243.792 195.484 243.885 197.448 243.885 199.417Z" fill="white" fill-opacity="0.97"/>
<path d="M182.51 218.889C175.104 218.571 170.802 215.451 169.593 209.535L174.01 208.576C174.437 210.649 175.343 212.201 176.718 213.243C178.104 214.285 180.036 214.884 182.51 215.035V202.118C179.427 201.358 177.302 200.67 176.135 200.056C174.968 199.446 174.02 198.743 173.302 197.951C172.578 197.16 172.057 196.316 171.739 195.41C171.416 194.509 171.26 193.425 171.26 192.16C171.26 189.467 172.229 187.363 174.177 185.847C176.135 184.321 178.911 183.483 182.51 183.326V179.91H185.739V183.326C188.989 183.483 191.494 184.217 193.26 185.535C195.036 186.842 196.286 188.884 197.01 191.66L192.489 192.514C192.14 190.889 191.432 189.628 190.364 188.722C189.307 187.806 187.765 187.253 185.739 187.056V198.639C188.848 199.378 191.057 200.05 192.364 200.66C193.666 201.259 194.703 201.941 195.468 202.701C196.244 203.467 196.828 204.378 197.218 205.431C197.619 206.472 197.822 207.696 197.822 209.097C197.822 211.962 196.765 214.259 194.656 215.993C192.557 217.733 189.583 218.696 185.739 218.889V223.118H182.51V218.889ZM193.343 209.139C193.343 208.014 193.114 207.092 192.656 206.368C192.208 205.634 191.557 205.029 190.697 204.556C189.848 204.071 188.197 203.509 185.739 202.868V215.056C188.182 214.904 190.057 214.326 191.364 213.326C192.682 212.316 193.343 210.92 193.343 209.139ZM175.739 192.097C175.739 193.128 175.953 194.003 176.385 194.722C176.812 195.431 177.458 196.029 178.322 196.514C179.182 197.003 180.578 197.488 182.51 197.972V186.993C177.994 187.243 175.739 188.946 175.739 192.097Z" fill="#1A7A5E"/>
<mask id="mask1_57_204" style="mask-type:luminance" maskUnits="userSpaceOnUse" x="-68" y="-40" width="816" height="480">
<path d="M748 -40H-68V440H748V-40Z" fill="black" fill-opacity="0.5"/>
</mask>
<g mask="url(#mask1_57_204)">
<mask id="mask2_57_204" style="mask-type:luminance" maskUnits="userSpaceOnUse" x="180" y="78" width="8" height="66">
<path d="M188 78.6666H180V144H188V78.6666Z" fill="white"/>
</mask>
<g mask="url(#mask2_57_204)">
<path d="M183.849 139.385V82.6875" stroke="white" stroke-width="4.16892"/>
</g>
</g>
<path d="M207.198 66.0156C207.198 66.7812 207.161 67.5417 207.083 68.3021C207.01 69.0625 206.901 69.8177 206.75 70.5677C206.599 71.3177 206.417 72.0573 206.193 72.7917C205.969 73.5208 205.713 74.2396 205.422 74.9479C205.13 75.6562 204.802 76.3438 204.443 77.0208C204.083 77.6927 203.687 78.349 203.266 78.9844C202.838 79.6198 202.385 80.2344 201.901 80.8229C201.411 81.4167 200.901 81.9792 200.359 82.5208C199.818 83.0625 199.255 83.5729 198.661 84.0625C198.073 84.5469 197.458 85 196.823 85.4271C196.187 85.849 195.531 86.2448 194.859 86.6042C194.182 86.9635 193.495 87.2917 192.786 87.5833C192.078 87.875 191.359 88.1302 190.63 88.3542C189.896 88.5781 189.156 88.7604 188.406 88.9115C187.656 89.0625 186.901 89.1719 186.141 89.2448C185.38 89.3229 184.614 89.3594 183.849 89.3594C183.088 89.3594 182.323 89.3229 181.562 89.2448C180.802 89.1719 180.047 89.0625 179.297 88.9115C178.547 88.7604 177.807 88.5781 177.073 88.3542C176.344 88.1302 175.625 87.875 174.917 87.5833C174.208 87.2917 173.521 86.9635 172.844 86.6042C172.172 86.2448 171.516 85.849 170.88 85.4271C170.245 85 169.63 84.5469 169.042 84.0625C168.448 83.5729 167.885 83.0625 167.344 82.5208C166.802 81.9792 166.286 81.4167 165.802 80.8229C165.318 80.2344 164.865 79.6198 164.437 78.9844C164.016 78.349 163.62 77.6927 163.26 77.0208C162.901 76.3438 162.573 75.6562 162.281 74.9479C161.989 74.2396 161.729 73.5208 161.51 72.7917C161.286 72.0573 161.104 71.3177 160.953 70.5677C160.802 69.8177 160.693 69.0625 160.614 68.3021C160.542 67.5417 160.505 66.7812 160.505 66.0156C160.505 65.25 160.542 64.4896 160.614 63.724C160.693 62.9635 160.802 62.2083 160.953 61.4583C161.104 60.7083 161.286 59.9687 161.51 59.2396C161.729 58.5052 161.989 57.7865 162.281 57.0781C162.573 56.375 162.901 55.6823 163.26 55.0104C163.62 54.3333 164.016 53.6823 164.437 53.0469C164.865 52.4062 165.318 51.7969 165.802 51.2031C166.286 50.6146 166.802 50.0469 167.344 49.5052C167.885 48.9687 168.448 48.4531 169.042 47.9687C169.63 47.4844 170.245 47.026 170.88 46.6042C171.516 46.1771 172.172 45.7865 172.844 45.4271C173.521 45.0677 174.208 44.7396 174.917 44.4479C175.625 44.1562 176.344 43.8958 177.073 43.6771C177.807 43.4531 178.547 43.2656 179.297 43.1198C180.047 42.9687 180.802 42.8542 181.562 42.7812C182.323 42.7083 183.088 42.6719 183.849 42.6719C184.614 42.6719 185.38 42.7083 186.141 42.7812C186.901 42.8542 187.656 42.9687 188.406 43.1198C189.156 43.2656 189.896 43.4531 190.63 43.6771C191.359 43.8958 192.078 44.1562 192.786 44.4479C193.495 44.7396 194.182 45.0677 194.859 45.4271C195.531 45.7865 196.187 46.1771 196.823 46.6042C197.458 47.026 198.073 47.4844 198.661 47.9687C199.255 48.4531 199.818 48.9687 200.359 49.5052C200.901 50.0469 201.411 50.6146 201.901 51.2031C202.385 51.7969 202.838 52.4062 203.266 53.0469C203.687 53.6823 204.083 54.3333 204.443 55.0104C204.802 55.6823 205.13 56.375 205.422 57.0781C205.713 57.7865 205.969 58.5052 206.193 59.2396C206.417 59.9687 206.599 60.7083 206.75 61.4583C206.901 62.2083 207.01 62.9635 207.083 63.724C207.161 64.4896 207.198 65.25 207.198 66.0156Z" fill="#27AE7A" stroke="white" stroke-opacity="0.6" stroke-width="3.33514"/>
<mask id="mask3_57_204" style="mask-type:luminance" maskUnits="userSpaceOnUse" x="-68" y="-40" width="816" height="480">
<path d="M748 -40H-68V440H748V-40Z" fill="black" fill-opacity="0.5"/>
</mask>
<g mask="url(#mask3_57_204)">
<mask id="mask4_57_204" style="mask-type:luminance" maskUnits="userSpaceOnUse" x="240" y="194" width="64" height="10">
<path d="M304 194.667H240V204H304V194.667Z" fill="white"/>
</mask>
<g mask="url(#mask4_57_204)">
<path d="M243.885 199.417H300.588" stroke="white" stroke-width="4.16892"/>
</g>
</g>
<path d="M343.942 199.417C343.942 200.177 343.906 200.943 343.833 201.703C343.755 202.464 343.646 203.219 343.495 203.969C343.349 204.719 343.161 205.458 342.937 206.193C342.719 206.922 342.458 207.641 342.166 208.349C341.875 209.052 341.547 209.745 341.187 210.417C340.828 211.094 340.432 211.75 340.01 212.385C339.583 213.021 339.13 213.635 338.646 214.224C338.161 214.818 337.646 215.38 337.104 215.922C336.567 216.464 336 216.974 335.406 217.458C334.817 217.943 334.203 218.401 333.567 218.823C332.932 219.25 332.276 219.641 331.604 220.005C330.927 220.365 330.239 220.688 329.531 220.984C328.828 221.276 328.104 221.531 327.375 221.755C326.64 221.974 325.901 222.162 325.151 222.313C324.401 222.458 323.646 222.573 322.885 222.646C322.125 222.724 321.364 222.76 320.599 222.76C319.833 222.76 319.067 222.724 318.307 222.646C317.547 222.573 316.791 222.458 316.041 222.313C315.291 222.162 314.552 221.974 313.823 221.755C313.088 221.531 312.37 221.276 311.661 220.984C310.958 220.688 310.265 220.365 309.594 220.005C308.916 219.641 308.26 219.25 307.625 218.823C306.989 218.401 306.38 217.943 305.786 217.458C305.198 216.974 304.63 216.464 304.088 215.922C303.547 215.38 303.036 214.818 302.552 214.224C302.067 213.635 301.609 213.021 301.187 212.385C300.76 211.75 300.37 211.094 300.005 210.417C299.646 209.745 299.323 209.052 299.026 208.349C298.734 207.641 298.479 206.922 298.255 206.193C298.036 205.458 297.849 204.719 297.698 203.969C297.552 203.219 297.437 202.464 297.364 201.703C297.286 200.943 297.25 200.177 297.25 199.417C297.25 198.651 297.286 197.885 297.364 197.125C297.437 196.365 297.552 195.609 297.698 194.859C297.849 194.109 298.036 193.37 298.255 192.635C298.479 191.906 298.734 191.188 299.026 190.479C299.323 189.776 299.646 189.083 300.005 188.412C300.37 187.734 300.76 187.078 301.187 186.443C301.609 185.807 302.067 185.198 302.552 184.604C303.036 184.016 303.547 183.448 304.088 182.906C304.63 182.365 305.198 181.854 305.786 181.37C306.38 180.885 306.989 180.427 307.625 180.005C308.26 179.578 308.916 179.188 309.594 178.828C310.265 178.464 310.958 178.141 311.661 177.849C312.37 177.552 313.088 177.297 313.823 177.073C314.552 176.854 315.291 176.667 316.041 176.516C316.791 176.37 317.547 176.255 318.307 176.182C319.067 176.109 319.833 176.068 320.599 176.068C321.364 176.068 322.125 176.109 322.885 176.182C323.646 176.255 324.401 176.37 325.151 176.516C325.901 176.667 326.64 176.854 327.375 177.073C328.104 177.297 328.828 177.552 329.531 177.849C330.239 178.141 330.927 178.464 331.604 178.828C332.276 179.188 332.932 179.578 333.567 180.005C334.203 180.427 334.817 180.885 335.406 181.37C336 181.854 336.567 182.365 337.104 182.906C337.646 183.448 338.161 184.016 338.646 184.604C339.13 185.198 339.583 185.807 340.01 186.443C340.432 187.078 340.828 187.734 341.187 188.412C341.547 189.083 341.875 189.776 342.166 190.479C342.458 191.188 342.719 191.906 342.937 192.635C343.161 193.37 343.349 194.109 343.495 194.859C343.646 195.609 343.755 196.365 343.833 197.125C343.906 197.885 343.942 198.651 343.942 199.417Z" fill="#27AE7A" stroke="white" stroke-opacity="0.6" stroke-width="3.33514"/>
<mask id="mask5_57_204" style="mask-type:luminance" maskUnits="userSpaceOnUse" x="-68" y="-40" width="816" height="480">
<path d="M748 -40H-68V440H748V-40Z" fill="black" fill-opacity="0.5"/>
</mask>
<g mask="url(#mask5_57_204)">
<mask id="mask6_57_204" style="mask-type:luminance" maskUnits="userSpaceOnUse" x="180" y="256" width="8" height="64">
<path d="M188 256H180V320H188V256Z" fill="white"/>
</mask>
<g mask="url(#mask6_57_204)">
<path d="M183.849 259.443V316.141" stroke="white" stroke-width="4.16892"/>
</g>
</g>
<path d="M207.198 336.151C207.198 336.911 207.161 337.677 207.083 338.438C207.01 339.198 206.901 339.953 206.75 340.703C206.599 341.453 206.417 342.193 206.193 342.927C205.969 343.656 205.713 344.375 205.422 345.083C205.13 345.792 204.802 346.479 204.443 347.156C204.083 347.828 203.687 348.484 203.266 349.12C202.838 349.755 202.385 350.37 201.901 350.958C201.411 351.552 200.901 352.115 200.359 352.656C199.818 353.198 199.255 353.708 198.661 354.193C198.073 354.682 197.458 355.135 196.823 355.563C196.187 355.984 195.531 356.375 194.859 356.74C194.182 357.099 193.495 357.427 192.786 357.719C192.078 358.01 191.359 358.266 190.63 358.49C189.896 358.714 189.156 358.896 188.406 359.047C187.656 359.193 186.901 359.307 186.141 359.38C185.38 359.458 184.614 359.495 183.849 359.495C183.088 359.495 182.323 359.458 181.562 359.38C180.802 359.307 180.047 359.193 179.297 359.047C178.547 358.896 177.807 358.714 177.073 358.49C176.344 358.266 175.625 358.01 174.917 357.719C174.208 357.427 173.521 357.099 172.844 356.74C172.172 356.375 171.516 355.984 170.88 355.563C170.245 355.135 169.63 354.682 169.042 354.193C168.448 353.708 167.885 353.198 167.344 352.656C166.802 352.115 166.286 351.552 165.802 350.958C165.318 350.37 164.865 349.755 164.437 349.12C164.016 348.484 163.62 347.828 163.26 347.156C162.901 346.479 162.573 345.792 162.281 345.083C161.989 344.375 161.729 343.656 161.51 342.927C161.286 342.193 161.104 341.453 160.953 340.703C160.802 339.953 160.693 339.198 160.614 338.438C160.542 337.677 160.505 336.911 160.505 336.151C160.505 335.385 160.542 334.62 160.614 333.859C160.693 333.099 160.802 332.344 160.953 331.594C161.104 330.844 161.286 330.104 161.51 329.375C161.729 328.641 161.989 327.922 162.281 327.214C162.573 326.51 162.901 325.818 163.26 325.146C163.62 324.469 164.016 323.818 164.437 323.177C164.865 322.542 165.318 321.932 165.802 321.339C166.286 320.75 166.802 320.182 167.344 319.641C167.885 319.099 168.448 318.589 169.042 318.104C169.63 317.62 170.245 317.161 170.88 316.74C171.516 316.313 172.172 315.922 172.844 315.563C173.521 315.198 174.208 314.875 174.917 314.583C175.625 314.286 176.344 314.031 177.073 313.807C177.807 313.589 178.547 313.401 179.297 313.255C180.047 313.104 180.802 312.99 181.562 312.917C182.323 312.844 183.088 312.802 183.849 312.802C184.614 312.802 185.38 312.844 186.141 312.917C186.901 312.99 187.656 313.104 188.406 313.255C189.156 313.401 189.896 313.589 190.63 313.807C191.359 314.031 192.078 314.286 192.786 314.583C193.495 314.875 194.182 315.198 194.859 315.563C195.531 315.922 196.187 316.313 196.823 316.74C197.458 317.161 198.073 317.62 198.661 318.104C199.255 318.589 199.818 319.099 200.359 319.641C200.901 320.182 201.411 320.75 201.901 321.339C202.385 321.932 202.838 322.542 203.266 323.177C203.687 323.818 204.083 324.469 204.443 325.146C204.802 325.818 205.13 326.51 205.422 327.214C205.713 327.922 205.969 328.641 206.193 329.375C206.417 330.104 206.599 330.844 206.75 331.594C206.901 332.344 207.01 333.099 207.083 333.859C207.161 334.62 207.198 335.385 207.198 336.151Z" fill="#27AE7A" stroke="white" stroke-opacity="0.6" stroke-width="3.33514"/>
<mask id="mask7_57_204" style="mask-type:luminance" maskUnits="userSpaceOnUse" x="-68" y="-40" width="816" height="480">
<path d="M748 -40H-68V440H748V-40Z" fill="black" fill-opacity="0.5"/>
</mask>
<g mask="url(#mask7_57_204)">
<mask id="mask8_57_204" style="mask-type:luminance" maskUnits="userSpaceOnUse" x="62" y="194" width="66" height="10">
<path d="M128 194.667H62.6667V204H128V194.667Z" fill="white"/>
</mask>
<g mask="url(#mask8_57_204)">
<path d="M123.818 199.417H67.1145" stroke="white" stroke-width="4.16892"/>
</g>
</g>
<path d="M70.453 199.417C70.453 200.177 70.4165 200.943 70.3384 201.703C70.2655 202.464 70.1509 203.219 70.005 203.969C69.854 204.719 69.6665 205.458 69.4478 206.193C69.2238 206.922 68.9686 207.641 68.6769 208.349C68.38 209.052 68.0571 209.745 67.6925 210.417C67.3332 211.094 66.9425 211.75 66.5154 212.385C66.0936 213.021 65.6352 213.635 65.1509 214.224C64.6665 214.818 64.1561 215.38 63.6144 215.922C63.0727 216.464 62.505 216.974 61.9165 217.458C61.3228 217.943 60.7134 218.401 60.078 218.823C59.4425 219.25 58.7863 219.641 58.1092 220.005C57.4373 220.365 56.7446 220.688 56.0415 220.984C55.3332 221.276 54.6144 221.531 53.88 221.755C53.1509 221.974 52.4113 222.162 51.6613 222.313C50.9113 222.458 50.1561 222.573 49.3957 222.646C48.63 222.724 47.8696 222.76 47.104 222.76C46.3384 222.76 45.578 222.724 44.8175 222.646C44.0571 222.573 43.3019 222.458 42.5519 222.313C41.8019 222.162 41.0571 221.974 40.328 221.755C39.5936 221.531 38.8748 221.276 38.1717 220.984C37.4634 220.688 36.7759 220.365 36.0988 220.005C35.4269 219.641 34.7707 219.25 34.1353 218.823C33.4998 218.401 32.8852 217.943 32.2915 217.458C31.703 216.974 31.1353 216.464 30.5936 215.922C30.0571 215.38 29.5415 214.818 29.0571 214.224C28.5728 213.635 28.1196 213.021 27.6925 212.385C27.2655 211.75 26.8748 211.094 26.5155 210.417C26.1561 209.745 25.828 209.052 25.5363 208.349C25.2446 207.641 24.9842 206.922 24.7655 206.193C24.5415 205.458 24.354 204.719 24.2082 203.969C24.0571 203.219 23.9478 202.464 23.8696 201.703C23.7967 200.943 23.7603 200.177 23.7603 199.417C23.7603 198.651 23.7967 197.885 23.8696 197.125C23.9478 196.365 24.0571 195.609 24.2082 194.859C24.354 194.109 24.5415 193.37 24.7655 192.635C24.9842 191.906 25.2446 191.188 25.5363 190.479C25.828 189.776 26.1561 189.083 26.5155 188.412C26.8748 187.734 27.2655 187.078 27.6925 186.443C28.1196 185.807 28.5728 185.198 29.0571 184.604C29.5415 184.016 30.0571 183.448 30.5936 182.906C31.1353 182.365 31.703 181.854 32.2915 181.37C32.8852 180.885 33.4998 180.427 34.1353 180.005C34.7707 179.578 35.4269 179.188 36.0988 178.828C36.7759 178.464 37.4634 178.141 38.1717 177.849C38.8748 177.552 39.5936 177.297 40.328 177.073C41.0571 176.854 41.8019 176.667 42.5519 176.516C43.3019 176.37 44.0571 176.255 44.8175 176.182C45.578 176.109 46.3384 176.068 47.104 176.068C47.8696 176.068 48.63 176.109 49.3957 176.182C50.1561 176.255 50.9113 176.37 51.6613 176.516C52.4113 176.667 53.1509 176.854 53.88 177.073C54.6144 177.297 55.3332 177.552 56.0415 177.849C56.7446 178.141 57.4373 178.464 58.1092 178.828C58.7863 179.188 59.4425 179.578 60.078 180.005C60.7134 180.427 61.3228 180.885 61.9165 181.37C62.505 181.854 63.0727 182.365 63.6144 182.906C64.1561 183.448 64.6665 184.016 65.1509 184.604C65.6352 185.198 66.0936 185.807 66.5154 186.443C66.9425 187.078 67.3332 187.734 67.6925 188.412C68.0571 189.083 68.38 189.776 68.6769 190.479C68.9686 191.188 69.2238 191.906 69.4478 192.635C69.6665 193.37 69.854 194.109 70.005 194.859C70.1509 195.609 70.2655 196.365 70.3384 197.125C70.4165 197.885 70.453 198.651 70.453 199.417Z" fill="#27AE7A" stroke="white" stroke-opacity="0.6" stroke-width="3.33514"/>
<path d="M183.849 54.3438L188.854 66.0156H178.849L183.849 54.3438Z" fill="white" fill-opacity="0.9"/>
<path d="M183.849 347.823L188.854 336.151H178.849L183.849 347.823Z" fill="white" fill-opacity="0.9"/>
<path d="M332.271 199.417L320.599 194.411V204.417L332.271 199.417Z" fill="white" fill-opacity="0.9"/>
<path d="M38.7655 192.745H55.4426C55.6666 192.745 55.8749 192.786 56.0833 192.87C56.2864 192.958 56.4635 193.078 56.6249 193.234C56.7812 193.391 56.901 193.568 56.9843 193.776C57.0676 193.979 57.1093 194.193 57.1093 194.411V195.245C57.1093 195.469 57.0676 195.677 56.9843 195.885C56.901 196.089 56.7812 196.271 56.6249 196.427C56.4635 196.583 56.2864 196.703 56.0833 196.786C55.8749 196.87 55.6666 196.911 55.4426 196.911H38.7655C38.5468 196.911 38.3333 196.87 38.1301 196.786C37.9218 196.703 37.7447 196.583 37.5885 196.427C37.4322 196.271 37.3124 196.089 37.2239 195.885C37.1405 195.677 37.0989 195.469 37.0989 195.245V194.411C37.0989 194.193 37.1405 193.979 37.2239 193.776C37.3124 193.568 37.4322 193.391 37.5885 193.234C37.7447 193.078 37.9218 192.958 38.1301 192.87C38.3333 192.786 38.5468 192.745 38.7655 192.745Z" fill="white" fill-opacity="0.9"/>
<path d="M38.7655 199.417H50.4426C50.6614 199.417 50.8749 199.458 51.078 199.542C51.2812 199.625 51.4635 199.745 51.6197 199.901C51.776 200.057 51.8958 200.24 51.9791 200.443C52.0676 200.646 52.1093 200.859 52.1093 201.083V201.917C52.1093 202.135 52.0676 202.349 51.9791 202.552C51.8958 202.76 51.776 202.937 51.6197 203.094C51.4635 203.25 51.2812 203.37 51.078 203.458C50.8749 203.542 50.6614 203.583 50.4426 203.583H38.7655C38.5468 203.583 38.3333 203.542 38.1301 203.458C37.9218 203.37 37.7447 203.25 37.5885 203.094C37.4322 202.937 37.3124 202.76 37.2239 202.552C37.1405 202.349 37.0989 202.135 37.0989 201.917V201.083C37.0989 200.859 37.1405 200.646 37.2239 200.443C37.3124 200.24 37.4322 200.057 37.5885 199.901C37.7447 199.745 37.9218 199.625 38.1301 199.542C38.3333 199.458 38.5468 199.417 38.7655 199.417Z" fill="white" fill-opacity="0.9"/>
<path d="M38.7655 206.083H55.4426C55.6666 206.083 55.8749 206.125 56.0833 206.214C56.2864 206.297 56.4635 206.417 56.6249 206.573C56.7812 206.729 56.901 206.911 56.9843 207.115C57.0676 207.318 57.1093 207.531 57.1093 207.75V208.583C57.1093 208.807 57.0676 209.021 56.9843 209.224C56.901 209.427 56.7812 209.609 56.6249 209.766C56.4635 209.922 56.2864 210.042 56.0833 210.125C55.8749 210.208 55.6666 210.255 55.4426 210.255H38.7655C38.5468 210.255 38.3333 210.208 38.1301 210.125C37.9218 210.042 37.7447 209.922 37.5885 209.766C37.4322 209.609 37.3124 209.427 37.2239 209.224C37.1405 209.021 37.0989 208.807 37.0989 208.583V207.75C37.0989 207.531 37.1405 207.318 37.2239 207.115C37.3124 206.911 37.4322 206.729 37.5885 206.573C37.7447 206.417 37.9218 206.297 38.1301 206.214C38.3333 206.125 38.5468 206.083 38.7655 206.083Z" fill="white" fill-opacity="0.9"/>
<path d="M471.806 174.389V134.597C471.806 130.196 471.931 125.962 472.181 121.889C470.806 126.946 469.561 130.899 468.452 133.743L453.056 174.389H447.369L431.764 133.743L429.389 126.556L427.994 121.889L428.119 126.597L428.285 134.597V174.389H421.077V114.743H431.723L447.598 156.097C448.15 157.764 448.686 159.55 449.202 161.451C449.728 163.358 450.082 164.733 450.264 165.576C450.483 164.451 450.957 162.743 451.681 160.451C452.4 158.149 452.889 156.696 453.139 156.097L468.723 114.743H479.098V174.389H471.806Z" fill="white"/>
<path d="M530.782 151.451C530.782 159.467 529.017 165.441 525.491 169.368C521.96 173.285 516.835 175.243 510.116 175.243C503.434 175.243 498.387 173.201 494.97 169.118C491.553 165.035 489.845 159.149 489.845 151.451C489.845 135.634 496.684 127.722 510.366 127.722C517.366 127.722 522.517 129.655 525.824 133.514C529.126 137.363 530.782 143.342 530.782 151.451ZM522.782 151.451C522.782 145.118 521.845 140.524 519.97 137.66C518.095 134.8 514.934 133.368 510.491 133.368C506.032 133.368 502.809 134.826 500.824 137.743C498.835 140.66 497.845 145.233 497.845 151.451C497.845 157.483 498.824 162.014 500.782 165.056C502.741 168.087 505.824 169.597 510.032 169.597C514.6 169.597 517.866 168.134 519.824 165.201C521.793 162.274 522.782 157.691 522.782 151.451Z" fill="white"/>
<path d="M569.358 174.389V145.347C569.358 142.321 569.056 139.983 568.462 138.326C567.863 136.66 566.91 135.462 565.608 134.722C564.316 133.988 562.41 133.618 559.9 133.618C556.233 133.618 553.337 134.879 551.212 137.389C549.098 139.905 548.046 143.389 548.046 147.847V174.389H540.441V138.368C540.441 133.024 540.348 129.759 540.171 128.576H547.379C547.405 128.717 547.431 129.097 547.462 129.722C547.488 130.347 547.525 131.066 547.566 131.868C547.608 132.675 547.655 134.191 547.712 136.41H547.837C549.587 133.243 551.608 131.009 553.9 129.701C556.202 128.384 559.066 127.722 562.483 127.722C567.509 127.722 571.181 128.972 573.504 131.472C575.837 133.972 577.004 138.108 577.004 143.868V174.389H569.358Z" fill="white"/>
<path d="M594.33 153.097C594.33 158.347 595.413 162.399 597.58 165.243C599.757 168.092 602.939 169.514 607.121 169.514C610.413 169.514 613.048 168.858 615.038 167.535C617.038 166.201 618.392 164.524 619.1 162.493L625.788 164.389C623.048 171.629 616.83 175.243 607.121 175.243C600.34 175.243 595.184 173.222 591.642 169.181C588.1 165.139 586.33 159.139 586.33 151.181C586.33 143.629 588.1 137.826 591.642 133.785C595.184 129.743 600.236 127.722 606.809 127.722C620.278 127.722 627.017 135.842 627.017 152.076V153.097H594.33ZM619.142 147.243C618.71 142.425 617.481 138.91 615.455 136.701C613.423 134.483 610.501 133.368 606.684 133.368C602.986 133.368 600.059 134.608 597.892 137.076C595.736 139.535 594.58 142.925 594.413 147.243H619.142Z" fill="white"/>
<path d="M638.947 192.389C636.864 192.389 635.114 192.227 633.697 191.91V186.201C634.765 186.368 635.952 186.451 637.26 186.451C641.994 186.451 645.744 182.962 648.51 175.993L649.239 174.181L631.072 128.576H639.197L648.864 153.889C648.999 154.295 649.166 154.774 649.364 155.326C649.556 155.868 650.187 157.712 651.26 160.847C652.343 163.972 652.926 165.722 653.01 166.097L655.968 157.743L666.01 128.576H674.051L656.426 174.389C654.536 179.274 652.77 182.91 651.135 185.285C649.51 187.67 647.697 189.451 645.697 190.618C643.707 191.795 641.457 192.389 638.947 192.389Z" fill="white"/>
<path d="M461.431 269.445V241.799H429.181V269.445H421.077V209.799H429.181V235.028H461.431V209.799H469.514V269.445H461.431Z" fill="white"/>
<path d="M489.881 223.632V252.674C489.881 255.705 490.172 258.049 490.756 259.716C491.349 261.372 492.297 262.565 493.589 263.299C494.891 264.039 496.802 264.403 499.318 264.403C502.985 264.403 505.87 263.148 507.985 260.632C510.11 258.122 511.172 254.632 511.172 250.174V223.632H518.797V259.674C518.797 265.007 518.881 268.268 519.047 269.445H511.86C511.828 269.309 511.802 268.924 511.776 268.299C511.745 267.674 511.714 266.966 511.672 266.174C511.631 265.372 511.578 263.851 511.526 261.611H511.381C509.631 264.778 507.599 267.023 505.297 268.341C503.006 269.643 500.151 270.299 496.735 270.299C491.719 270.299 488.047 269.049 485.714 266.549C483.381 264.049 482.214 259.919 482.214 254.153V223.632H489.881Z" fill="white"/>
<path d="M569.394 246.32C569.394 262.309 563.774 270.299 552.539 270.299C549.065 270.299 546.175 269.674 543.873 268.424C541.581 267.164 539.711 265.132 538.269 262.341H538.185C538.185 263.216 538.128 264.549 538.019 266.341C537.904 268.132 537.821 269.169 537.769 269.445H530.394C530.56 267.919 530.644 264.773 530.644 260.007V206.611H538.269V224.528C538.269 226.361 538.211 228.523 538.102 231.007H538.269C539.685 228.065 541.55 225.96 543.873 224.695C546.206 223.419 549.091 222.778 552.539 222.778C558.331 222.778 562.586 224.731 565.31 228.632C568.029 232.523 569.394 238.419 569.394 246.32ZM561.394 246.591C561.394 240.174 560.545 235.585 558.852 232.82C557.154 230.059 554.404 228.674 550.602 228.674C546.31 228.674 543.175 230.148 541.206 233.091C539.248 236.023 538.269 240.674 538.269 247.049C538.269 253.065 539.227 257.502 541.144 260.361C543.071 263.226 546.196 264.653 550.519 264.653C554.352 264.653 557.123 263.236 558.831 260.403C560.539 257.57 561.394 252.966 561.394 246.591Z" fill="white"/>
<path d="M421.029 324.463V307.255H434.092V309.172H423.363V314.692H433.363V316.567H423.363V322.567H434.592V324.463H421.029Z" fill="white"/>
<path d="M449.243 324.463L444.077 316.942L438.806 324.463H436.222L442.764 315.526L436.722 307.255H439.306L444.077 314.005L448.743 307.255H451.306L445.431 315.442L451.806 324.463H449.243Z" fill="white"/>
<path d="M467.686 312.442C467.686 314.067 467.15 315.359 466.082 316.317C465.025 317.276 463.587 317.755 461.77 317.755H456.707V324.463H454.374V307.255H461.624C463.551 307.255 465.046 307.708 466.103 308.609C467.155 309.515 467.686 310.791 467.686 312.442ZM465.353 312.463C465.353 310.244 464.009 309.13 461.332 309.13H456.707V315.922H461.436C464.046 315.922 465.353 314.771 465.353 312.463Z" fill="white"/>
<path d="M471.046 324.463V307.255H484.109V309.172H473.379V314.692H483.379V316.567H473.379V322.567H484.609V324.463H471.046Z" fill="white"/>
<path d="M498.885 324.463L489.677 309.817L489.739 311.005L489.802 313.047V324.463H487.718V307.255H490.447L499.739 322.005C499.64 320.411 499.593 319.255 499.593 318.547V307.255H501.697V324.463H498.885Z" fill="white"/>
<path d="M519.249 319.713C519.249 321.297 518.629 322.526 517.395 323.401C516.155 324.276 514.405 324.713 512.145 324.713C507.962 324.713 505.53 323.255 504.853 320.338L507.124 319.88C507.384 320.922 507.942 321.687 508.791 322.172C509.634 322.646 510.78 322.88 512.228 322.88C513.738 322.88 514.905 322.625 515.728 322.109C516.546 321.599 516.957 320.838 516.957 319.838C516.957 319.271 516.822 318.812 516.561 318.463C516.311 318.119 515.947 317.833 515.478 317.609C515.02 317.375 514.462 317.182 513.811 317.026C513.171 316.875 512.462 316.708 511.686 316.526C510.322 316.224 509.291 315.922 508.582 315.63C507.884 315.328 507.332 314.994 506.916 314.63C506.509 314.255 506.197 313.817 505.978 313.317C505.77 312.817 505.666 312.25 505.666 311.609C505.666 310.14 506.228 309.005 507.353 308.213C508.478 307.411 510.093 307.005 512.207 307.005C514.15 307.005 515.634 307.307 516.666 307.901C517.707 308.5 518.436 309.521 518.853 310.963L516.561 311.359C516.311 310.458 515.832 309.797 515.124 309.38C514.416 308.963 513.426 308.755 512.166 308.755C510.791 308.755 509.738 308.984 509.02 309.442C508.296 309.901 507.936 310.583 507.936 311.484C507.936 312.015 508.072 312.453 508.353 312.797C508.645 313.146 509.051 313.442 509.582 313.692C510.108 313.932 511.155 314.224 512.728 314.567C513.27 314.692 513.796 314.817 514.311 314.942C514.837 315.067 515.337 315.224 515.811 315.401C516.296 315.567 516.749 315.771 517.166 316.005C517.593 316.244 517.962 316.536 518.27 316.88C518.572 317.213 518.811 317.619 518.978 318.088C519.155 318.547 519.249 319.088 519.249 319.713Z" fill="white"/>
<path d="M522.442 324.463V307.255H535.505V309.172H524.775V314.692H534.775V316.567H524.775V322.567H536.005V324.463H522.442Z" fill="white"/>
<path d="M552.357 309.172V324.463H550.045V309.172H544.128V307.255H558.253V309.172H552.357Z" fill="white"/>
<path d="M573.043 324.463L568.584 317.317H563.209V324.463H560.876V307.255H568.98C570.907 307.255 572.402 307.692 573.459 308.567C574.511 309.432 575.043 310.64 575.043 312.192C575.043 313.474 574.668 314.547 573.918 315.422C573.178 316.286 572.157 316.828 570.855 317.047L575.73 324.463H573.043ZM572.709 312.213C572.709 311.213 572.366 310.453 571.688 309.922C571.006 309.396 570.027 309.13 568.751 309.13H563.209V315.484H568.834C570.069 315.484 571.022 315.203 571.688 314.63C572.366 314.047 572.709 313.244 572.709 312.213Z" fill="white"/>
<path d="M591.136 324.463L589.157 319.442H581.323L579.344 324.463H576.927L583.948 307.255H586.594L593.511 324.463H591.136ZM585.24 309.026L585.136 309.359C584.927 310.041 584.625 310.911 584.24 311.963L582.032 317.609H588.469L586.261 311.942C586.037 311.375 585.808 310.734 585.573 310.026L585.24 309.026Z" fill="white"/>
<path d="M603.225 308.922C601.318 308.922 599.839 309.536 598.787 310.755C597.73 311.979 597.204 313.651 597.204 315.776C597.204 317.89 597.751 319.588 598.85 320.88C599.943 322.161 601.438 322.797 603.329 322.797C605.73 322.797 607.537 321.604 608.746 319.213L610.662 320.172C609.954 321.646 608.954 322.771 607.662 323.547C606.381 324.328 604.897 324.713 603.204 324.713C601.48 324.713 599.98 324.354 598.704 323.63C597.438 322.911 596.475 321.88 595.808 320.547C595.152 319.203 594.829 317.609 594.829 315.776C594.829 313.041 595.563 310.896 597.037 309.338C598.522 307.786 600.579 307.005 603.204 307.005C605.037 307.005 606.563 307.369 607.787 308.088C609.022 308.797 609.923 309.859 610.496 311.276L608.287 312.005C607.897 311.005 607.256 310.244 606.371 309.713C605.48 309.187 604.433 308.922 603.225 308.922Z" fill="white"/>
<path d="M625.11 324.463L618.235 316.172L615.985 317.88V324.463H613.651V307.255H615.985V315.88L624.276 307.255H627.026L619.693 314.734L628.006 324.463H625.11Z" fill="white"/>
<path d="M630.323 324.463V307.255H643.386V309.172H632.657V314.692H642.657V316.567H632.657V322.567H643.886V324.463H630.323Z" fill="white"/>
<path d="M659.163 324.463L654.704 317.317H649.329V324.463H646.996V307.255H655.1C657.027 307.255 658.522 307.692 659.579 308.567C660.631 309.432 661.163 310.64 661.163 312.192C661.163 313.474 660.788 314.547 660.038 315.422C659.298 316.286 658.277 316.828 656.975 317.047L661.85 324.463H659.163ZM658.829 312.213C658.829 311.213 658.485 310.453 657.808 309.922C657.126 309.396 656.147 309.13 654.871 309.13H649.329V315.484H654.954C656.189 315.484 657.142 315.203 657.808 314.63C658.485 314.047 658.829 313.244 658.829 312.213Z" fill="white"/>
<path d="M416.484 287.792H498.203C498.531 287.792 498.854 287.854 499.156 287.984C499.464 288.109 499.734 288.292 499.969 288.526C500.203 288.76 500.385 289.031 500.51 289.333C500.641 289.641 500.703 289.964 500.703 290.292C500.703 290.625 500.641 290.943 500.51 291.25C500.385 291.557 500.203 291.828 499.969 292.063C499.734 292.297 499.464 292.479 499.156 292.604C498.854 292.729 498.531 292.797 498.203 292.797H416.484C416.156 292.797 415.839 292.729 415.531 292.604C415.224 292.479 414.953 292.297 414.719 292.063C414.484 291.828 414.302 291.557 414.177 291.25C414.047 290.943 413.984 290.625 413.984 290.292C413.984 289.964 414.047 289.641 414.177 289.333C414.302 289.031 414.484 288.76 414.719 288.526C414.953 288.292 415.224 288.109 415.531 287.984C415.839 287.854 416.156 287.792 416.484 287.792Z" fill="#1A7A5E"/>
</g>
<defs>
<clipPath id="clip0_57_204">
<rect width="680" height="400" fill="white"/>
</clipPath>
</defs>
</svg>
