<svg xmlns="http://www.w3.org/2000/svg" xmlns:xlink="http://www.w3.org/1999/xlink" width="680" zoomAndPan="magnify" viewBox="0 0 510 299.999988" height="400" preserveAspectRatio="xMidYMid meet" version="1.0"><defs><filter x="0%" y="0%" width="100%" height="100%" id="2c2090b7cc"><feColorMatrix values="0 0 0 0 1 0 0 0 0 1 0 0 0 0 1 0 0 0 1 0" color-interpolation-filters="sRGB"/></filter><g/><clipPath id="673fd2d1d7"><path d="M 0 11.453125 L 276 11.453125 L 276 288 L 0 288 Z M 0 11.453125 " clip-rule="nonzero"/></clipPath><mask id="96d70e3356"><g filter="url(#2c2090b7cc)"><rect x="-51" width="612" fill="#000000" y="-29.999999" height="359.999986" fill-opacity="0.5"/></g></mask><clipPath id="f4a09b87aa"><rect x="0" width="6" y="0" height="49"/></clipPath><mask id="7de4460028"><g filter="url(#2c2090b7cc)"><rect x="-51" width="612" fill="#000000" y="-29.999999" height="359.999986" fill-opacity="0.5"/></g></mask><clipPath id="cc44ad94ca"><rect x="0" width="48" y="0" height="7"/></clipPath><mask id="1749f2d0f9"><g filter="url(#2c2090b7cc)"><rect x="-51" width="612" fill="#000000" y="-29.999999" height="359.999986" fill-opacity="0.5"/></g></mask><clipPath id="827e72d8b2"><rect x="0" width="6" y="0" height="48"/></clipPath><mask id="67db3ef28e"><g filter="url(#2c2090b7cc)"><rect x="-51" width="612" fill="#000000" y="-29.999999" height="359.999986" fill-opacity="0.5"/></g></mask><clipPath id="cb16dac842"><rect x="0" width="49" y="0" height="7"/></clipPath></defs><g clip-path="url(#673fd2d1d7)"><path fill="#1a7a5e" d="M 275.46875 149.5625 C 275.46875 151.8125 275.414062 154.0625 275.304688 156.3125 C 275.191406 158.558594 275.027344 160.804688 274.804688 163.042969 C 274.585938 165.285156 274.308594 167.519531 273.980469 169.746094 C 273.648438 171.972656 273.265625 174.191406 272.824219 176.398438 C 272.386719 178.605469 271.894531 180.804688 271.34375 182.988281 C 270.796875 185.171875 270.199219 187.339844 269.542969 189.496094 C 268.890625 191.648438 268.183594 193.785156 267.425781 195.90625 C 266.667969 198.027344 265.859375 200.125 264.996094 202.207031 C 264.132812 204.285156 263.222656 206.34375 262.257812 208.378906 C 261.296875 210.414062 260.285156 212.425781 259.222656 214.410156 C 258.160156 216.394531 257.050781 218.355469 255.894531 220.285156 C 254.738281 222.214844 253.53125 224.117188 252.28125 225.988281 C 251.03125 227.863281 249.734375 229.703125 248.394531 231.511719 C 247.050781 233.320312 245.667969 235.09375 244.238281 236.832031 C 242.8125 238.574219 241.339844 240.277344 239.828125 241.945312 C 238.316406 243.613281 236.765625 245.246094 235.171875 246.835938 C 233.582031 248.429688 231.949219 249.980469 230.28125 251.492188 C 228.613281 253.003906 226.910156 254.472656 225.167969 255.902344 C 223.429688 257.332031 221.652344 258.714844 219.84375 260.058594 C 218.035156 261.398438 216.195312 262.695312 214.324219 263.945312 C 212.453125 265.195312 210.550781 266.398438 208.617188 267.558594 C 206.6875 268.714844 204.730469 269.824219 202.742188 270.886719 C 200.757812 271.945312 198.746094 272.957031 196.710938 273.921875 C 194.675781 274.882812 192.617188 275.796875 190.539062 276.65625 C 188.457031 277.519531 186.359375 278.328125 184.238281 279.085938 C 182.117188 279.847656 179.980469 280.550781 177.824219 281.207031 C 175.671875 281.859375 173.5 282.460938 171.316406 283.007812 C 169.132812 283.554688 166.9375 284.046875 164.730469 284.484375 C 162.519531 284.925781 160.304688 285.308594 158.074219 285.640625 C 155.847656 285.972656 153.613281 286.246094 151.375 286.46875 C 149.132812 286.6875 146.886719 286.851562 144.640625 286.964844 C 142.390625 287.074219 140.140625 287.128906 137.886719 287.128906 C 135.636719 287.128906 133.386719 287.074219 131.136719 286.964844 C 128.890625 286.851562 126.644531 286.6875 124.402344 286.46875 C 122.164062 286.246094 119.929688 285.972656 117.703125 285.640625 C 115.472656 285.308594 113.257812 284.925781 111.046875 284.484375 C 108.839844 284.046875 106.644531 283.554688 104.460938 283.007812 C 102.273438 282.460938 100.105469 281.859375 97.949219 281.207031 C 95.796875 280.550781 93.660156 279.847656 91.539062 279.085938 C 89.417969 278.328125 87.320312 277.519531 85.238281 276.65625 C 83.160156 275.796875 81.101562 274.882812 79.066406 273.921875 C 77.03125 272.957031 75.019531 271.945312 73.035156 270.886719 C 71.046875 269.824219 69.089844 268.714844 67.160156 267.558594 C 65.226562 266.398438 63.324219 265.195312 61.453125 263.945312 C 59.582031 262.695312 57.742188 261.398438 55.933594 260.058594 C 54.125 258.714844 52.347656 257.332031 50.609375 255.902344 C 48.867188 254.472656 47.164062 253.003906 45.496094 251.492188 C 43.828125 249.980469 42.195312 248.429688 40.605469 246.835938 C 39.011719 245.246094 37.460938 243.613281 35.949219 241.945312 C 34.4375 240.277344 32.964844 238.574219 31.539062 236.832031 C 30.109375 235.09375 28.722656 233.320312 27.382812 231.511719 C 26.042969 229.703125 24.746094 227.863281 23.496094 225.988281 C 22.242188 224.117188 21.039062 222.214844 19.882812 220.285156 C 18.722656 218.355469 17.613281 216.394531 16.554688 214.410156 C 15.492188 212.425781 14.480469 210.414062 13.515625 208.378906 C 12.554688 206.34375 11.644531 204.285156 10.78125 202.207031 C 9.917969 200.125 9.109375 198.027344 8.351562 195.90625 C 7.59375 193.785156 6.886719 191.648438 6.234375 189.496094 C 5.578125 187.339844 4.980469 185.171875 4.429688 182.988281 C 3.882812 180.804688 3.390625 178.605469 2.953125 176.398438 C 2.511719 174.191406 2.128906 171.972656 1.796875 169.746094 C 1.46875 167.519531 1.191406 165.285156 0.972656 163.042969 C 0.75 160.804688 0.585938 158.558594 0.472656 156.3125 C 0.363281 154.0625 0.308594 151.8125 0.308594 149.5625 C 0.308594 147.308594 0.363281 145.058594 0.472656 142.8125 C 0.585938 140.5625 0.75 138.316406 0.972656 136.078125 C 1.191406 133.835938 1.46875 131.601562 1.796875 129.375 C 2.128906 127.148438 2.511719 124.929688 2.953125 122.722656 C 3.390625 120.515625 3.882812 118.316406 4.429688 116.132812 C 4.980469 113.949219 5.578125 111.78125 6.234375 109.625 C 6.886719 107.472656 7.59375 105.335938 8.351562 103.214844 C 9.109375 101.09375 9.917969 98.996094 10.78125 96.914062 C 11.644531 94.835938 12.554688 92.777344 13.515625 90.742188 C 14.480469 88.707031 15.492188 86.695312 16.554688 84.710938 C 17.613281 82.726562 18.722656 80.765625 19.882812 78.835938 C 21.039062 76.90625 22.242188 75.003906 23.496094 73.132812 C 24.746094 71.257812 26.042969 69.417969 27.382812 67.609375 C 28.722656 65.804688 30.109375 64.027344 31.539062 62.289062 C 32.964844 60.546875 34.4375 58.84375 35.949219 57.175781 C 37.460938 55.507812 39.011719 53.878906 40.605469 52.285156 C 42.195312 50.691406 43.828125 49.140625 45.496094 47.628906 C 47.164062 46.117188 48.867188 44.648438 50.609375 43.21875 C 52.347656 41.789062 54.125 40.40625 55.933594 39.066406 C 57.742188 37.722656 59.582031 36.425781 61.453125 35.175781 C 63.324219 33.925781 65.226562 32.722656 67.160156 31.5625 C 69.089844 30.40625 71.046875 29.296875 73.035156 28.234375 C 75.019531 27.175781 77.03125 26.164062 79.066406 25.199219 C 81.101562 24.238281 83.160156 23.324219 85.238281 22.464844 C 87.320312 21.601562 89.417969 20.792969 91.539062 20.035156 C 93.660156 19.273438 95.796875 18.570312 97.949219 17.914062 C 100.105469 17.261719 102.273438 16.660156 104.460938 16.113281 C 106.644531 15.566406 108.839844 15.074219 111.046875 14.636719 C 113.257812 14.195312 115.472656 13.8125 117.703125 13.480469 C 119.929688 13.152344 122.164062 12.875 124.402344 12.65625 C 126.644531 12.433594 128.890625 12.269531 131.136719 12.15625 C 133.386719 12.046875 135.636719 11.992188 137.886719 11.992188 C 140.140625 11.992188 142.390625 12.046875 144.640625 12.15625 C 146.886719 12.269531 149.132812 12.433594 151.375 12.65625 C 153.613281 12.875 155.847656 13.152344 158.074219 13.480469 C 160.304688 13.8125 162.519531 14.195312 164.730469 14.636719 C 166.9375 15.074219 169.132812 15.566406 171.316406 16.113281 C 173.5 16.660156 175.671875 17.261719 177.824219 17.914062 C 179.980469 18.570312 182.117188 19.273438 184.238281 20.035156 C 186.359375 20.792969 188.457031 21.601562 190.539062 22.464844 C 192.617188 23.324219 194.675781 24.238281 196.710938 25.199219 C 198.746094 26.164062 200.757812 27.175781 202.742188 28.234375 C 204.730469 29.296875 206.6875 30.40625 208.617188 31.5625 C 210.550781 32.722656 212.453125 33.925781 214.324219 35.175781 C 216.195312 36.425781 218.035156 37.722656 219.84375 39.066406 C 221.652344 40.40625 223.429688 41.789062 225.167969 43.21875 C 226.910156 44.648438 228.613281 46.117188 230.28125 47.628906 C 231.949219 49.140625 233.582031 50.691406 235.171875 52.285156 C 236.765625 53.878906 238.316406 55.507812 239.828125 57.175781 C 241.339844 58.84375 242.8125 60.546875 244.238281 62.289062 C 245.667969 64.027344 247.050781 65.804688 248.394531 67.609375 C 249.734375 69.417969 251.03125 71.257812 252.28125 73.132812 C 253.53125 75.003906 254.738281 76.90625 255.894531 78.835938 C 257.050781 80.765625 258.160156 82.726562 259.222656 84.710938 C 260.285156 86.695312 261.296875 88.707031 262.257812 90.742188 C 263.222656 92.777344 264.132812 94.835938 264.996094 96.914062 C 265.859375 98.996094 266.667969 101.09375 267.425781 103.214844 C 268.183594 105.335938 268.890625 107.472656 269.542969 109.625 C 270.199219 111.78125 270.796875 113.949219 271.34375 116.132812 C 271.894531 118.316406 272.386719 120.515625 272.824219 122.722656 C 273.265625 124.929688 273.648438 127.148438 273.980469 129.375 C 274.308594 131.601562 274.585938 133.835938 274.804688 136.078125 C 275.027344 138.316406 275.191406 140.5625 275.304688 142.8125 C 275.414062 145.058594 275.46875 147.308594 275.46875 149.5625 Z M 275.46875 149.5625 " fill-opacity="1" fill-rule="nonzero"/></g><path stroke-linecap="butt" transform="matrix(1.250728, 0, 0, 1.250625, -112.257139, -100.564218)" fill="none" stroke-linejoin="miter" d="M 274.998597 200.00139 C 274.998597 201.228902 274.970489 202.453289 274.911148 203.680801 C 274.848685 204.905189 274.758113 206.129577 274.639432 207.350841 C 274.517628 208.572106 274.367715 209.790247 274.189694 211.005264 C 274.008549 212.220282 273.799296 213.429052 273.558811 214.631576 C 273.318327 215.8341 273.049733 217.033501 272.753031 218.223531 C 272.453206 219.413561 272.125272 220.597344 271.769229 221.771757 C 271.413187 222.94617 271.029035 224.111212 270.616776 225.266885 C 270.201393 226.422557 269.761024 227.565735 269.289424 228.702667 C 268.820947 229.836475 268.324361 230.95779 267.799667 232.06661 C 267.274973 233.175431 266.72217 234.271758 266.144382 235.355591 C 265.566593 236.436301 264.960696 237.504517 264.329814 238.557115 C 263.698932 239.609714 263.043064 240.646696 262.359087 241.66806 C 261.678234 242.689425 260.972395 243.692048 260.241571 244.675932 C 259.510747 245.662938 258.754937 246.631204 257.977266 247.580729 C 257.196471 248.527131 256.396936 249.457916 255.572417 250.366837 C 254.747897 251.275757 253.901515 252.165937 253.033271 253.034253 C 252.165027 253.899446 251.274921 254.745897 250.366076 255.570485 C 249.45723 256.395073 248.529646 257.197797 247.580199 257.975533 C 246.630752 258.753269 245.662566 259.509141 244.678764 260.240026 C 243.69184 260.97091 242.689299 261.676808 241.668019 262.360841 C 240.646739 263.04175 239.609843 263.697672 238.557331 264.328607 C 237.50482 264.959541 236.436692 265.565489 235.356072 266.143325 C 234.272328 266.721161 233.176092 267.274009 232.067363 267.798747 C 230.955511 268.323485 229.834289 268.820111 228.700575 269.291751 C 227.56686 269.760266 226.423776 270.203795 225.2682 270.616089 C 224.1095 271.028383 222.944554 271.415689 221.770238 271.771761 C 220.595922 272.127833 219.41536 272.45267 218.222305 272.752521 C 217.032374 273.049247 215.836196 273.320986 214.630648 273.558368 C 213.428224 273.798872 212.219553 274.008143 211.004636 274.189302 C 209.789719 274.367338 208.571679 274.517263 207.350515 274.639077 C 206.129352 274.757768 204.905065 274.848348 203.680779 274.910817 C 202.453369 274.970162 201.225959 275.001396 199.998549 275.001396 C 198.771139 275.001396 197.546853 274.970162 196.319443 274.910817 C 195.095156 274.848348 193.87087 274.757768 192.649706 274.639077 C 191.428543 274.517263 190.210503 274.367338 188.995585 274.189302 C 187.780668 274.008143 186.571998 273.798872 185.369573 273.558368 C 184.164026 273.317863 182.967848 273.049247 181.777916 272.752521 C 180.584861 272.45267 179.404299 272.127833 178.229983 271.771761 C 177.052545 271.415689 175.887598 271.028383 174.732022 270.616089 C 173.576445 270.203795 172.433361 269.760266 171.299647 269.291751 C 170.165932 268.820111 169.041587 268.323485 167.932859 267.798747 C 166.82413 267.274009 165.727893 266.721161 164.64415 266.143325 C 163.563529 265.565489 162.495402 264.959541 161.44289 264.328607 C 160.390378 263.697672 159.353483 263.04175 158.332203 262.360841 C 157.310923 261.676808 156.308382 260.97091 155.321457 260.240026 C 154.337655 259.509141 153.369469 258.753269 152.420023 257.975533 C 151.470576 257.197797 150.542991 256.395073 149.634146 255.570485 C 148.722177 254.745897 147.835194 253.899446 146.96695 253.034253 C 146.098706 252.165937 145.252324 251.275757 144.427805 250.366837 C 143.603285 249.457916 142.803751 248.527131 142.022956 247.580729 C 141.245284 246.631204 140.489474 245.662938 139.75865 244.675932 C 139.027826 243.692048 138.321987 242.689425 137.641134 241.66806 C 136.957158 240.646696 136.30129 239.609714 135.670408 238.557115 C 135.039525 237.504517 134.433628 236.436301 133.85584 235.355591 C 133.278052 234.271758 132.725249 233.175431 132.200554 232.06661 C 131.67586 230.95779 131.179274 229.836475 130.707674 228.702667 C 130.239197 227.565735 129.798829 226.422557 129.383446 225.266885 C 128.971186 224.111212 128.587035 222.94617 128.230992 221.771757 C 127.871827 220.597344 127.547016 219.413561 127.247191 218.223531 C 126.950489 217.033501 126.681895 215.8341 126.44141 214.631576 C 126.200925 213.429052 125.991672 212.220282 125.810528 211.005264 C 125.632506 209.790247 125.482594 208.572106 125.36079 207.350841 C 125.242109 206.129577 125.151537 204.905189 125.089073 203.680801 C 125.029733 202.453289 124.998501 201.228902 124.998501 200.00139 C 124.998501 198.773879 125.029733 197.546368 125.089073 196.318856 C 125.151537 195.094468 125.242109 193.87008 125.36079 192.648816 C 125.482594 191.427551 125.632506 190.20941 125.810528 188.994393 C 125.991672 187.782499 126.200925 186.570604 126.44141 185.368081 C 126.681895 184.165557 126.950489 182.966156 127.247191 181.776126 C 127.547016 180.586096 127.871827 179.402313 128.230992 178.2279 C 128.587035 177.053487 128.971186 175.888445 129.383446 174.732772 C 129.798829 173.5771 130.239197 172.433922 130.707674 171.300113 C 131.179274 170.163182 131.67586 169.041867 132.200554 167.933047 C 132.725249 166.824226 133.278052 165.727899 133.85584 164.644066 C 134.433628 163.563356 135.039525 162.49514 135.670408 161.442541 C 136.30129 160.389943 136.957158 159.352961 137.641134 158.331597 C 138.321987 157.310232 139.027826 156.307609 139.75865 155.323725 C 140.489474 154.336719 141.245284 153.368453 142.022956 152.422051 C 142.803751 151.472526 143.603285 150.541741 144.427805 149.63282 C 145.252324 148.7239 146.098706 147.83372 146.96695 146.968527 C 147.835194 146.100211 148.722177 145.25376 149.634146 144.429172 C 150.542991 143.604584 151.470576 142.80186 152.420023 142.024124 C 153.369469 141.246388 154.337655 140.490516 155.321457 139.759631 C 156.308382 139.028747 157.310923 138.322849 158.332203 137.638816 C 159.353483 136.957907 160.390378 136.301985 161.44289 135.67105 C 162.495402 135.040116 163.563529 134.434168 164.64415 133.856332 C 165.727893 133.278496 166.82413 132.725648 167.932859 132.20091 C 169.041587 131.676172 170.165932 131.179545 171.299647 130.707906 C 172.433361 130.23939 173.576445 129.798986 174.732022 129.383568 C 175.887598 128.971274 177.052545 128.587092 178.229983 128.23102 C 179.404299 127.871824 180.584861 127.546986 181.777916 127.247136 C 182.967848 126.95041 184.164026 126.681794 185.369573 126.441289 C 186.571998 126.200784 187.780668 125.991514 188.995585 125.810355 C 190.210503 125.632319 191.428543 125.482394 192.649706 125.36058 C 193.87087 125.241889 195.095156 125.151309 196.319443 125.08884 C 197.546853 125.029495 198.771139 125.001384 199.998549 125.001384 C 201.225959 125.001384 202.453369 125.029495 203.680779 125.08884 C 204.905065 125.151309 206.129352 125.241889 207.350515 125.36058 C 208.571679 125.482394 209.789719 125.632319 211.004636 125.810355 C 212.219553 125.991514 213.428224 126.200784 214.630648 126.441289 C 215.836196 126.681794 217.032374 126.95041 218.222305 127.247136 C 219.41536 127.546986 220.595922 127.871824 221.770238 128.23102 C 222.944554 128.587092 224.1095 128.971274 225.2682 129.383568 C 226.423776 129.798986 227.56686 130.23939 228.700575 130.707906 C 229.834289 131.179545 230.955511 131.676172 232.067363 132.20091 C 233.176092 132.725648 234.272328 133.278496 235.356072 133.856332 C 236.436692 134.434168 237.50482 135.040116 238.557331 135.67105 C 239.609843 136.301985 240.646739 136.957907 241.668019 137.638816 C 242.689299 138.322849 243.69184 139.028747 244.678764 139.759631 C 245.662566 140.490516 246.630752 141.246388 247.580199 142.024124 C 248.529646 142.80186 249.45723 143.604584 250.366076 144.429172 C 251.274921 145.25376 252.165027 146.100211 253.033271 146.968527 C 253.901515 147.83372 254.747897 148.7239 255.572417 149.63282 C 256.396936 150.541741 257.196471 151.472526 257.977266 152.422051 C 258.754937 153.368453 259.510747 154.336719 260.241571 155.323725 C 260.972395 156.307609 261.678234 157.310232 262.359087 158.331597 C 263.043064 159.352961 263.698932 160.389943 264.329814 161.442541 C 264.960696 162.49514 265.566593 163.563356 266.144382 164.644066 C 266.72217 165.727899 267.274973 166.824226 267.799667 167.933047 C 268.324361 169.041867 268.820947 170.163182 269.289424 171.300113 C 269.761024 172.433922 270.201393 173.5771 270.616776 174.732772 C 271.029035 175.888445 271.413187 177.053487 271.769229 178.2279 C 272.125272 179.402313 272.453206 180.586096 272.753031 181.776126 C 273.049733 182.966156 273.318327 184.165557 273.558811 185.368081 C 273.799296 186.570604 274.008549 187.782499 274.189694 188.994393 C 274.367715 190.20941 274.517628 191.427551 274.639432 192.648816 C 274.758113 193.87008 274.848685 195.094468 274.911148 196.318856 C 274.970489 197.546368 274.998597 198.773879 274.998597 200.00139 Z M 274.998597 200.00139 " stroke="#ffffff" stroke-width="5" stroke-opacity="0.25" stroke-miterlimit="4"/><path fill="#ffffff" d="M 182.914062 149.5625 C 182.914062 151.035156 182.84375 152.507812 182.699219 153.972656 C 182.554688 155.441406 182.335938 156.898438 182.050781 158.34375 C 181.761719 159.789062 181.402344 161.21875 180.976562 162.628906 C 180.546875 164.042969 180.050781 165.429688 179.488281 166.789062 C 178.921875 168.152344 178.292969 169.484375 177.597656 170.785156 C 176.902344 172.085938 176.144531 173.347656 175.328125 174.574219 C 174.507812 175.800781 173.628906 176.984375 172.695312 178.121094 C 171.757812 179.261719 170.769531 180.355469 169.726562 181.394531 C 168.683594 182.4375 167.59375 183.429688 166.453125 184.363281 C 165.3125 185.300781 164.128906 186.175781 162.902344 186.996094 C 161.675781 187.816406 160.414062 188.570312 159.113281 189.265625 C 157.8125 189.960938 156.480469 190.59375 155.121094 191.15625 C 153.757812 191.71875 152.371094 192.214844 150.957031 192.644531 C 149.546875 193.074219 148.117188 193.429688 146.671875 193.71875 C 145.226562 194.003906 143.769531 194.222656 142.300781 194.367188 C 140.835938 194.511719 139.363281 194.582031 137.886719 194.582031 C 136.414062 194.582031 134.941406 194.511719 133.476562 194.367188 C 132.007812 194.222656 130.550781 194.003906 129.105469 193.71875 C 127.65625 193.429688 126.230469 193.074219 124.816406 192.644531 C 123.40625 192.214844 122.019531 191.71875 120.65625 191.15625 C 119.296875 190.59375 117.964844 189.960938 116.664062 189.265625 C 115.363281 188.570312 114.097656 187.816406 112.875 186.996094 C 111.648438 186.175781 110.464844 185.300781 109.324219 184.363281 C 108.183594 183.429688 107.09375 182.4375 106.050781 181.394531 C 105.007812 180.355469 104.019531 179.261719 103.082031 178.121094 C 102.148438 176.984375 101.269531 175.800781 100.449219 174.574219 C 99.632812 173.347656 98.875 172.085938 98.179688 170.785156 C 97.484375 169.484375 96.855469 168.152344 96.289062 166.789062 C 95.726562 165.429688 95.230469 164.042969 94.800781 162.628906 C 94.371094 161.21875 94.015625 159.789062 93.726562 158.34375 C 93.441406 156.898438 93.222656 155.441406 93.078125 153.972656 C 92.933594 152.507812 92.863281 151.035156 92.863281 149.5625 C 92.863281 148.085938 92.933594 146.613281 93.078125 145.148438 C 93.222656 143.679688 93.441406 142.222656 93.726562 140.777344 C 94.015625 139.332031 94.371094 137.902344 94.800781 136.492188 C 95.230469 135.082031 95.726562 133.695312 96.289062 132.332031 C 96.855469 130.96875 97.484375 129.636719 98.179688 128.335938 C 98.875 127.035156 99.632812 125.773438 100.449219 124.546875 C 101.269531 123.320312 102.148438 122.136719 103.082031 121 C 104.019531 119.859375 105.007812 118.769531 106.050781 117.726562 C 107.09375 116.683594 108.183594 115.691406 109.324219 114.757812 C 110.464844 113.824219 111.648438 112.945312 112.875 112.125 C 114.097656 111.308594 115.363281 110.550781 116.664062 109.855469 C 117.964844 109.160156 119.296875 108.53125 120.65625 107.964844 C 122.019531 107.402344 123.40625 106.90625 124.816406 106.476562 C 126.230469 106.050781 127.65625 105.691406 129.105469 105.402344 C 130.550781 105.117188 132.007812 104.898438 133.476562 104.753906 C 134.941406 104.609375 136.414062 104.539062 137.886719 104.539062 C 139.363281 104.539062 140.835938 104.609375 142.300781 104.753906 C 143.769531 104.898438 145.226562 105.117188 146.671875 105.402344 C 148.117188 105.691406 149.546875 106.050781 150.957031 106.476562 C 152.371094 106.90625 153.757812 107.402344 155.121094 107.964844 C 156.480469 108.53125 157.8125 109.160156 159.113281 109.855469 C 160.414062 110.550781 161.675781 111.308594 162.902344 112.125 C 164.128906 112.945312 165.3125 113.824219 166.453125 114.757812 C 167.59375 115.691406 168.683594 116.683594 169.726562 117.726562 C 170.769531 118.769531 171.757812 119.859375 172.695312 121 C 173.628906 122.136719 174.507812 123.320312 175.328125 124.546875 C 176.144531 125.773438 176.902344 127.035156 177.597656 128.335938 C 178.292969 129.636719 178.921875 130.96875 179.488281 132.332031 C 180.050781 133.695312 180.546875 135.082031 180.976562 136.492188 C 181.402344 137.902344 181.761719 139.332031 182.050781 140.777344 C 182.335938 142.222656 182.554688 143.679688 182.699219 145.148438 C 182.84375 146.613281 182.914062 148.085938 182.914062 149.5625 Z M 182.914062 149.5625 " fill-opacity="0.97" fill-rule="nonzero"/><g fill="#1a7a5e" fill-opacity="1"><g transform="translate(126.757405, 164.55725)"><g><path d="M 10.125 -0.390625 C 4.570312 -0.628906 1.34375 -2.96875 0.4375 -7.40625 L 3.75 -8.125 C 4.070312 -6.570312 4.75 -5.40625 5.78125 -4.625 C 6.820312 -3.84375 8.269531 -3.394531 10.125 -3.28125 L 10.125 -12.96875 C 7.8125 -13.539062 6.21875 -14.054688 5.34375 -14.515625 C 4.46875 -14.972656 3.757812 -15.5 3.21875 -16.09375 C 2.675781 -16.6875 2.285156 -17.320312 2.046875 -18 C 1.804688 -18.675781 1.6875 -19.488281 1.6875 -20.4375 C 1.6875 -22.457031 2.414062 -24.035156 3.875 -25.171875 C 5.34375 -26.316406 7.425781 -26.945312 10.125 -27.0625 L 10.125 -29.625 L 12.546875 -29.625 L 12.546875 -27.0625 C 14.984375 -26.945312 16.863281 -26.394531 18.1875 -25.40625 C 19.519531 -24.425781 20.457031 -22.894531 21 -20.8125 L 17.609375 -20.171875 C 17.347656 -21.390625 16.816406 -22.335938 16.015625 -23.015625 C 15.222656 -23.703125 14.066406 -24.117188 12.546875 -24.265625 L 12.546875 -15.578125 C 14.878906 -15.023438 16.535156 -14.519531 17.515625 -14.0625 C 18.492188 -13.613281 19.269531 -13.101562 19.84375 -12.53125 C 20.425781 -11.957031 20.863281 -11.273438 21.15625 -10.484375 C 21.457031 -9.703125 21.609375 -8.785156 21.609375 -7.734375 C 21.609375 -5.585938 20.816406 -3.863281 19.234375 -2.5625 C 17.660156 -1.257812 15.429688 -0.535156 12.546875 -0.390625 L 12.546875 2.78125 L 10.125 2.78125 Z M 18.25 -7.703125 C 18.25 -8.546875 18.078125 -9.238281 17.734375 -9.78125 C 17.398438 -10.332031 16.910156 -10.785156 16.265625 -11.140625 C 15.628906 -11.503906 14.390625 -11.925781 12.546875 -12.40625 L 12.546875 -3.265625 C 14.378906 -3.378906 15.785156 -3.8125 16.765625 -4.5625 C 17.753906 -5.320312 18.25 -6.367188 18.25 -7.703125 Z M 5.046875 -20.484375 C 5.046875 -19.710938 5.207031 -19.054688 5.53125 -18.515625 C 5.851562 -17.984375 6.335938 -17.535156 6.984375 -17.171875 C 7.628906 -16.804688 8.675781 -16.441406 10.125 -16.078125 L 10.125 -24.3125 C 6.738281 -24.125 5.046875 -22.847656 5.046875 -20.484375 Z M 5.046875 -20.484375 "/></g></g></g><g mask="url(#96d70e3356)"><g transform="matrix(1, 0, 0, 1, 135, 59)"><g clip-path="url(#f4a09b87aa)"><path stroke-linecap="butt" transform="matrix(1.250728, 0, 0, 1.250625, -247.257139, -159.564211)" fill="none" stroke-linejoin="miter" d="M 199.998549 164.000632 L 199.998549 129.99888 " stroke="#ffffff" stroke-width="2.5" stroke-opacity="1" stroke-miterlimit="4"/></g></g></g><path stroke-linecap="butt" transform="matrix(1.250728, 0, 0, 1.250625, -112.257139, -100.564218)" fill-opacity="1" fill="#27ae7a" fill-rule="nonzero" stroke-linejoin="miter" d="M 213.999766 120.000759 C 213.999766 120.459904 213.977904 120.915926 213.931056 121.371948 C 213.887331 121.827971 213.821745 122.280869 213.731172 122.730644 C 213.6406 123.180419 213.531289 123.623948 213.396992 124.064353 C 213.262695 124.501634 213.109659 124.932668 212.934761 125.357456 C 212.759863 125.782244 212.563103 126.194538 212.347604 126.600585 C 212.132104 127.003508 211.894742 127.397061 211.641765 127.778121 C 211.385664 128.15918 211.113947 128.527746 210.823492 128.880695 C 210.529913 129.236767 210.223841 129.574098 209.89903 129.898936 C 209.57422 130.223773 209.236916 130.52987 208.880874 130.823474 C 208.527954 131.113953 208.159419 131.385692 207.778391 131.641814 C 207.397363 131.894813 207.003842 132.132194 206.600952 132.347712 C 206.194939 132.563229 205.782679 132.760005 205.357926 132.934918 C 204.933174 133.109831 204.502175 133.262879 204.06493 133.397187 C 203.624561 133.531495 203.18107 133.640815 202.731332 133.731395 C 202.281594 133.821974 201.828733 133.887567 201.372748 133.931295 C 200.916764 133.978146 200.457657 134.00001 199.998549 134.00001 C 199.542565 134.00001 199.083457 133.978146 198.627473 133.931295 C 198.171489 133.887567 197.718628 133.821974 197.26889 133.731395 C 196.819152 133.640815 196.37566 133.531495 195.935292 133.397187 C 195.498047 133.262879 195.067048 133.109831 194.642295 132.934918 C 194.217543 132.760005 193.805283 132.563229 193.39927 132.347712 C 192.996379 132.132194 192.602859 131.894813 192.221831 131.641814 C 191.840803 131.385692 191.472267 131.113953 191.119348 130.823474 C 190.763305 130.52987 190.426002 130.223773 190.101191 129.898936 C 189.776381 129.574098 189.467186 129.236767 189.17673 128.880695 C 188.886274 128.527746 188.614558 128.15918 188.358457 127.778121 C 188.105479 127.397061 187.868117 127.003508 187.652618 126.600585 C 187.437119 126.194538 187.240358 125.782244 187.06546 125.357456 C 186.890562 124.932668 186.734403 124.501634 186.603229 124.064353 C 186.468933 123.623948 186.359621 123.180419 186.269049 122.730644 C 186.178477 122.280869 186.11289 121.827971 186.066042 121.371948 C 186.022318 120.915926 186.000456 120.459904 186.000456 120.000759 C 186.000456 119.541614 186.022318 119.085591 186.066042 118.626446 C 186.11289 118.170424 186.178477 117.717525 186.269049 117.26775 C 186.359621 116.817975 186.468933 116.374447 186.603229 115.937165 C 186.734403 115.496761 186.890562 115.065726 187.06546 114.640938 C 187.240358 114.219274 187.437119 113.803857 187.652618 113.400933 C 187.868117 112.994886 188.105479 112.604457 188.358457 112.223397 C 188.614558 111.839214 188.886274 111.473772 189.17673 111.1177 C 189.467186 110.764751 189.776381 110.424296 190.101191 110.099459 C 190.426002 109.777745 190.763305 109.468524 191.119348 109.178044 C 191.472267 108.887565 191.840803 108.612702 192.221831 108.359704 C 192.602859 108.103582 192.996379 107.869324 193.39927 107.653806 C 193.805283 107.438289 194.217543 107.241513 194.642295 107.0666 C 195.067048 106.891687 195.498047 106.735516 195.935292 106.604331 C 196.37566 106.470023 196.819152 106.357579 197.26889 106.270123 C 197.718628 106.179543 198.171489 106.110828 198.627473 106.0671 C 199.083457 106.023372 199.542565 106.001507 199.998549 106.001507 C 200.457657 106.001507 200.916764 106.023372 201.372748 106.0671 C 201.828733 106.110828 202.281594 106.179543 202.731332 106.270123 C 203.18107 106.357579 203.624561 106.470023 204.06493 106.604331 C 204.502175 106.735516 204.933174 106.891687 205.357926 107.0666 C 205.782679 107.241513 206.194939 107.438289 206.600952 107.653806 C 207.003842 107.869324 207.397363 108.103582 207.778391 108.359704 C 208.159419 108.612702 208.527954 108.887565 208.880874 109.178044 C 209.236916 109.468524 209.57422 109.777745 209.89903 110.099459 C 210.223841 110.424296 210.529913 110.764751 210.823492 111.1177 C 211.113947 111.473772 211.385664 111.839214 211.641765 112.223397 C 211.894742 112.604457 212.132104 112.994886 212.347604 113.400933 C 212.563103 113.803857 212.759863 114.219274 212.934761 114.640938 C 213.109659 115.065726 213.262695 115.496761 213.396992 115.937165 C 213.531289 116.374447 213.6406 116.817975 213.731172 117.26775 C 213.821745 117.717525 213.887331 118.170424 213.931056 118.626446 C 213.977904 119.085591 213.999766 119.541614 213.999766 120.000759 Z M 213.999766 120.000759 " stroke="#ffffff" stroke-width="2" stroke-opacity="0.6" stroke-miterlimit="4"/><g mask="url(#7de4460028)"><g transform="matrix(1, 0, 0, 1, 180, 146)"><g clip-path="url(#cc44ad94ca)"><path stroke-linecap="butt" transform="matrix(1.250728, 0, 0, 1.250625, -292.257139, -246.564211)" fill="none" stroke-linejoin="miter" d="M 235.999447 200.001384 L 270.001509 200.001384 " stroke="#ffffff" stroke-width="2.5" stroke-opacity="1" stroke-miterlimit="4"/></g></g></g><path stroke-linecap="butt" transform="matrix(1.250728, 0, 0, 1.250625, -112.257139, -100.564218)" fill-opacity="1" fill="#27ae7a" fill-rule="nonzero" stroke-linejoin="miter" d="M 295.998861 200.00139 C 295.998861 200.457412 295.976999 200.916558 295.933274 201.37258 C 295.886426 201.828602 295.82084 202.2815 295.730267 202.731275 C 295.642818 203.181051 295.530384 203.624579 295.396087 204.064984 C 295.264913 204.502265 295.108754 204.9333 294.933856 205.358087 C 294.758958 205.779751 294.562198 206.195169 294.346698 206.598092 C 294.131199 207.004139 293.893837 207.397693 293.64086 207.778752 C 293.384759 208.159812 293.113042 208.528377 292.822587 208.881326 C 292.532131 209.237398 292.222936 209.574729 291.898125 209.899567 C 291.576438 210.224405 291.236011 210.530502 290.879969 210.820981 C 290.527049 211.111461 290.158514 211.386324 289.777486 211.639322 C 289.396458 211.895444 289.002937 212.129702 288.600047 212.348343 C 288.194034 212.56386 287.781774 212.757513 287.357021 212.935549 C 286.935392 213.110462 286.50127 213.26351 286.064025 213.397818 C 285.623656 213.529002 285.180165 213.641446 284.730427 213.732026 C 284.280689 213.819482 283.827828 213.888198 283.371843 213.931926 C 282.915859 213.978778 282.459875 214.000642 282.000767 214.000642 C 281.54166 214.000642 281.082552 213.978778 280.626568 213.931926 C 280.170584 213.888198 279.717723 213.819482 279.267985 213.732026 C 278.818247 213.641446 278.374755 213.529002 277.93751 213.397818 C 277.497142 213.26351 277.066143 213.110462 276.64139 212.935549 C 276.219761 212.757513 275.804378 212.56386 275.401488 212.348343 C 274.995474 212.129702 274.601954 211.895444 274.220926 211.639322 C 273.839898 211.386324 273.474486 211.111461 273.118443 210.820981 C 272.765524 210.530502 272.425097 210.224405 272.100286 209.899567 C 271.775476 209.574729 271.469404 209.237398 271.178948 208.881326 C 270.888492 208.528377 270.613652 208.159812 270.360675 207.778752 C 270.104574 207.397693 269.870336 207.004139 269.651713 206.598092 C 269.436214 206.195169 269.242576 205.779751 269.064555 205.358087 C 268.889657 204.9333 268.736621 204.502265 268.602324 204.064984 C 268.471151 203.624579 268.358716 203.181051 268.268144 202.731275 C 268.180695 202.2815 268.111985 201.828602 268.068261 201.37258 C 268.021413 200.916558 267.999551 200.457412 267.999551 200.00139 C 267.999551 199.542245 268.021413 199.083099 268.068261 198.627077 C 268.111985 198.171055 268.180695 197.718157 268.268144 197.268381 C 268.358716 196.818606 268.471151 196.375078 268.602324 195.934673 C 268.736621 195.497392 268.889657 195.066357 269.064555 194.64157 C 269.242576 194.219905 269.436214 193.804488 269.651713 193.401565 C 269.870336 192.995518 270.104574 192.601964 270.360675 192.220905 C 270.613652 191.839845 270.888492 191.474403 271.178948 191.118331 C 271.469404 190.765382 271.775476 190.424928 272.100286 190.10009 C 272.425097 189.775252 272.765524 189.469155 273.118443 189.178676 C 273.474486 188.888196 273.839898 188.613333 274.220926 188.360335 C 274.601954 188.104213 274.995474 187.869955 275.401488 187.654438 C 275.804378 187.435797 276.219761 187.242144 276.64139 187.067231 C 277.066143 186.889195 277.497142 186.736147 277.93751 186.601839 C 278.374755 186.470654 278.818247 186.358211 279.267985 186.267631 C 279.717723 186.180175 280.170584 186.111459 280.626568 186.067731 C 281.082552 186.024003 281.54166 185.999015 282.000767 185.999015 C 282.459875 185.999015 282.915859 186.024003 283.371843 186.067731 C 283.827828 186.111459 284.280689 186.180175 284.730427 186.267631 C 285.180165 186.358211 285.623656 186.470654 286.064025 186.601839 C 286.50127 186.736147 286.935392 186.889195 287.357021 187.067231 C 287.781774 187.242144 288.194034 187.435797 288.600047 187.654438 C 289.002937 187.869955 289.396458 188.104213 289.777486 188.360335 C 290.158514 188.613333 290.527049 188.888196 290.879969 189.178676 C 291.236011 189.469155 291.576438 189.775252 291.898125 190.10009 C 292.222936 190.424928 292.532131 190.765382 292.822587 191.118331 C 293.113042 191.474403 293.384759 191.839845 293.64086 192.220905 C 293.893837 192.601964 294.131199 192.995518 294.346698 193.401565 C 294.562198 193.804488 294.758958 194.219905 294.933856 194.64157 C 295.108754 195.066357 295.264913 195.497392 295.396087 195.934673 C 295.530384 196.375078 295.642818 196.818606 295.730267 197.268381 C 295.82084 197.718157 295.886426 198.171055 295.933274 198.627077 C 295.976999 199.083099 295.998861 199.542245 295.998861 200.00139 Z M 295.998861 200.00139 " stroke="#ffffff" stroke-width="2" stroke-opacity="0.6" stroke-miterlimit="4"/><g mask="url(#1749f2d0f9)"><g transform="matrix(1, 0, 0, 1, 135, 192)"><g clip-path="url(#827e72d8b2)"><path stroke-linecap="butt" transform="matrix(1.250728, 0, 0, 1.250625, -247.257139, -292.564211)" fill="none" stroke-linejoin="miter" d="M 199.998549 235.999014 L 199.998549 270.000765 " stroke="#ffffff" stroke-width="2.5" stroke-opacity="1" stroke-miterlimit="4"/></g></g></g><path stroke-linecap="butt" transform="matrix(1.250728, 0, 0, 1.250625, -112.257139, -100.564218)" fill-opacity="1" fill="#27ae7a" fill-rule="nonzero" stroke-linejoin="miter" d="M 213.999766 282.001022 C 213.999766 282.457044 213.977904 282.91619 213.931056 283.372212 C 213.887331 283.828234 213.821745 284.281132 213.731172 284.730907 C 213.6406 285.180683 213.531289 285.624211 213.396992 286.064616 C 213.262695 286.501897 213.109659 286.932932 212.934761 287.357719 C 212.759863 287.782507 212.563103 288.194801 212.347604 288.600848 C 212.132104 289.003771 211.894742 289.397325 211.641765 289.778384 C 211.385664 290.159444 211.113947 290.528009 210.823492 290.880958 C 210.529913 291.23703 210.223841 291.574361 209.89903 291.899199 C 209.57422 292.224036 209.236916 292.530133 208.880874 292.820613 C 208.527954 293.114216 208.159419 293.385956 207.778391 293.642078 C 207.397363 293.895076 207.003842 294.129334 206.600952 294.347975 C 206.194939 294.563492 205.782679 294.760268 205.357926 294.935181 C 204.933174 295.110094 204.502175 295.263142 204.06493 295.39745 C 203.624561 295.531758 203.18107 295.641078 202.731332 295.731658 C 202.281594 295.819114 201.828733 295.88783 201.372748 295.931558 C 200.916764 295.97841 200.457657 296.000274 199.998549 296.000274 C 199.542565 296.000274 199.083457 295.97841 198.627473 295.931558 C 198.171489 295.88783 197.718628 295.819114 197.26889 295.731658 C 196.819152 295.641078 196.37566 295.531758 195.935292 295.39745 C 195.498047 295.263142 195.067048 295.110094 194.642295 294.935181 C 194.217543 294.760268 193.805283 294.563492 193.39927 294.347975 C 192.996379 294.129334 192.602859 293.895076 192.221831 293.642078 C 191.840803 293.385956 191.472267 293.114216 191.119348 292.820613 C 190.763305 292.530133 190.426002 292.224036 190.101191 291.899199 C 189.776381 291.574361 189.467186 291.23703 189.17673 290.880958 C 188.886274 290.528009 188.614558 290.159444 188.358457 289.778384 C 188.105479 289.397325 187.868117 289.003771 187.652618 288.600848 C 187.437119 288.194801 187.240358 287.782507 187.06546 287.357719 C 186.890562 286.932932 186.734403 286.501897 186.603229 286.064616 C 186.468933 285.624211 186.359621 285.180683 186.269049 284.730907 C 186.178477 284.281132 186.11289 283.828234 186.066042 283.372212 C 186.022318 282.91619 186.000456 282.457044 186.000456 282.001022 C 186.000456 281.541877 186.022318 281.082731 186.066042 280.626709 C 186.11289 280.170687 186.178477 279.717789 186.269049 279.268013 C 186.359621 278.818238 186.468933 278.37471 186.603229 277.937429 C 186.734403 277.497024 186.890562 277.065989 187.06546 276.641202 C 187.240358 276.219537 187.437119 275.80412 187.652618 275.401196 C 187.868117 274.995149 188.105479 274.60472 188.358457 274.220537 C 188.614558 273.839477 188.886274 273.474035 189.17673 273.117963 C 189.467186 272.765014 189.776381 272.42456 190.101191 272.099722 C 190.426002 271.774884 190.763305 271.468787 191.119348 271.178308 C 191.472267 270.887828 191.840803 270.612965 192.221831 270.359967 C 192.602859 270.103845 192.996379 269.869587 193.39927 269.65407 C 193.805283 269.435429 194.217543 269.241776 194.642295 269.066863 C 195.067048 268.888827 195.498047 268.735779 195.935292 268.601471 C 196.37566 268.470286 196.819152 268.357843 197.26889 268.270386 C 197.718628 268.179807 198.171489 268.111091 198.627473 268.067363 C 199.083457 268.023635 199.542565 267.998647 199.998549 267.998647 C 200.457657 267.998647 200.916764 268.023635 201.372748 268.067363 C 201.828733 268.111091 202.281594 268.179807 202.731332 268.270386 C 203.18107 268.357843 203.624561 268.470286 204.06493 268.601471 C 204.502175 268.735779 204.933174 268.888827 205.357926 269.066863 C 205.782679 269.241776 206.194939 269.435429 206.600952 269.65407 C 207.003842 269.869587 207.397363 270.103845 207.778391 270.359967 C 208.159419 270.612965 208.527954 270.887828 208.880874 271.178308 C 209.236916 271.468787 209.57422 271.774884 209.89903 272.099722 C 210.223841 272.42456 210.529913 272.765014 210.823492 273.117963 C 211.113947 273.474035 211.385664 273.839477 211.641765 274.220537 C 211.894742 274.60472 212.132104 274.995149 212.347604 275.401196 C 212.563103 275.80412 212.759863 276.219537 212.934761 276.641202 C 213.109659 277.065989 213.262695 277.497024 213.396992 277.937429 C 213.531289 278.37471 213.6406 278.818238 213.731172 279.268013 C 213.821745 279.717789 213.887331 280.170687 213.931056 280.626709 C 213.977904 281.082731 213.999766 281.541877 213.999766 282.001022 Z M 213.999766 282.001022 " stroke="#ffffff" stroke-width="2" stroke-opacity="0.6" stroke-miterlimit="4"/><g mask="url(#67db3ef28e)"><g transform="matrix(1, 0, 0, 1, 47, 146)"><g clip-path="url(#cb16dac842)"><path stroke-linecap="butt" transform="matrix(1.250728, 0, 0, 1.250625, -159.257139, -246.564211)" fill="none" stroke-linejoin="miter" d="M 164.000775 200.001384 L 129.998712 200.001384 " stroke="#ffffff" stroke-width="2.5" stroke-opacity="1" stroke-miterlimit="4"/></g></g></g><path stroke-linecap="butt" transform="matrix(1.250728, 0, 0, 1.250625, -112.257139, -100.564218)" fill-opacity="1" fill="#27ae7a" fill-rule="nonzero" stroke-linejoin="miter" d="M 132.000671 200.00139 C 132.000671 200.457412 131.978809 200.916558 131.931961 201.37258 C 131.888236 201.828602 131.819526 202.2815 131.732077 202.731275 C 131.641505 203.181051 131.529071 203.624579 131.397897 204.064984 C 131.2636 204.502265 131.110564 204.9333 130.935666 205.358087 C 130.757645 205.779751 130.564008 206.195169 130.345385 206.598092 C 130.129886 207.004139 129.895647 207.397693 129.639547 207.778752 C 129.386569 208.159812 129.111729 208.528377 128.821273 208.881326 C 128.530818 209.237398 128.224746 209.574729 127.899935 209.899567 C 127.575125 210.224405 127.234698 210.530502 126.881779 210.820981 C 126.525736 211.111461 126.160324 211.386324 125.779296 211.639322 C 125.398268 211.895444 125.004747 212.129702 124.598734 212.348343 C 124.195844 212.56386 123.780461 212.757513 123.358831 212.935549 C 122.934079 213.110462 122.50308 213.26351 122.062712 213.397818 C 121.625466 213.529002 121.181975 213.641446 120.732237 213.732026 C 120.282499 213.819482 119.829638 213.888198 119.373653 213.931926 C 118.914546 213.978778 118.458562 214.000642 117.999454 214.000642 C 117.540347 214.000642 117.084362 213.978778 116.628378 213.931926 C 116.172394 213.888198 115.719533 213.819482 115.269795 213.732026 C 114.820057 213.641446 114.373442 213.529002 113.936197 213.397818 C 113.495828 213.26351 113.06483 213.110462 112.6432 212.935549 C 112.218448 212.757513 111.806188 212.56386 111.400175 212.348343 C 110.997284 212.129702 110.603764 211.895444 110.222736 211.639322 C 109.841708 211.386324 109.473172 211.111461 109.11713 210.820981 C 108.76421 210.530502 108.423784 210.224405 108.098973 209.899567 C 107.777286 209.574729 107.468091 209.237398 107.177635 208.881326 C 106.887179 208.528377 106.615463 208.159812 106.359362 207.778752 C 106.103261 207.397693 105.869022 207.004139 105.653523 206.598092 C 105.438024 206.195169 105.241263 205.779751 105.066365 205.358087 C 104.891467 204.9333 104.735308 204.502265 104.604134 204.064984 C 104.469838 203.624579 104.357403 203.181051 104.269954 202.731275 C 104.179382 202.2815 104.113795 201.828602 104.066948 201.37258 C 104.023223 200.916558 104.001361 200.457412 104.001361 200.00139 C 104.001361 199.542245 104.023223 199.083099 104.066948 198.627077 C 104.113795 198.171055 104.179382 197.718157 104.269954 197.268381 C 104.357403 196.818606 104.469838 196.375078 104.604134 195.934673 C 104.735308 195.497392 104.891467 195.066357 105.066365 194.64157 C 105.241263 194.219905 105.438024 193.804488 105.653523 193.401565 C 105.869022 192.995518 106.103261 192.601964 106.359362 192.220905 C 106.615463 191.839845 106.887179 191.474403 107.177635 191.118331 C 107.468091 190.765382 107.777286 190.424928 108.098973 190.10009 C 108.423784 189.775252 108.76421 189.469155 109.11713 189.178676 C 109.473172 188.888196 109.841708 188.613333 110.222736 188.360335 C 110.603764 188.104213 110.997284 187.869955 111.400175 187.654438 C 111.806188 187.435797 112.218448 187.242144 112.6432 187.067231 C 113.06483 186.889195 113.495828 186.736147 113.936197 186.601839 C 114.373442 186.470654 114.820057 186.358211 115.269795 186.267631 C 115.719533 186.180175 116.172394 186.111459 116.628378 186.067731 C 117.084362 186.024003 117.540347 185.999015 117.999454 185.999015 C 118.458562 185.999015 118.914546 186.024003 119.373653 186.067731 C 119.829638 186.111459 120.282499 186.180175 120.732237 186.267631 C 121.181975 186.358211 121.625466 186.470654 122.062712 186.601839 C 122.50308 186.736147 122.934079 186.889195 123.358831 187.067231 C 123.780461 187.242144 124.195844 187.435797 124.598734 187.654438 C 125.004747 187.869955 125.398268 188.104213 125.779296 188.360335 C 126.160324 188.613333 126.525736 188.888196 126.881779 189.178676 C 127.234698 189.469155 127.575125 189.775252 127.899935 190.10009 C 128.224746 190.424928 128.530818 190.765382 128.821273 191.118331 C 129.111729 191.474403 129.386569 191.839845 129.639547 192.220905 C 129.895647 192.601964 130.129886 192.995518 130.345385 193.401565 C 130.564008 193.804488 130.757645 194.219905 130.935666 194.64157 C 131.110564 195.066357 131.2636 195.497392 131.397897 195.934673 C 131.529071 196.375078 131.641505 196.818606 131.732077 197.268381 C 131.819526 197.718157 131.888236 198.171055 131.931961 198.627077 C 131.978809 199.083099 132.000671 199.542245 132.000671 200.00139 Z M 132.000671 200.00139 " stroke="#ffffff" stroke-width="2" stroke-opacity="0.6" stroke-miterlimit="4"/><path fill="#ffffff" d="M 137.886719 40.757812 L 141.640625 49.511719 L 134.136719 49.511719 Z M 137.886719 40.757812 " fill-opacity="0.9" fill-rule="nonzero"/><path fill="#ffffff" d="M 137.886719 260.867188 L 141.640625 252.113281 L 134.136719 252.113281 Z M 137.886719 260.867188 " fill-opacity="0.9" fill-rule="nonzero"/><path fill="#ffffff" d="M 249.203125 149.5625 L 240.449219 145.808594 L 240.449219 153.3125 Z M 249.203125 149.5625 " fill-opacity="0.9" fill-rule="nonzero"/><path fill="#ffffff" d="M 29.074219 144.558594 L 41.582031 144.558594 C 41.75 144.558594 41.90625 144.589844 42.0625 144.652344 C 42.214844 144.71875 42.347656 144.808594 42.46875 144.925781 C 42.585938 145.042969 42.675781 145.175781 42.738281 145.332031 C 42.800781 145.484375 42.832031 145.644531 42.832031 145.808594 L 42.832031 146.433594 C 42.832031 146.601562 42.800781 146.757812 42.738281 146.914062 C 42.675781 147.066406 42.585938 147.203125 42.46875 147.320312 C 42.347656 147.4375 42.214844 147.527344 42.0625 147.589844 C 41.90625 147.652344 41.75 147.683594 41.582031 147.683594 L 29.074219 147.683594 C 28.910156 147.683594 28.75 147.652344 28.597656 147.589844 C 28.441406 147.527344 28.308594 147.4375 28.191406 147.320312 C 28.074219 147.203125 27.984375 147.066406 27.917969 146.914062 C 27.855469 146.757812 27.824219 146.601562 27.824219 146.433594 L 27.824219 145.808594 C 27.824219 145.644531 27.855469 145.484375 27.917969 145.332031 C 27.984375 145.175781 28.074219 145.042969 28.191406 144.925781 C 28.308594 144.808594 28.441406 144.71875 28.597656 144.652344 C 28.75 144.589844 28.910156 144.558594 29.074219 144.558594 Z M 29.074219 144.558594 " fill-opacity="0.9" fill-rule="nonzero"/><path fill="#ffffff" d="M 29.074219 149.5625 L 37.832031 149.5625 C 37.996094 149.5625 38.15625 149.59375 38.308594 149.65625 C 38.460938 149.71875 38.597656 149.808594 38.714844 149.925781 C 38.832031 150.042969 38.921875 150.179688 38.984375 150.332031 C 39.050781 150.484375 39.082031 150.644531 39.082031 150.8125 L 39.082031 151.4375 C 39.082031 151.601562 39.050781 151.761719 38.984375 151.914062 C 38.921875 152.070312 38.832031 152.203125 38.714844 152.320312 C 38.597656 152.4375 38.460938 152.527344 38.308594 152.59375 C 38.15625 152.65625 37.996094 152.6875 37.832031 152.6875 L 29.074219 152.6875 C 28.910156 152.6875 28.75 152.65625 28.597656 152.59375 C 28.441406 152.527344 28.308594 152.4375 28.191406 152.320312 C 28.074219 152.203125 27.984375 152.070312 27.917969 151.914062 C 27.855469 151.761719 27.824219 151.601562 27.824219 151.4375 L 27.824219 150.8125 C 27.824219 150.644531 27.855469 150.484375 27.917969 150.332031 C 27.984375 150.179688 28.074219 150.042969 28.191406 149.925781 C 28.308594 149.808594 28.441406 149.71875 28.597656 149.65625 C 28.75 149.59375 28.910156 149.5625 29.074219 149.5625 Z M 29.074219 149.5625 " fill-opacity="0.9" fill-rule="nonzero"/><path fill="#ffffff" d="M 29.074219 154.5625 L 41.582031 154.5625 C 41.75 154.5625 41.90625 154.59375 42.0625 154.660156 C 42.214844 154.722656 42.347656 154.8125 42.46875 154.929688 C 42.585938 155.046875 42.675781 155.183594 42.738281 155.335938 C 42.800781 155.488281 42.832031 155.648438 42.832031 155.8125 L 42.832031 156.4375 C 42.832031 156.605469 42.800781 156.765625 42.738281 156.917969 C 42.675781 157.070312 42.585938 157.207031 42.46875 157.324219 C 42.347656 157.441406 42.214844 157.53125 42.0625 157.59375 C 41.90625 157.65625 41.75 157.691406 41.582031 157.691406 L 29.074219 157.691406 C 28.910156 157.691406 28.75 157.65625 28.597656 157.59375 C 28.441406 157.53125 28.308594 157.441406 28.191406 157.324219 C 28.074219 157.207031 27.984375 157.070312 27.917969 156.917969 C 27.855469 156.765625 27.824219 156.605469 27.824219 156.4375 L 27.824219 155.8125 C 27.824219 155.648438 27.855469 155.488281 27.917969 155.335938 C 27.984375 155.183594 28.074219 155.046875 28.191406 154.929688 C 28.308594 154.8125 28.441406 154.722656 28.597656 154.660156 C 28.75 154.59375 28.910156 154.5625 29.074219 154.5625 Z M 29.074219 154.5625 " fill-opacity="0.9" fill-rule="nonzero"/><g fill="#141413" fill-opacity="1"><g transform="translate(310.479549, 130.791725)"><g><path d="M 43.375 0 L 43.375 -29.84375 C 43.375 -33.144531 43.46875 -36.320312 43.65625 -39.375 C 42.625 -35.582031 41.691406 -32.617188 40.859375 -30.484375 L 29.3125 0 L 25.046875 0 L 13.34375 -30.484375 L 11.5625 -35.875 L 10.515625 -39.375 L 10.609375 -35.84375 L 10.734375 -29.84375 L 10.734375 0 L 5.328125 0 L 5.328125 -44.734375 L 13.3125 -44.734375 L 25.21875 -13.71875 C 25.632812 -12.46875 26.035156 -11.128906 26.421875 -9.703125 C 26.816406 -8.273438 27.082031 -7.242188 27.21875 -6.609375 C 27.382812 -7.453125 27.738281 -8.734375 28.28125 -10.453125 C 28.820312 -12.179688 29.1875 -13.269531 29.375 -13.71875 L 41.0625 -44.734375 L 48.84375 -44.734375 L 48.84375 0 Z M 43.375 0 "/></g></g></g><g fill="#141413" fill-opacity="1"><g transform="translate(364.649382, 130.791725)"><g><path d="M 33.4375 -17.203125 C 33.4375 -11.191406 32.113281 -6.710938 29.46875 -3.765625 C 26.820312 -0.828125 22.976562 0.640625 17.9375 0.640625 C 12.925781 0.640625 9.140625 -0.890625 6.578125 -3.953125 C 4.015625 -7.015625 2.734375 -11.429688 2.734375 -17.203125 C 2.734375 -29.066406 7.863281 -35 18.125 -35 C 23.375 -35 27.238281 -33.550781 29.71875 -30.65625 C 32.195312 -27.769531 33.4375 -23.285156 33.4375 -17.203125 Z M 27.4375 -17.203125 C 27.4375 -21.953125 26.734375 -25.398438 25.328125 -27.546875 C 23.921875 -29.691406 21.550781 -30.765625 18.21875 -30.765625 C 14.875 -30.765625 12.457031 -29.671875 10.96875 -27.484375 C 9.476562 -25.296875 8.734375 -21.867188 8.734375 -17.203125 C 8.734375 -12.679688 9.46875 -9.28125 10.9375 -7 C 12.40625 -4.726562 14.71875 -3.59375 17.875 -3.59375 C 21.300781 -3.59375 23.75 -4.691406 25.21875 -6.890625 C 26.695312 -9.085938 27.4375 -12.523438 27.4375 -17.203125 Z M 27.4375 -17.203125 "/></g></g></g><g fill="#141413" fill-opacity="1"><g transform="translate(400.815526, 130.791725)"><g><path d="M 26.203125 0 L 26.203125 -21.78125 C 26.203125 -24.050781 25.976562 -25.804688 25.53125 -27.046875 C 25.082031 -28.296875 24.367188 -29.195312 23.390625 -29.75 C 22.421875 -30.300781 20.992188 -30.578125 19.109375 -30.578125 C 16.359375 -30.578125 14.1875 -29.632812 12.59375 -27.75 C 11.007812 -25.863281 10.21875 -23.25 10.21875 -19.90625 L 10.21875 0 L 4.515625 0 L 4.515625 -27.015625 C 4.515625 -31.023438 4.445312 -33.472656 4.3125 -34.359375 L 9.71875 -34.359375 C 9.738281 -34.253906 9.757812 -33.96875 9.78125 -33.5 C 9.800781 -33.03125 9.828125 -32.492188 9.859375 -31.890625 C 9.890625 -31.285156 9.925781 -30.148438 9.96875 -28.484375 L 10.0625 -28.484375 C 11.375 -30.859375 12.890625 -32.535156 14.609375 -33.515625 C 16.335938 -34.503906 18.484375 -35 21.046875 -35 C 24.816406 -35 27.570312 -34.0625 29.3125 -32.1875 C 31.0625 -30.3125 31.9375 -27.210938 31.9375 -22.890625 L 31.9375 0 Z M 26.203125 0 "/></g></g></g><g fill="#141413" fill-opacity="1"><g transform="translate(436.981669, 130.791725)"><g><path d="M 8.765625 -15.96875 C 8.765625 -12.03125 9.578125 -8.992188 11.203125 -6.859375 C 12.835938 -4.722656 15.222656 -3.65625 18.359375 -3.65625 C 20.828125 -3.65625 22.804688 -4.148438 24.296875 -5.140625 C 25.796875 -6.140625 26.8125 -7.398438 27.34375 -8.921875 L 32.359375 -7.5 C 30.304688 -2.070312 25.640625 0.640625 18.359375 0.640625 C 13.273438 0.640625 9.40625 -0.875 6.75 -3.90625 C 4.09375 -6.9375 2.765625 -11.4375 2.765625 -17.40625 C 2.765625 -23.070312 4.09375 -27.421875 6.75 -30.453125 C 9.40625 -33.484375 13.195312 -35 18.125 -35 C 28.226562 -35 33.28125 -28.910156 33.28125 -16.734375 L 33.28125 -15.96875 Z M 27.375 -20.359375 C 27.050781 -23.972656 26.128906 -26.609375 24.609375 -28.265625 C 23.085938 -29.929688 20.894531 -30.765625 18.03125 -30.765625 C 15.257812 -30.765625 13.0625 -29.835938 11.4375 -27.984375 C 9.820312 -26.140625 8.953125 -23.597656 8.828125 -20.359375 Z M 27.375 -20.359375 "/></g></g></g><g fill="#141413" fill-opacity="1"><g transform="translate(473.147812, 130.791725)"><g><path d="M 6.0625 13.5 C 4.5 13.5 3.1875 13.378906 2.125 13.140625 L 2.125 8.859375 C 2.925781 8.984375 3.816406 9.046875 4.796875 9.046875 C 8.347656 9.046875 11.160156 6.429688 13.234375 1.203125 L 13.78125 -0.15625 L 0.15625 -34.359375 L 6.25 -34.359375 L 13.5 -15.375 C 13.601562 -15.070312 13.726562 -14.710938 13.875 -14.296875 C 14.019531 -13.890625 14.492188 -12.507812 15.296875 -10.15625 C 16.109375 -7.8125 16.546875 -6.5 16.609375 -6.21875 L 18.828125 -12.484375 L 26.359375 -34.359375 L 32.390625 -34.359375 L 19.171875 0 C 17.753906 3.664062 16.429688 6.390625 15.203125 8.171875 C 13.984375 9.960938 12.625 11.296875 11.125 12.171875 C 9.632812 13.054688 7.945312 13.5 6.0625 13.5 Z M 6.0625 13.5 "/></g></g></g><g fill="#141413" fill-opacity="1"><g transform="translate(310.479549, 202.083608)"><g><path d="M 35.59375 0 L 35.59375 -20.734375 L 11.40625 -20.734375 L 11.40625 0 L 5.328125 0 L 5.328125 -44.734375 L 11.40625 -44.734375 L 11.40625 -25.8125 L 35.59375 -25.8125 L 35.59375 -44.734375 L 41.65625 -44.734375 L 41.65625 0 Z M 35.59375 0 "/></g></g></g><g fill="#141413" fill-opacity="1"><g transform="translate(357.441556, 202.083608)"><g><path d="M 9.96875 -34.359375 L 9.96875 -12.578125 C 9.96875 -10.304688 10.1875 -8.546875 10.625 -7.296875 C 11.070312 -6.054688 11.78125 -5.160156 12.75 -4.609375 C 13.726562 -4.054688 15.160156 -3.78125 17.046875 -3.78125 C 19.796875 -3.78125 21.960938 -4.722656 23.546875 -6.609375 C 25.140625 -8.492188 25.9375 -11.109375 25.9375 -14.453125 L 25.9375 -34.359375 L 31.65625 -34.359375 L 31.65625 -7.328125 C 31.65625 -3.328125 31.71875 -0.882812 31.84375 0 L 26.453125 0 C 26.429688 -0.101562 26.410156 -0.390625 26.390625 -0.859375 C 26.367188 -1.328125 26.34375 -1.859375 26.3125 -2.453125 C 26.28125 -3.054688 26.242188 -4.195312 26.203125 -5.875 L 26.09375 -5.875 C 24.78125 -3.5 23.257812 -1.816406 21.53125 -0.828125 C 19.8125 0.148438 17.671875 0.640625 15.109375 0.640625 C 11.347656 0.640625 8.59375 -0.296875 6.84375 -2.171875 C 5.09375 -4.046875 4.21875 -7.144531 4.21875 -11.46875 L 4.21875 -34.359375 Z M 9.96875 -34.359375 "/></g></g></g><g fill="#141413" fill-opacity="1"><g transform="translate(393.607699, 202.083608)"><g><path d="M 33.4375 -17.34375 C 33.4375 -5.351562 29.222656 0.640625 20.796875 0.640625 C 18.191406 0.640625 16.023438 0.171875 14.296875 -0.765625 C 12.578125 -1.710938 11.175781 -3.234375 10.09375 -5.328125 L 10.03125 -5.328125 C 10.03125 -4.671875 9.988281 -3.671875 9.90625 -2.328125 C 9.820312 -0.984375 9.757812 -0.207031 9.71875 0 L 4.1875 0 C 4.3125 -1.144531 4.375 -3.503906 4.375 -7.078125 L 4.375 -47.125 L 10.09375 -47.125 L 10.09375 -33.6875 C 10.09375 -32.3125 10.050781 -30.691406 9.96875 -28.828125 L 10.09375 -28.828125 C 11.15625 -31.035156 12.554688 -32.613281 14.296875 -33.5625 C 16.046875 -34.519531 18.210938 -35 20.796875 -35 C 25.140625 -35 28.332031 -33.535156 30.375 -30.609375 C 32.414062 -27.691406 33.4375 -23.269531 33.4375 -17.34375 Z M 27.4375 -17.140625 C 27.4375 -21.953125 26.800781 -25.394531 25.53125 -27.46875 C 24.257812 -29.539062 22.195312 -30.578125 19.34375 -30.578125 C 16.125 -30.578125 13.773438 -29.472656 12.296875 -27.265625 C 10.828125 -25.066406 10.09375 -21.578125 10.09375 -16.796875 C 10.09375 -12.285156 10.8125 -8.957031 12.25 -6.8125 C 13.695312 -4.664062 16.039062 -3.59375 19.28125 -3.59375 C 22.15625 -3.59375 24.234375 -4.65625 25.515625 -6.78125 C 26.796875 -8.90625 27.4375 -12.359375 27.4375 -17.140625 Z M 27.4375 -17.140625 "/></g></g></g><g fill="#3d3d3a" fill-opacity="1"><g transform="translate(314.240693, 243.347376)"><g><path d="M 1.53125 0 L 1.53125 -12.90625 L 11.328125 -12.90625 L 11.328125 -11.46875 L 3.28125 -11.46875 L 3.28125 -7.328125 L 10.78125 -7.328125 L 10.78125 -5.921875 L 3.28125 -5.921875 L 3.28125 -1.421875 L 11.703125 -1.421875 L 11.703125 0 Z M 1.53125 0 "/></g></g></g><g fill="#3d3d3a" fill-opacity="1"><g transform="translate(326.744901, 243.347376)"><g><path d="M 10.1875 0 L 6.3125 -5.640625 L 2.359375 0 L 0.421875 0 L 5.328125 -6.703125 L 0.796875 -12.90625 L 2.734375 -12.90625 L 6.3125 -7.84375 L 9.8125 -12.90625 L 11.734375 -12.90625 L 7.328125 -6.765625 L 12.109375 0 Z M 10.1875 0 "/></g></g></g><g fill="#3d3d3a" fill-opacity="1"><g transform="translate(339.249109, 243.347376)"><g><path d="M 11.515625 -9.015625 C 11.515625 -7.796875 11.113281 -6.828125 10.3125 -6.109375 C 9.519531 -5.390625 8.441406 -5.03125 7.078125 -5.03125 L 3.28125 -5.03125 L 3.28125 0 L 1.53125 0 L 1.53125 -12.90625 L 6.96875 -12.90625 C 8.414062 -12.90625 9.535156 -12.566406 10.328125 -11.890625 C 11.117188 -11.210938 11.515625 -10.253906 11.515625 -9.015625 Z M 9.765625 -9 C 9.765625 -10.664062 8.757812 -11.5 6.75 -11.5 L 3.28125 -11.5 L 3.28125 -6.40625 L 6.828125 -6.40625 C 8.785156 -6.40625 9.765625 -7.269531 9.765625 -9 Z M 9.765625 -9 "/></g></g></g><g fill="#3d3d3a" fill-opacity="1"><g transform="translate(351.753316, 243.347376)"><g><path d="M 1.53125 0 L 1.53125 -12.90625 L 11.328125 -12.90625 L 11.328125 -11.46875 L 3.28125 -11.46875 L 3.28125 -7.328125 L 10.78125 -7.328125 L 10.78125 -5.921875 L 3.28125 -5.921875 L 3.28125 -1.421875 L 11.703125 -1.421875 L 11.703125 0 Z M 1.53125 0 "/></g></g></g><g fill="#3d3d3a" fill-opacity="1"><g transform="translate(364.257524, 243.347376)"><g><path d="M 9.90625 0 L 3 -10.984375 L 3.046875 -10.09375 L 3.09375 -8.5625 L 3.09375 0 L 1.53125 0 L 1.53125 -12.90625 L 3.578125 -12.90625 L 10.546875 -1.84375 C 10.472656 -3.039062 10.4375 -3.90625 10.4375 -4.4375 L 10.4375 -12.90625 L 12.015625 -12.90625 L 12.015625 0 Z M 9.90625 0 "/></g></g></g><g fill="#3d3d3a" fill-opacity="1"><g transform="translate(377.79612, 243.347376)"><g><path d="M 11.640625 -3.5625 C 11.640625 -2.375 11.175781 -1.453125 10.25 -0.796875 C 9.320312 -0.140625 8.007812 0.1875 6.3125 0.1875 C 3.175781 0.1875 1.351562 -0.90625 0.84375 -3.09375 L 2.546875 -3.4375 C 2.742188 -2.65625 3.160156 -2.082031 3.796875 -1.71875 C 4.429688 -1.363281 5.289062 -1.1875 6.375 -1.1875 C 7.507812 -1.1875 8.382812 -1.378906 9 -1.765625 C 9.613281 -2.148438 9.921875 -2.71875 9.921875 -3.46875 C 9.921875 -3.894531 9.820312 -4.238281 9.625 -4.5 C 9.4375 -4.757812 9.164062 -4.972656 8.8125 -5.140625 C 8.46875 -5.316406 8.050781 -5.460938 7.5625 -5.578125 C 7.082031 -5.691406 6.550781 -5.816406 5.96875 -5.953125 C 4.945312 -6.179688 4.171875 -6.40625 3.640625 -6.625 C 3.117188 -6.851562 2.703125 -7.101562 2.390625 -7.375 C 2.085938 -7.65625 1.851562 -7.984375 1.6875 -8.359375 C 1.53125 -8.734375 1.453125 -9.160156 1.453125 -9.640625 C 1.453125 -10.742188 1.875 -11.59375 2.71875 -12.1875 C 3.5625 -12.789062 4.773438 -13.09375 6.359375 -13.09375 C 7.816406 -13.09375 8.929688 -12.867188 9.703125 -12.421875 C 10.484375 -11.972656 11.03125 -11.207031 11.34375 -10.125 L 9.625 -9.828125 C 9.4375 -10.503906 9.078125 -11 8.546875 -11.3125 C 8.015625 -11.625 7.273438 -11.78125 6.328125 -11.78125 C 5.296875 -11.78125 4.507812 -11.609375 3.96875 -11.265625 C 3.425781 -10.921875 3.15625 -10.410156 3.15625 -9.734375 C 3.15625 -9.335938 3.257812 -9.007812 3.46875 -8.75 C 3.6875 -8.488281 3.992188 -8.265625 4.390625 -8.078125 C 4.785156 -7.898438 5.570312 -7.679688 6.75 -7.421875 C 7.15625 -7.328125 7.550781 -7.234375 7.9375 -7.140625 C 8.332031 -7.046875 8.707031 -6.929688 9.0625 -6.796875 C 9.425781 -6.671875 9.765625 -6.519531 10.078125 -6.34375 C 10.398438 -6.164062 10.675781 -5.945312 10.90625 -5.6875 C 11.132812 -5.4375 11.3125 -5.132812 11.4375 -4.78125 C 11.570312 -4.4375 11.640625 -4.03125 11.640625 -3.5625 Z M 11.640625 -3.5625 "/></g></g></g><g fill="#3d3d3a" fill-opacity="1"><g transform="translate(390.300328, 243.347376)"><g><path d="M 1.53125 0 L 1.53125 -12.90625 L 11.328125 -12.90625 L 11.328125 -11.46875 L 3.28125 -11.46875 L 3.28125 -7.328125 L 10.78125 -7.328125 L 10.78125 -5.921875 L 3.28125 -5.921875 L 3.28125 -1.421875 L 11.703125 -1.421875 L 11.703125 0 Z M 1.53125 0 "/></g></g></g><g fill="#3d3d3a" fill-opacity="1"><g transform="translate(402.804535, 243.347376)"><g/></g></g><g fill="#3d3d3a" fill-opacity="1"><g transform="translate(407.674265, 243.347376)"><g><path d="M 6.59375 -11.46875 L 6.59375 0 L 4.859375 0 L 4.859375 -11.46875 L 0.421875 -11.46875 L 0.421875 -12.90625 L 11.015625 -12.90625 L 11.015625 -11.46875 Z M 6.59375 -11.46875 "/></g></g></g><g fill="#3d3d3a" fill-opacity="1"><g transform="translate(419.125776, 243.347376)"><g><path d="M 10.65625 0 L 7.3125 -5.359375 L 3.28125 -5.359375 L 3.28125 0 L 1.53125 0 L 1.53125 -12.90625 L 7.609375 -12.90625 C 9.054688 -12.90625 10.175781 -12.578125 10.96875 -11.921875 C 11.757812 -11.273438 12.15625 -10.367188 12.15625 -9.203125 C 12.15625 -8.242188 11.875 -7.4375 11.3125 -6.78125 C 10.757812 -6.132812 9.992188 -5.726562 9.015625 -5.5625 L 12.671875 0 Z M 10.40625 -9.1875 C 10.40625 -9.9375 10.148438 -10.507812 9.640625 -10.90625 C 9.128906 -11.300781 8.394531 -11.5 7.4375 -11.5 L 3.28125 -11.5 L 3.28125 -6.734375 L 7.5 -6.734375 C 8.425781 -6.734375 9.140625 -6.945312 9.640625 -7.375 C 10.148438 -7.8125 10.40625 -8.414062 10.40625 -9.1875 Z M 10.40625 -9.1875 "/></g></g></g><g fill="#3d3d3a" fill-opacity="1"><g transform="translate(432.664372, 243.347376)"><g><path d="M 10.6875 0 L 9.203125 -3.765625 L 3.328125 -3.765625 L 1.84375 0 L 0.03125 0 L 5.296875 -12.90625 L 7.28125 -12.90625 L 12.46875 0 Z M 6.265625 -11.578125 L 6.1875 -11.328125 C 6.03125 -10.816406 5.804688 -10.164062 5.515625 -9.375 L 3.859375 -5.140625 L 8.6875 -5.140625 L 7.03125 -9.390625 C 6.863281 -9.816406 6.691406 -10.296875 6.515625 -10.828125 Z M 6.265625 -11.578125 "/></g></g></g><g fill="#3d3d3a" fill-opacity="1"><g transform="translate(445.16858, 243.347376)"><g><path d="M 7.25 -11.65625 C 5.820312 -11.65625 4.710938 -11.195312 3.921875 -10.28125 C 3.128906 -9.363281 2.734375 -8.109375 2.734375 -6.515625 C 2.734375 -4.929688 3.144531 -3.65625 3.96875 -2.6875 C 4.789062 -1.726562 5.910156 -1.25 7.328125 -1.25 C 9.128906 -1.25 10.484375 -2.144531 11.390625 -3.9375 L 12.828125 -3.21875 C 12.296875 -2.113281 11.546875 -1.269531 10.578125 -0.6875 C 9.617188 -0.101562 8.503906 0.1875 7.234375 0.1875 C 5.941406 0.1875 4.816406 -0.0820312 3.859375 -0.625 C 2.910156 -1.164062 2.1875 -1.9375 1.6875 -2.9375 C 1.195312 -3.945312 0.953125 -5.140625 0.953125 -6.515625 C 0.953125 -8.566406 1.503906 -10.175781 2.609375 -11.34375 C 3.722656 -12.507812 5.265625 -13.09375 7.234375 -13.09375 C 8.609375 -13.09375 9.753906 -12.820312 10.671875 -12.28125 C 11.597656 -11.75 12.273438 -10.953125 12.703125 -9.890625 L 11.046875 -9.34375 C 10.753906 -10.09375 10.273438 -10.664062 9.609375 -11.0625 C 8.941406 -11.457031 8.15625 -11.65625 7.25 -11.65625 Z M 7.25 -11.65625 "/></g></g></g><g fill="#3d3d3a" fill-opacity="1"><g transform="translate(458.707176, 243.347376)"><g><path d="M 10.125 0 L 4.96875 -6.21875 L 3.28125 -4.9375 L 3.28125 0 L 1.53125 0 L 1.53125 -12.90625 L 3.28125 -12.90625 L 3.28125 -6.4375 L 9.5 -12.90625 L 11.5625 -12.90625 L 6.0625 -7.296875 L 12.296875 0 Z M 10.125 0 "/></g></g></g><g fill="#3d3d3a" fill-opacity="1"><g transform="translate(471.211384, 243.347376)"><g><path d="M 1.53125 0 L 1.53125 -12.90625 L 11.328125 -12.90625 L 11.328125 -11.46875 L 3.28125 -11.46875 L 3.28125 -7.328125 L 10.78125 -7.328125 L 10.78125 -5.921875 L 3.28125 -5.921875 L 3.28125 -1.421875 L 11.703125 -1.421875 L 11.703125 0 Z M 1.53125 0 "/></g></g></g><g fill="#3d3d3a" fill-opacity="1"><g transform="translate(483.715591, 243.347376)"><g><path d="M 10.65625 0 L 7.3125 -5.359375 L 3.28125 -5.359375 L 3.28125 0 L 1.53125 0 L 1.53125 -12.90625 L 7.609375 -12.90625 C 9.054688 -12.90625 10.175781 -12.578125 10.96875 -11.921875 C 11.757812 -11.273438 12.15625 -10.367188 12.15625 -9.203125 C 12.15625 -8.242188 11.875 -7.4375 11.3125 -6.78125 C 10.757812 -6.132812 9.992188 -5.726562 9.015625 -5.5625 L 12.671875 0 Z M 10.40625 -9.1875 C 10.40625 -9.9375 10.148438 -10.507812 9.640625 -10.90625 C 9.128906 -11.300781 8.394531 -11.5 7.4375 -11.5 L 3.28125 -11.5 L 3.28125 -6.734375 L 7.5 -6.734375 C 8.425781 -6.734375 9.140625 -6.945312 9.640625 -7.375 C 10.148438 -7.8125 10.40625 -8.414062 10.40625 -9.1875 Z M 10.40625 -9.1875 "/></g></g></g><path fill="#1a7a5e" d="M 312.363281 215.84375 L 373.652344 215.84375 C 373.898438 215.84375 374.140625 215.890625 374.367188 215.988281 C 374.597656 216.082031 374.800781 216.21875 374.976562 216.394531 C 375.152344 216.570312 375.289062 216.773438 375.382812 217 C 375.480469 217.230469 375.527344 217.472656 375.527344 217.71875 C 375.527344 217.96875 375.480469 218.207031 375.382812 218.4375 C 375.289062 218.667969 375.152344 218.871094 374.976562 219.046875 C 374.800781 219.222656 374.597656 219.359375 374.367188 219.453125 C 374.140625 219.546875 373.898438 219.597656 373.652344 219.597656 L 312.363281 219.597656 C 312.117188 219.597656 311.878906 219.546875 311.648438 219.453125 C 311.417969 219.359375 311.214844 219.222656 311.039062 219.046875 C 310.863281 218.871094 310.726562 218.667969 310.632812 218.4375 C 310.535156 218.207031 310.488281 217.96875 310.488281 217.71875 C 310.488281 217.472656 310.535156 217.230469 310.632812 217 C 310.726562 216.773438 310.863281 216.570312 311.039062 216.394531 C 311.214844 216.21875 311.417969 216.082031 311.648438 215.988281 C 311.878906 215.890625 312.117188 215.84375 312.363281 215.84375 Z M 312.363281 215.84375 " fill-opacity="1" fill-rule="nonzero"/></svg>