<svg width="310" height="78" viewBox="0 0 310 78" fill="none" xmlns="http://www.w3.org/2000/svg">
<path d="M38.5 77.011C59.763 77.011 77 59.7715 77 38.5055C77 17.2395 59.763 0 38.5 0C17.237 0 0 17.2395 0 38.5055C0 59.7715 17.237 77.011 38.5 77.011Z" fill="#1A7A5E"/>
<path opacity="0.25" d="M38.4999 64.7592C52.9974 64.7592 64.7499 53.005 64.7499 38.5054C64.7499 24.0059 52.9974 12.2517 38.4999 12.2517C24.0025 12.2517 12.2499 24.0059 12.2499 38.5054C12.2499 53.005 24.0025 64.7592 38.4999 64.7592Z" stroke="white" stroke-width="5"/>
<path opacity="0.97" d="M38.5 51.1069C45.4587 51.1069 51.1 45.4649 51.1 38.5051C51.1 31.5453 45.4587 25.9033 38.5 25.9033C31.5412 25.9033 25.9 31.5453 25.9 38.5051C25.9 45.4649 31.5412 51.1069 38.5 51.1069Z" fill="white"/>
<path d="M37.1517 46.6364V30.2727H38.1999V46.6364H37.1517ZM40.6801 35.1818C40.6034 34.5341 40.2923 34.0312 39.7468 33.6733C39.2014 33.3153 38.5323 33.1364 37.7397 33.1364C37.1602 33.1364 36.6531 33.2301 36.2184 33.4176C35.788 33.6051 35.4514 33.8629 35.2085 34.1911C34.9698 34.5192 34.8505 34.892 34.8505 35.3097C34.8505 35.6591 34.9336 35.9595 35.0998 36.2109C35.2703 36.4581 35.4876 36.6648 35.7518 36.831C36.016 36.9929 36.293 37.1271 36.5828 37.2337C36.8725 37.3359 37.1389 37.419 37.3818 37.483L38.7113 37.8409C39.0522 37.9304 39.4315 38.054 39.8491 38.2116C40.271 38.3693 40.6737 38.5845 41.0572 38.8572C41.445 39.1257 41.7646 39.4709 42.016 39.8928C42.2674 40.3146 42.3931 40.8324 42.3931 41.446C42.3931 42.1534 42.2078 42.7926 41.837 43.3636C41.4705 43.9347 40.9336 44.3885 40.2262 44.7251C39.5231 45.0618 38.6687 45.2301 37.663 45.2301C36.7255 45.2301 35.9137 45.0788 35.2276 44.7763C34.5458 44.4737 34.0089 44.0518 33.6168 43.5107C33.2291 42.9695 33.0096 42.3409 32.9585 41.625H34.5948C34.6374 42.1193 34.8036 42.5284 35.0934 42.8523C35.3874 43.1719 35.7582 43.4105 36.2056 43.5682C36.6573 43.7216 37.1431 43.7983 37.663 43.7983C38.2681 43.7983 38.8115 43.7003 39.293 43.5043C39.7745 43.304 40.1559 43.027 40.4372 42.6733C40.7184 42.3153 40.859 41.8977 40.859 41.4205C40.859 40.9858 40.7376 40.6321 40.4947 40.3594C40.2518 40.0866 39.9322 39.8651 39.5359 39.6946C39.1396 39.5241 38.7113 39.375 38.2511 39.2472L36.6403 38.7869C35.6176 38.4929 34.8079 38.0732 34.2113 37.5277C33.6147 36.9822 33.3164 36.2685 33.3164 35.3864C33.3164 34.6534 33.5146 34.0142 33.9109 33.4688C34.3115 32.919 34.8484 32.4929 35.5217 32.1903C36.1992 31.8835 36.9556 31.7301 37.7909 31.7301C38.6346 31.7301 39.3846 31.8814 40.0409 32.1839C40.6971 32.4822 41.217 32.8913 41.6005 33.4112C41.9883 33.9311 42.1928 34.5213 42.2142 35.1818H40.6801Z" fill="#1A7A5E"/>
<path opacity="0.5" d="M38.5 25.9036V14.002" stroke="white" stroke-width="2.5"/>
<path d="M38.5 15.402C41.2062 15.402 43.4 13.2079 43.4 10.5013C43.4 7.7947 41.2062 5.60059 38.5 5.60059C35.7938 5.60059 33.6 7.7947 33.6 10.5013C33.6 13.2079 35.7938 15.402 38.5 15.402Z" fill="#27AE7A"/>
<path opacity="0.6" d="M38.5 15.402C41.2062 15.402 43.4 13.2079 43.4 10.5013C43.4 7.7947 41.2062 5.60059 38.5 5.60059C35.7938 5.60059 33.6 7.7947 33.6 10.5013C33.6 13.2079 35.7938 15.402 38.5 15.402Z" stroke="white" stroke-width="2"/>
<path opacity="0.5" d="M51.1 38.5054H63" stroke="white" stroke-width="2.5"/>
<path d="M67.2 43.4061C69.9062 43.4061 72.1 41.212 72.1 38.5054C72.1 35.7989 69.9062 33.6047 67.2 33.6047C64.4938 33.6047 62.3 35.7989 62.3 38.5054C62.3 41.212 64.4938 43.4061 67.2 43.4061Z" fill="#27AE7A"/>
<path opacity="0.6" d="M67.2 43.4061C69.9062 43.4061 72.1 41.212 72.1 38.5054C72.1 35.7989 69.9062 33.6047 67.2 33.6047C64.4938 33.6047 62.3 35.7989 62.3 38.5054C62.3 41.212 64.4938 43.4061 67.2 43.4061Z" stroke="white" stroke-width="2"/>
<path opacity="0.5" d="M38.5 51.1072V63.0089" stroke="white" stroke-width="2.5"/>
<path d="M38.5 72.1102C41.2062 72.1102 43.4 69.9161 43.4 67.2095C43.4 64.503 41.2062 62.3088 38.5 62.3088C35.7938 62.3088 33.6 64.503 33.6 67.2095C33.6 69.9161 35.7938 72.1102 38.5 72.1102Z" fill="#27AE7A"/>
<path opacity="0.6" d="M38.5 72.1102C41.2062 72.1102 43.4 69.9161 43.4 67.2095C43.4 64.503 41.2062 62.3088 38.5 62.3088C35.7938 62.3088 33.6 64.503 33.6 67.2095C33.6 69.9161 35.7938 72.1102 38.5 72.1102Z" stroke="white" stroke-width="2"/>
<path opacity="0.5" d="M25.8999 38.5054H13.9999" stroke="white" stroke-width="2.5"/>
<path d="M9.79996 43.4061C12.5062 43.4061 14.7 41.212 14.7 38.5054C14.7 35.7989 12.5062 33.6047 9.79996 33.6047C7.09377 33.6047 4.89996 35.7989 4.89996 38.5054C4.89996 41.212 7.09377 43.4061 9.79996 43.4061Z" fill="#27AE7A"/>
<path opacity="0.6" d="M9.79996 43.4061C12.5062 43.4061 14.7 41.212 14.7 38.5054C14.7 35.7989 12.5062 33.6047 9.79996 33.6047C7.09377 33.6047 4.89996 35.7989 4.89996 38.5054C4.89996 41.212 7.09377 43.4061 9.79996 43.4061Z" stroke="white" stroke-width="2"/>
<path opacity="0.9" d="M38.5 8.05103L39.55 10.5014H37.45L38.5 8.05103Z" fill="white"/>
<path opacity="0.9" d="M38.5 69.6598L39.55 67.2095H37.45L38.5 69.6598Z" fill="white"/>
<path opacity="0.9" d="M69.65 38.5055L67.2 37.4553V39.5556L69.65 38.5055Z" fill="white"/>
<path opacity="0.9" d="M11.55 37.1052H8.05001C7.85671 37.1052 7.70001 37.2619 7.70001 37.4553V37.6303C7.70001 37.8236 7.85671 37.9803 8.05001 37.9803H11.55C11.7433 37.9803 11.9 37.8236 11.9 37.6303V37.4553C11.9 37.2619 11.7433 37.1052 11.55 37.1052Z" fill="white"/>
<path opacity="0.9" d="M10.5 38.5054H8.05001C7.85671 38.5054 7.70001 38.6621 7.70001 38.8554V39.0304C7.70001 39.2238 7.85671 39.3805 8.05001 39.3805H10.5C10.6933 39.3805 10.85 39.2238 10.85 39.0304V38.8554C10.85 38.6621 10.6933 38.5054 10.5 38.5054Z" fill="white"/>
<path opacity="0.9" d="M11.55 39.9055H8.05001C7.85671 39.9055 7.70001 40.0622 7.70001 40.2556V40.4306C7.70001 40.6239 7.85671 40.7806 8.05001 40.7806H11.55C11.7433 40.7806 11.9 40.6239 11.9 40.4306V40.2556C11.9 40.0622 11.7433 39.9055 11.55 39.9055Z" fill="white"/>
<path d="M86.0824 10.5455H89.7614L98.4119 31.6747H98.7102L107.361 10.5455H111.04V36H108.156V16.6605H107.908L99.9531 36H97.169L89.2145 16.6605H88.9659V36H86.0824V10.5455ZM124.578 36.3977C122.855 36.3977 121.342 35.9876 120.041 35.1673C118.749 34.3469 117.738 33.1993 117.009 31.7244C116.288 30.2495 115.927 28.526 115.927 26.554C115.927 24.5653 116.288 22.8294 117.009 21.3462C117.738 19.863 118.749 18.7113 120.041 17.891C121.342 17.0707 122.855 16.6605 124.578 16.6605C126.302 16.6605 127.81 17.0707 129.102 17.891C130.403 18.7113 131.414 19.863 132.135 21.3462C132.864 22.8294 133.229 24.5653 133.229 26.554C133.229 28.526 132.864 30.2495 132.135 31.7244C131.414 33.1993 130.403 34.3469 129.102 35.1673C127.81 35.9876 126.302 36.3977 124.578 36.3977ZM124.578 33.7628C125.887 33.7628 126.964 33.4272 127.81 32.756C128.655 32.0849 129.28 31.2024 129.686 30.1087C130.092 29.0149 130.295 27.83 130.295 26.554C130.295 25.2779 130.092 24.0889 129.686 22.9869C129.28 21.8848 128.655 20.9941 127.81 20.3146C126.964 19.6352 125.887 19.2955 124.578 19.2955C123.269 19.2955 122.192 19.6352 121.347 20.3146C120.501 20.9941 119.876 21.8848 119.47 22.9869C119.064 24.0889 118.861 25.2779 118.861 26.554C118.861 27.83 119.064 29.0149 119.47 30.1087C119.876 31.2024 120.501 32.0849 121.347 32.756C122.192 33.4272 123.269 33.7628 124.578 33.7628ZM140.639 24.5156V36H137.706V16.9091H140.54V19.892H140.789C141.236 18.9226 141.915 18.1437 142.827 17.5554C143.738 16.9588 144.915 16.6605 146.357 16.6605C147.649 16.6605 148.78 16.9257 149.75 17.456C150.719 17.978 151.473 18.7734 152.012 19.8423C152.55 20.9029 152.82 22.2453 152.82 23.8693V36H149.887V24.0682C149.887 22.5684 149.497 21.4001 148.718 20.5632C147.939 19.718 146.87 19.2955 145.512 19.2955C144.575 19.2955 143.738 19.4985 143.001 19.9045C142.272 20.3105 141.696 20.9029 141.273 21.6818C140.851 22.4607 140.639 23.4053 140.639 24.5156ZM166.184 36.3977C164.345 36.3977 162.758 35.9917 161.424 35.1797C160.098 34.3594 159.075 33.2159 158.354 31.7493C157.641 30.2744 157.285 28.5592 157.285 26.6037C157.285 24.6482 157.641 22.9247 158.354 21.4332C159.075 19.9335 160.077 18.7652 161.362 17.9283C162.654 17.0831 164.162 16.6605 165.886 16.6605C166.88 16.6605 167.862 16.8262 168.831 17.1577C169.801 17.4891 170.683 18.0277 171.479 18.7734C172.274 19.5109 172.908 20.4886 173.38 21.7067C173.853 22.9247 174.089 24.4245 174.089 26.206V27.4489H159.373V24.9134H171.106C171.106 23.8362 170.89 22.875 170.46 22.0298C170.037 21.1847 169.432 20.5176 168.645 20.0288C167.866 19.5399 166.946 19.2955 165.886 19.2955C164.717 19.2955 163.707 19.5855 162.853 20.1655C162.008 20.7372 161.357 21.483 160.902 22.4027C160.446 23.3224 160.218 24.3085 160.218 25.3608V27.0511C160.218 28.4929 160.467 29.7151 160.964 30.7177C161.469 31.712 162.169 32.4702 163.064 32.9922C163.959 33.5059 164.999 33.7628 166.184 33.7628C166.955 33.7628 167.651 33.6551 168.272 33.4396C168.902 33.2159 169.445 32.8845 169.9 32.4453C170.356 31.9979 170.708 31.4427 170.957 30.7798L173.791 31.5753C173.492 32.5365 172.991 33.3816 172.287 34.1108C171.582 34.8317 170.712 35.3951 169.677 35.8011C168.641 36.1989 167.477 36.3977 166.184 36.3977ZM179.859 43.1591C179.362 43.1591 178.919 43.1177 178.529 43.0348C178.14 42.9602 177.87 42.8857 177.721 42.8111L178.467 40.2259C179.18 40.4081 179.809 40.4744 180.356 40.4247C180.903 40.375 181.388 40.1306 181.81 39.6914C182.241 39.2605 182.635 38.5604 182.991 37.5909L183.538 36.0994L176.478 16.9091H179.66L184.93 32.1222H185.129L190.399 16.9091H193.581L185.477 38.7841C185.112 39.7701 184.661 40.5863 184.122 41.2326C183.584 41.8872 182.958 42.3719 182.245 42.6868C181.541 43.0017 180.746 43.1591 179.859 43.1591ZM207.694 36V10.5455H210.776V21.8807H224.349V10.5455H227.431V36H224.349V24.6151H210.776V36H207.694ZM245.235 28.1946V16.9091H248.169V36H245.235V32.7685H245.037C244.589 33.7379 243.893 34.5624 242.949 35.2418C242.004 35.913 240.811 36.2486 239.369 36.2486C238.176 36.2486 237.115 35.9876 236.187 35.4656C235.259 34.9353 234.53 34.1398 234 33.0792C233.469 32.0103 233.204 30.6638 233.204 29.0398V16.9091H236.137V28.8409C236.137 30.233 236.527 31.3433 237.306 32.1719C238.093 33.0005 239.096 33.4148 240.314 33.4148C241.043 33.4148 241.784 33.2283 242.538 32.8555C243.301 32.4826 243.939 31.9109 244.452 31.1403C244.974 30.3697 245.235 29.3878 245.235 28.1946ZM253.939 36V10.5455H256.872V19.9418H257.121C257.336 19.6103 257.634 19.1877 258.016 18.674C258.405 18.152 258.96 17.688 259.681 17.282C260.41 16.8677 261.396 16.6605 262.639 16.6605C264.247 16.6605 265.664 17.0624 266.89 17.8661C268.116 18.6699 269.073 19.8092 269.761 21.2841C270.449 22.759 270.793 24.4991 270.793 26.5043C270.793 28.526 270.449 30.2785 269.761 31.7617C269.073 33.2366 268.12 34.3801 266.902 35.1921C265.684 35.9959 264.28 36.3977 262.689 36.3977C261.463 36.3977 260.481 36.1947 259.743 35.7887C259.006 35.3744 258.438 34.9062 258.04 34.3842C257.643 33.8539 257.336 33.4148 257.121 33.0668H256.773V36H253.939ZM256.822 26.4545C256.822 27.8963 257.034 29.1682 257.456 30.2702C257.879 31.364 258.496 32.2216 259.308 32.843C260.12 33.4562 261.114 33.7628 262.291 33.7628C263.517 33.7628 264.541 33.4396 265.361 32.7933C266.19 32.1387 266.811 31.2604 267.225 30.1584C267.648 29.0481 267.859 27.8134 267.859 26.4545C267.859 25.1122 267.652 23.9025 267.238 22.8253C266.832 21.7398 266.215 20.8822 265.386 20.2525C264.566 19.6145 263.534 19.2955 262.291 19.2955C261.098 19.2955 260.095 19.5979 259.283 20.2028C258.471 20.7994 257.858 21.6362 257.444 22.7134C257.03 23.7823 256.822 25.0294 256.822 26.4545Z" fill="#141413"/>
<path d="M86.321 59V48.0909H92.9048V49.2628H87.642V52.9489H92.5639V54.1207H87.642V57.8281H92.9901V59H86.321ZM95.9251 48.0909L98.7376 52.6293H98.8228L101.635 48.0909H103.191L99.7603 53.5455L103.191 59H101.635L98.8228 54.5469H98.7376L95.9251 59H94.3697L97.8853 53.5455L94.3697 48.0909H95.9251ZM104.91 59V48.0909H108.596C109.452 48.0909 110.151 48.2454 110.695 48.5543C111.242 48.8597 111.646 49.2734 111.909 49.7955C112.172 50.3175 112.303 50.8999 112.303 51.5426C112.303 52.1854 112.172 52.7695 111.909 53.2951C111.65 53.8207 111.249 54.2397 110.705 54.5522C110.162 54.8612 109.466 55.0156 108.617 55.0156H105.975V53.8438H108.575C109.161 53.8438 109.631 53.7425 109.986 53.5401C110.341 53.3377 110.599 53.0643 110.759 52.7198C110.922 52.3718 111.004 51.9794 111.004 51.5426C111.004 51.1058 110.922 50.7152 110.759 50.3707C110.599 50.0263 110.34 49.7564 109.981 49.5611C109.622 49.3622 109.146 49.2628 108.553 49.2628H106.231V59H104.91ZM114.431 59V48.0909H121.015V49.2628H115.752V52.9489H120.674V54.1207H115.752V57.8281H121.1V59H114.431ZM132.047 48.0909V59H130.768L124.824 50.4347H124.717V59H123.396V48.0909H124.675L130.641 56.6776H130.747V48.0909H132.047ZM140.656 50.8182C140.592 50.2784 140.333 49.8594 139.878 49.5611C139.424 49.2628 138.866 49.1136 138.206 49.1136C137.723 49.1136 137.3 49.1918 136.938 49.348C136.579 49.5043 136.299 49.7191 136.096 49.9925C135.898 50.266 135.798 50.5767 135.798 50.9247C135.798 51.2159 135.867 51.4663 136.006 51.6758C136.148 51.8817 136.329 52.054 136.549 52.1925C136.769 52.3274 137 52.4393 137.242 52.5281C137.483 52.6133 137.705 52.6825 137.907 52.7358L139.015 53.0341C139.3 53.1087 139.616 53.2116 139.964 53.343C140.315 53.4744 140.651 53.6538 140.97 53.881C141.294 54.1048 141.56 54.3924 141.769 54.744C141.979 55.0955 142.084 55.527 142.084 56.0384C142.084 56.6278 141.929 57.1605 141.62 57.6364C141.315 58.1122 140.867 58.4904 140.278 58.771C139.692 59.0515 138.98 59.1918 138.142 59.1918C137.361 59.1918 136.684 59.0657 136.112 58.8136C135.544 58.5614 135.097 58.2099 134.77 57.7589C134.447 57.3079 134.264 56.7841 134.221 56.1875H135.585C135.621 56.5994 135.759 56.9403 136.001 57.2102C136.246 57.4766 136.555 57.6754 136.927 57.8068C137.304 57.9347 137.709 57.9986 138.142 57.9986C138.646 57.9986 139.099 57.9169 139.5 57.7536C139.901 57.5866 140.219 57.3558 140.454 57.0611C140.688 56.7628 140.805 56.4148 140.805 56.017C140.805 55.6548 140.704 55.3601 140.502 55.1328C140.299 54.9055 140.033 54.7209 139.703 54.5788C139.372 54.4368 139.015 54.3125 138.632 54.206L137.29 53.8224C136.437 53.5774 135.763 53.2276 135.265 52.7731C134.768 52.3185 134.52 51.7237 134.52 50.9886C134.52 50.3778 134.685 49.8452 135.015 49.3906C135.349 48.9325 135.796 48.5774 136.357 48.3253C136.922 48.0696 137.552 47.9418 138.248 47.9418C138.952 47.9418 139.577 48.0678 140.123 48.32C140.67 48.5685 141.104 48.9094 141.423 49.3427C141.746 49.7759 141.917 50.2678 141.934 50.8182H140.656ZM144.256 59V48.0909H150.839V49.2628H145.577V52.9489H150.498V54.1207H145.577V57.8281H150.925V59H144.256ZM156.843 49.2628V48.0909H165.024V49.2628H161.594V59H160.273V49.2628H156.843ZM167.063 59V48.0909H170.749C171.602 48.0909 172.301 48.2365 172.848 48.5277C173.395 48.8153 173.8 49.2113 174.062 49.7156C174.325 50.2198 174.457 50.7933 174.457 51.4361C174.457 52.0788 174.325 52.6488 174.062 53.146C173.8 53.6431 173.397 54.0337 172.853 54.3178C172.31 54.5984 171.616 54.7386 170.771 54.7386H167.788V53.5455H170.728C171.31 53.5455 171.779 53.4602 172.134 53.2898C172.493 53.1193 172.752 52.8778 172.912 52.5653C173.075 52.2493 173.157 51.8729 173.157 51.4361C173.157 50.9993 173.075 50.6175 172.912 50.2908C172.749 49.9641 172.488 49.712 172.129 49.5344C171.77 49.3533 171.296 49.2628 170.707 49.2628H168.384V59H167.063ZM172.198 54.0994L174.883 59H173.349L170.707 54.0994H172.198ZM177.105 59H175.72L179.726 48.0909H181.09L185.095 59H183.71L180.451 49.8168H180.365L177.105 59ZM177.617 54.7386H183.199V55.9105H177.617V54.7386ZM195.06 51.5H193.739C193.661 51.12 193.525 50.7862 193.329 50.4986C193.137 50.2109 192.903 49.9695 192.626 49.7741C192.353 49.5753 192.049 49.4261 191.715 49.3267C191.381 49.2273 191.033 49.1776 190.671 49.1776C190.011 49.1776 189.412 49.3445 188.876 49.6783C188.343 50.0121 187.919 50.5039 187.603 51.1538C187.29 51.8036 187.134 52.6009 187.134 53.5455C187.134 54.4901 187.29 55.2873 187.603 55.9371C187.919 56.587 188.343 57.0788 188.876 57.4126C189.412 57.7464 190.011 57.9134 190.671 57.9134C191.033 57.9134 191.381 57.8636 191.715 57.7642C192.049 57.6648 192.353 57.5174 192.626 57.3221C192.903 57.1232 193.137 56.88 193.329 56.5923C193.525 56.3011 193.661 55.9673 193.739 55.5909H195.06C194.961 56.1484 194.78 56.6474 194.517 57.0877C194.254 57.5281 193.928 57.9027 193.537 58.2116C193.146 58.517 192.708 58.7496 192.221 58.9094C191.738 59.0692 191.222 59.1491 190.671 59.1491C189.741 59.1491 188.913 58.9219 188.189 58.4673C187.464 58.0128 186.895 57.3665 186.479 56.5284C186.064 55.6903 185.856 54.696 185.856 53.5455C185.856 52.3949 186.064 51.4006 186.479 50.5625C186.895 49.7244 187.464 49.0781 188.189 48.6236C188.913 48.169 189.741 47.9418 190.671 47.9418C191.222 47.9418 191.738 48.0217 192.221 48.1815C192.708 48.3413 193.146 48.5756 193.537 48.8846C193.928 49.19 194.254 49.5629 194.517 50.0032C194.78 50.44 194.961 50.9389 195.06 51.5ZM197.195 59V48.0909H198.516V53.5028H198.644L203.544 48.0909H205.27L200.689 53.0128L205.27 59H203.672L199.88 53.929L198.516 55.4631V59H197.195ZM206.98 59V48.0909H213.564V49.2628H208.301V52.9489H213.223V54.1207H208.301V57.8281H213.649V59H206.98ZM215.945 59V48.0909H219.631C220.483 48.0909 221.183 48.2365 221.73 48.5277C222.277 48.8153 222.682 49.2113 222.944 49.7156C223.207 50.2198 223.339 50.7933 223.339 51.4361C223.339 52.0788 223.207 52.6488 222.944 53.146C222.682 53.6431 222.278 54.0337 221.735 54.3178C221.192 54.5984 220.498 54.7386 219.652 54.7386H216.669V53.5455H219.61C220.192 53.5455 220.661 53.4602 221.016 53.2898C221.375 53.1193 221.634 52.8778 221.794 52.5653C221.957 52.2493 222.039 51.8729 222.039 51.4361C222.039 50.9993 221.957 50.6175 221.794 50.2908C221.63 49.9641 221.369 49.712 221.011 49.5344C220.652 49.3533 220.178 49.2628 219.589 49.2628H217.266V59H215.945ZM221.08 54.0994L223.765 59H222.231L219.589 54.0994H221.08Z" fill="#0F2E22"/>
<path d="M128.811 39H86.3013C85.5826 39 85 39.5827 85 40.3015C85 41.0203 85.5826 41.603 86.3013 41.603H128.811C129.53 41.603 130.112 41.0203 130.112 40.3015C130.112 39.5827 129.53 39 128.811 39Z" fill="#1A7A5E"/>
<line x1="38.5" y1="68" x2="38.5" y2="65" stroke="white"/>
<line x1="65" y1="38.5" x2="68" y2="38.5" stroke="white"/>
<line x1="38.5" y1="13" x2="38.5" y2="10" stroke="white"/>
</svg>
