<svg width="77" height="78" viewBox="0 0 77 78" fill="none" xmlns="http://www.w3.org/2000/svg">
<path d="M38.5 77.011C59.763 77.011 77 59.7715 77 38.5055C77 17.2395 59.763 0 38.5 0C17.237 0 0 17.2395 0 38.5055C0 59.7715 17.237 77.011 38.5 77.011Z" fill="#1A7A5E"/>
<path opacity="0.25" d="M38.4999 64.7594C52.9974 64.7594 64.7499 53.0052 64.7499 38.5057C64.7499 24.0062 52.9974 12.252 38.4999 12.252C24.0025 12.252 12.2499 24.0062 12.2499 38.5057C12.2499 53.0052 24.0025 64.7594 38.4999 64.7594Z" stroke="white" stroke-width="5"/>
<path opacity="0.97" d="M38.5 51.1069C45.4587 51.1069 51.1 45.4649 51.1 38.5051C51.1 31.5453 45.4587 25.9033 38.5 25.9033C31.5412 25.9033 25.9 31.5453 25.9 38.5051C25.9 45.4649 31.5412 51.1069 38.5 51.1069Z" fill="white"/>
<path d="M37.1517 46.6364V30.2727H38.1999V46.6364H37.1517ZM40.6801 35.1818C40.6034 34.5341 40.2923 34.0312 39.7468 33.6733C39.2014 33.3153 38.5323 33.1364 37.7397 33.1364C37.1602 33.1364 36.6531 33.2301 36.2184 33.4176C35.788 33.6051 35.4514 33.8629 35.2085 34.1911C34.9698 34.5192 34.8505 34.892 34.8505 35.3097C34.8505 35.6591 34.9336 35.9595 35.0998 36.2109C35.2703 36.4581 35.4876 36.6648 35.7518 36.831C36.016 36.9929 36.293 37.1271 36.5828 37.2337C36.8725 37.3359 37.1389 37.419 37.3818 37.483L38.7113 37.8409C39.0522 37.9304 39.4315 38.054 39.8491 38.2116C40.271 38.3693 40.6737 38.5845 41.0572 38.8572C41.445 39.1257 41.7646 39.4709 42.016 39.8928C42.2674 40.3146 42.3931 40.8324 42.3931 41.446C42.3931 42.1534 42.2078 42.7926 41.837 43.3636C41.4705 43.9347 40.9336 44.3885 40.2262 44.7251C39.5231 45.0618 38.6687 45.2301 37.663 45.2301C36.7255 45.2301 35.9137 45.0788 35.2276 44.7763C34.5458 44.4737 34.0089 44.0518 33.6168 43.5107C33.2291 42.9695 33.0096 42.3409 32.9585 41.625H34.5948C34.6374 42.1193 34.8036 42.5284 35.0934 42.8523C35.3874 43.1719 35.7582 43.4105 36.2056 43.5682C36.6573 43.7216 37.1431 43.7983 37.663 43.7983C38.2681 43.7983 38.8115 43.7003 39.293 43.5043C39.7745 43.304 40.1559 43.027 40.4372 42.6733C40.7184 42.3153 40.859 41.8977 40.859 41.4205C40.859 40.9858 40.7376 40.6321 40.4947 40.3594C40.2518 40.0866 39.9322 39.8651 39.5359 39.6946C39.1396 39.5241 38.7113 39.375 38.2511 39.2472L36.6403 38.7869C35.6176 38.4929 34.8079 38.0732 34.2113 37.5277C33.6147 36.9822 33.3164 36.2685 33.3164 35.3864C33.3164 34.6534 33.5146 34.0142 33.9109 33.4688C34.3115 32.919 34.8484 32.4929 35.5217 32.1903C36.1992 31.8835 36.9556 31.7301 37.7909 31.7301C38.6346 31.7301 39.3846 31.8814 40.0409 32.1839C40.6971 32.4822 41.217 32.8913 41.6005 33.4112C41.9883 33.9311 42.1928 34.5213 42.2142 35.1818H40.6801Z" fill="#1A7A5E"/>
<path opacity="0.5" d="M38.5 25.9036V14.002" stroke="white" stroke-width="2.5"/>
<path d="M38.5 15.402C41.2062 15.402 43.4 13.2079 43.4 10.5013C43.4 7.7947 41.2062 5.60059 38.5 5.60059C35.7938 5.60059 33.6 7.7947 33.6 10.5013C33.6 13.2079 35.7938 15.402 38.5 15.402Z" fill="#27AE7A"/>
<path opacity="0.6" d="M38.5 15.402C41.2062 15.402 43.4 13.2079 43.4 10.5013C43.4 7.7947 41.2062 5.60059 38.5 5.60059C35.7938 5.60059 33.6 7.7947 33.6 10.5013C33.6 13.2079 35.7938 15.402 38.5 15.402Z" stroke="white" stroke-width="2"/>
<path opacity="0.5" d="M51.1 38.5049H63" stroke="white" stroke-width="2.5"/>
<path d="M67.2 43.4059C69.9062 43.4059 72.1 41.2118 72.1 38.5052C72.1 35.7986 69.9062 33.6045 67.2 33.6045C64.4938 33.6045 62.3 35.7986 62.3 38.5052C62.3 41.2118 64.4938 43.4059 67.2 43.4059Z" fill="#27AE7A"/>
<path opacity="0.6" d="M67.2 43.4059C69.9062 43.4059 72.1 41.2118 72.1 38.5052C72.1 35.7986 69.9062 33.6045 67.2 33.6045C64.4938 33.6045 62.3 35.7986 62.3 38.5052C62.3 41.2118 64.4938 43.4059 67.2 43.4059Z" stroke="white" stroke-width="2"/>
<path opacity="0.5" d="M38.5 51.1074V63.0091" stroke="white" stroke-width="2.5"/>
<path d="M38.5 72.11C41.2062 72.11 43.4 69.9159 43.4 67.2093C43.4 64.5027 41.2062 62.3086 38.5 62.3086C35.7938 62.3086 33.6 64.5027 33.6 67.2093C33.6 69.9159 35.7938 72.11 38.5 72.11Z" fill="#27AE7A"/>
<path opacity="0.6" d="M38.5 72.11C41.2062 72.11 43.4 69.9159 43.4 67.2093C43.4 64.5027 41.2062 62.3086 38.5 62.3086C35.7938 62.3086 33.6 64.5027 33.6 67.2093C33.6 69.9159 35.7938 72.11 38.5 72.11Z" stroke="white" stroke-width="2"/>
<path opacity="0.5" d="M25.8999 38.5049H13.9999" stroke="white" stroke-width="2.5"/>
<path d="M9.79996 43.4059C12.5062 43.4059 14.7 41.2118 14.7 38.5052C14.7 35.7986 12.5062 33.6045 9.79996 33.6045C7.09377 33.6045 4.89996 35.7986 4.89996 38.5052C4.89996 41.2118 7.09377 43.4059 9.79996 43.4059Z" fill="#27AE7A"/>
<path opacity="0.6" d="M9.79996 43.4059C12.5062 43.4059 14.7 41.2118 14.7 38.5052C14.7 35.7986 12.5062 33.6045 9.79996 33.6045C7.09377 33.6045 4.89996 35.7986 4.89996 38.5052C4.89996 41.2118 7.09377 43.4059 9.79996 43.4059Z" stroke="white" stroke-width="2"/>
<path opacity="0.9" d="M38.5 8.05078L39.55 10.5011H37.45L38.5 8.05078Z" fill="white"/>
<path opacity="0.9" d="M38.5 69.6593L39.55 67.209H37.45L38.5 69.6593Z" fill="white"/>
<path opacity="0.9" d="M69.65 38.5052L67.2 37.4551V39.5554L69.65 38.5052Z" fill="white"/>
<path opacity="0.9" d="M11.55 37.1055H8.05001C7.85671 37.1055 7.70001 37.2622 7.70001 37.4555V37.6305C7.70001 37.8239 7.85671 37.9806 8.05001 37.9806H11.55C11.7433 37.9806 11.9 37.8239 11.9 37.6305V37.4555C11.9 37.2622 11.7433 37.1055 11.55 37.1055Z" fill="white"/>
<path opacity="0.9" d="M10.5 38.5049H8.05001C7.85671 38.5049 7.70001 38.6616 7.70001 38.8549V39.03C7.70001 39.2233 7.85671 39.38 8.05001 39.38H10.5C10.6933 39.38 10.85 39.2233 10.85 39.03V38.8549C10.85 38.6616 10.6933 38.5049 10.5 38.5049Z" fill="white"/>
<path opacity="0.9" d="M11.55 39.9053H8.05001C7.85671 39.9053 7.70001 40.062 7.70001 40.2553V40.4303C7.70001 40.6237 7.85671 40.7804 8.05001 40.7804H11.55C11.7433 40.7804 11.9 40.6237 11.9 40.4303V40.2553C11.9 40.062 11.7433 39.9053 11.55 39.9053Z" fill="white"/>
</svg>
